G04 EAGLE Gerber RS-274X export*
G75*
%MOMM*%
%FSLAX34Y34*%
%LPD*%
%INTop Copper*%
%IPPOS*%
%AMOC8*
5,1,8,0,0,1.08239X$1,22.5*%
G01*
%ADD10R,1.524000X1.524000*%
%ADD11P,1.649562X8X22.500000*%
%ADD12R,1.651000X1.651000*%
%ADD13C,1.651000*%
%ADD14C,1.960000*%
%ADD15R,0.800000X0.800000*%
%ADD16R,1.031241X0.949959*%
%ADD17C,4.445000*%
%ADD18C,1.016000*%
%ADD19R,1.143000X1.270000*%
%ADD20C,0.254000*%
%ADD21C,0.609600*%

G36*
X2556Y3692D02*
X2556Y3692D01*
X2563Y3573D01*
X2576Y3535D01*
X2581Y3494D01*
X2624Y3384D01*
X2661Y3271D01*
X2683Y3236D01*
X2698Y3199D01*
X2767Y3103D01*
X2831Y3002D01*
X2861Y2974D01*
X2884Y2941D01*
X2976Y2865D01*
X3063Y2784D01*
X3098Y2764D01*
X3129Y2739D01*
X3237Y2688D01*
X3341Y2630D01*
X3381Y2620D01*
X3417Y2603D01*
X3534Y2581D01*
X3649Y2551D01*
X3709Y2547D01*
X3729Y2543D01*
X3750Y2545D01*
X3810Y2541D01*
X757992Y2541D01*
X758109Y2556D01*
X758228Y2563D01*
X758267Y2575D01*
X758307Y2581D01*
X758417Y2624D01*
X758531Y2661D01*
X758565Y2683D01*
X758603Y2698D01*
X758699Y2767D01*
X758799Y2831D01*
X758827Y2861D01*
X758860Y2884D01*
X758936Y2976D01*
X759017Y3062D01*
X759037Y3098D01*
X759063Y3129D01*
X759114Y3237D01*
X759171Y3341D01*
X759181Y3380D01*
X759198Y3417D01*
X759221Y3534D01*
X759250Y3649D01*
X759254Y3709D01*
X759258Y3729D01*
X759257Y3750D01*
X759261Y3809D01*
X759359Y253999D01*
X759458Y504190D01*
X759443Y504308D01*
X759435Y504427D01*
X759423Y504465D01*
X759418Y504505D01*
X759374Y504616D01*
X759337Y504729D01*
X759316Y504763D01*
X759301Y504801D01*
X759231Y504897D01*
X759167Y504998D01*
X759138Y505026D01*
X759114Y505058D01*
X759023Y505134D01*
X758936Y505216D01*
X758900Y505236D01*
X758870Y505261D01*
X758762Y505312D01*
X758657Y505370D01*
X758618Y505380D01*
X758582Y505397D01*
X758465Y505419D01*
X758349Y505449D01*
X758290Y505453D01*
X758270Y505457D01*
X758249Y505455D01*
X758189Y505459D01*
X3810Y505459D01*
X3692Y505444D01*
X3573Y505437D01*
X3535Y505424D01*
X3494Y505419D01*
X3384Y505376D01*
X3271Y505339D01*
X3236Y505317D01*
X3199Y505302D01*
X3103Y505233D01*
X3002Y505169D01*
X2974Y505139D01*
X2941Y505116D01*
X2865Y505024D01*
X2784Y504937D01*
X2764Y504902D01*
X2739Y504871D01*
X2688Y504763D01*
X2630Y504659D01*
X2620Y504619D01*
X2603Y504583D01*
X2581Y504466D01*
X2551Y504351D01*
X2547Y504291D01*
X2543Y504271D01*
X2545Y504250D01*
X2541Y504190D01*
X2541Y3810D01*
X2556Y3692D01*
G37*
%LPC*%
G36*
X26669Y281941D02*
X26669Y281941D01*
X26669Y290830D01*
X26654Y290948D01*
X26647Y291067D01*
X26634Y291105D01*
X26629Y291145D01*
X26585Y291256D01*
X26549Y291369D01*
X26527Y291404D01*
X26512Y291441D01*
X26442Y291537D01*
X26379Y291638D01*
X26349Y291666D01*
X26325Y291698D01*
X26234Y291774D01*
X26147Y291856D01*
X26112Y291875D01*
X26080Y291901D01*
X25973Y291952D01*
X25869Y292009D01*
X25829Y292020D01*
X25793Y292037D01*
X25676Y292059D01*
X25561Y292089D01*
X25500Y292093D01*
X25480Y292097D01*
X25460Y292095D01*
X25400Y292099D01*
X24129Y292099D01*
X24129Y292101D01*
X25400Y292101D01*
X25518Y292116D01*
X25637Y292123D01*
X25675Y292136D01*
X25715Y292141D01*
X25826Y292185D01*
X25939Y292221D01*
X25974Y292243D01*
X26011Y292258D01*
X26107Y292328D01*
X26208Y292391D01*
X26236Y292421D01*
X26268Y292445D01*
X26344Y292536D01*
X26426Y292623D01*
X26445Y292658D01*
X26471Y292690D01*
X26522Y292797D01*
X26579Y292901D01*
X26590Y292941D01*
X26607Y292977D01*
X26629Y293094D01*
X26659Y293209D01*
X26663Y293270D01*
X26667Y293290D01*
X26665Y293310D01*
X26669Y293370D01*
X26669Y302259D01*
X26669Y302260D01*
X26669Y430531D01*
X76200Y430531D01*
X76318Y430546D01*
X76437Y430553D01*
X76475Y430566D01*
X76516Y430571D01*
X76626Y430614D01*
X76739Y430651D01*
X76774Y430673D01*
X76811Y430688D01*
X76907Y430758D01*
X77008Y430821D01*
X77036Y430851D01*
X77069Y430874D01*
X77145Y430966D01*
X77226Y431053D01*
X77246Y431088D01*
X77271Y431119D01*
X77322Y431227D01*
X77380Y431331D01*
X77390Y431371D01*
X77407Y431407D01*
X77429Y431524D01*
X77459Y431639D01*
X77463Y431700D01*
X77467Y431720D01*
X77465Y431740D01*
X77469Y431800D01*
X77469Y481331D01*
X684531Y481331D01*
X684531Y431800D01*
X684546Y431682D01*
X684553Y431563D01*
X684566Y431525D01*
X684571Y431484D01*
X684614Y431374D01*
X684651Y431261D01*
X684673Y431226D01*
X684688Y431189D01*
X684758Y431093D01*
X684821Y430992D01*
X684851Y430964D01*
X684874Y430931D01*
X684966Y430856D01*
X685053Y430774D01*
X685088Y430754D01*
X685119Y430729D01*
X685227Y430678D01*
X685331Y430620D01*
X685371Y430610D01*
X685407Y430593D01*
X685524Y430571D01*
X685639Y430541D01*
X685700Y430537D01*
X685720Y430533D01*
X685740Y430535D01*
X685800Y430531D01*
X735331Y430531D01*
X735331Y77469D01*
X685800Y77469D01*
X685682Y77454D01*
X685563Y77447D01*
X685525Y77434D01*
X685484Y77429D01*
X685374Y77386D01*
X685261Y77349D01*
X685226Y77327D01*
X685189Y77312D01*
X685093Y77243D01*
X684992Y77179D01*
X684964Y77149D01*
X684931Y77126D01*
X684856Y77034D01*
X684774Y76947D01*
X684754Y76912D01*
X684729Y76881D01*
X684678Y76773D01*
X684620Y76669D01*
X684610Y76629D01*
X684593Y76593D01*
X684571Y76476D01*
X684541Y76361D01*
X684537Y76301D01*
X684533Y76281D01*
X684535Y76260D01*
X684531Y76200D01*
X684531Y26669D01*
X71119Y26669D01*
X71119Y39513D01*
X71116Y39543D01*
X71118Y39572D01*
X71096Y39700D01*
X71079Y39829D01*
X71069Y39856D01*
X71063Y39885D01*
X71010Y40004D01*
X70962Y40124D01*
X70945Y40148D01*
X70933Y40175D01*
X70852Y40277D01*
X70776Y40382D01*
X70753Y40401D01*
X70734Y40424D01*
X70630Y40502D01*
X70531Y40585D01*
X70504Y40597D01*
X70480Y40615D01*
X70336Y40686D01*
X70210Y40738D01*
X66738Y44210D01*
X64859Y48745D01*
X64859Y53655D01*
X66738Y58190D01*
X70210Y61662D01*
X70336Y61714D01*
X70361Y61729D01*
X70389Y61738D01*
X70499Y61807D01*
X70612Y61872D01*
X70633Y61892D01*
X70658Y61908D01*
X70747Y62003D01*
X70840Y62093D01*
X70856Y62118D01*
X70876Y62140D01*
X70939Y62254D01*
X71007Y62364D01*
X71015Y62392D01*
X71030Y62418D01*
X71062Y62544D01*
X71100Y62668D01*
X71102Y62698D01*
X71109Y62726D01*
X71119Y62887D01*
X71119Y64066D01*
X71107Y64164D01*
X71104Y64263D01*
X71087Y64321D01*
X71079Y64381D01*
X71043Y64473D01*
X71015Y64569D01*
X70985Y64621D01*
X70962Y64677D01*
X70904Y64757D01*
X70854Y64842D01*
X70788Y64918D01*
X70776Y64934D01*
X70766Y64942D01*
X70748Y64963D01*
X65471Y70240D01*
X65393Y70300D01*
X65321Y70368D01*
X65268Y70397D01*
X65220Y70434D01*
X65129Y70474D01*
X65042Y70522D01*
X64984Y70537D01*
X64928Y70561D01*
X64830Y70576D01*
X64734Y70601D01*
X64634Y70607D01*
X64614Y70611D01*
X64602Y70609D01*
X64574Y70611D01*
X62388Y70611D01*
X61395Y71023D01*
X61386Y71025D01*
X61378Y71030D01*
X61234Y71067D01*
X61089Y71107D01*
X61079Y71107D01*
X61070Y71109D01*
X60910Y71119D01*
X26669Y71119D01*
X26669Y281940D01*
X26669Y281941D01*
G37*
%LPD*%
%LPC*%
G36*
X726439Y40639D02*
X726439Y40639D01*
X726439Y62736D01*
X728055Y62554D01*
X730767Y61935D01*
X733392Y61017D01*
X735899Y59810D01*
X738254Y58330D01*
X740429Y56595D01*
X742395Y54629D01*
X744130Y52454D01*
X745610Y50099D01*
X746817Y47592D01*
X747735Y44967D01*
X748354Y42255D01*
X748536Y40639D01*
X726439Y40639D01*
G37*
%LPD*%
%LPC*%
G36*
X40639Y472439D02*
X40639Y472439D01*
X40639Y494536D01*
X42255Y494354D01*
X44967Y493735D01*
X47592Y492817D01*
X50099Y491610D01*
X52454Y490130D01*
X54629Y488395D01*
X56595Y486429D01*
X58330Y484254D01*
X59810Y481899D01*
X61017Y479392D01*
X61935Y476767D01*
X62554Y474055D01*
X62736Y472439D01*
X40639Y472439D01*
G37*
%LPD*%
%LPC*%
G36*
X726439Y472439D02*
X726439Y472439D01*
X726439Y494536D01*
X728055Y494354D01*
X730767Y493735D01*
X733392Y492817D01*
X735899Y491610D01*
X738254Y490130D01*
X740429Y488395D01*
X742395Y486429D01*
X744130Y484254D01*
X745610Y481899D01*
X746817Y479392D01*
X747735Y476767D01*
X748354Y474055D01*
X748536Y472439D01*
X726439Y472439D01*
G37*
%LPD*%
%LPC*%
G36*
X40639Y40639D02*
X40639Y40639D01*
X40639Y62736D01*
X42255Y62554D01*
X44967Y61935D01*
X47592Y61017D01*
X50099Y59810D01*
X52454Y58330D01*
X54629Y56595D01*
X56595Y54629D01*
X58330Y52454D01*
X59810Y50099D01*
X61017Y47592D01*
X61935Y44967D01*
X62554Y42255D01*
X62736Y40639D01*
X40639Y40639D01*
G37*
%LPD*%
%LPC*%
G36*
X726439Y35561D02*
X726439Y35561D01*
X748536Y35561D01*
X748354Y33945D01*
X747735Y31233D01*
X746817Y28608D01*
X745610Y26101D01*
X744130Y23746D01*
X742395Y21571D01*
X740429Y19605D01*
X738254Y17870D01*
X735899Y16390D01*
X733392Y15183D01*
X730767Y14265D01*
X728055Y13646D01*
X726439Y13464D01*
X726439Y35561D01*
G37*
%LPD*%
%LPC*%
G36*
X13464Y40639D02*
X13464Y40639D01*
X13646Y42255D01*
X14265Y44967D01*
X15183Y47592D01*
X16390Y50099D01*
X17870Y52454D01*
X19605Y54629D01*
X21571Y56595D01*
X23746Y58330D01*
X26101Y59810D01*
X28608Y61017D01*
X31233Y61935D01*
X33945Y62554D01*
X35561Y62736D01*
X35561Y40639D01*
X13464Y40639D01*
G37*
%LPD*%
%LPC*%
G36*
X13464Y472439D02*
X13464Y472439D01*
X13646Y474055D01*
X14265Y476767D01*
X15183Y479392D01*
X16390Y481899D01*
X17870Y484254D01*
X19605Y486429D01*
X21571Y488395D01*
X23746Y490130D01*
X26101Y491610D01*
X28608Y492817D01*
X31233Y493735D01*
X33945Y494354D01*
X35561Y494536D01*
X35561Y472439D01*
X13464Y472439D01*
G37*
%LPD*%
%LPC*%
G36*
X40639Y467361D02*
X40639Y467361D01*
X62736Y467361D01*
X62554Y465745D01*
X61935Y463033D01*
X61017Y460408D01*
X59810Y457901D01*
X58330Y455546D01*
X56595Y453371D01*
X54629Y451405D01*
X52454Y449670D01*
X50099Y448190D01*
X47592Y446983D01*
X44967Y446065D01*
X42255Y445446D01*
X40639Y445264D01*
X40639Y467361D01*
G37*
%LPD*%
%LPC*%
G36*
X699264Y40639D02*
X699264Y40639D01*
X699446Y42255D01*
X700065Y44967D01*
X700983Y47592D01*
X702190Y50099D01*
X703670Y52454D01*
X705405Y54629D01*
X707371Y56595D01*
X709546Y58330D01*
X711901Y59810D01*
X714408Y61017D01*
X717033Y61935D01*
X719745Y62554D01*
X721361Y62736D01*
X721361Y40639D01*
X699264Y40639D01*
G37*
%LPD*%
%LPC*%
G36*
X726439Y467361D02*
X726439Y467361D01*
X748536Y467361D01*
X748354Y465745D01*
X747735Y463033D01*
X746817Y460408D01*
X745610Y457901D01*
X744130Y455546D01*
X742395Y453371D01*
X740429Y451405D01*
X738254Y449670D01*
X735899Y448190D01*
X733392Y446983D01*
X730767Y446065D01*
X728055Y445446D01*
X726439Y445264D01*
X726439Y467361D01*
G37*
%LPD*%
%LPC*%
G36*
X699264Y472439D02*
X699264Y472439D01*
X699446Y474055D01*
X700065Y476767D01*
X700983Y479392D01*
X702190Y481899D01*
X703670Y484254D01*
X705405Y486429D01*
X707371Y488395D01*
X709546Y490130D01*
X711901Y491610D01*
X714408Y492817D01*
X717033Y493735D01*
X719745Y494354D01*
X721361Y494536D01*
X721361Y472439D01*
X699264Y472439D01*
G37*
%LPD*%
%LPC*%
G36*
X40639Y35561D02*
X40639Y35561D01*
X62736Y35561D01*
X62554Y33945D01*
X61935Y31233D01*
X61017Y28608D01*
X59810Y26101D01*
X58330Y23746D01*
X56595Y21571D01*
X54629Y19605D01*
X52454Y17870D01*
X50099Y16390D01*
X47592Y15183D01*
X44967Y14265D01*
X42255Y13646D01*
X40639Y13464D01*
X40639Y35561D01*
G37*
%LPD*%
%LPC*%
G36*
X719745Y445446D02*
X719745Y445446D01*
X717033Y446065D01*
X714408Y446983D01*
X711901Y448190D01*
X709546Y449670D01*
X707371Y451405D01*
X705405Y453371D01*
X703670Y455546D01*
X702190Y457901D01*
X700983Y460408D01*
X700065Y463033D01*
X699446Y465745D01*
X699264Y467361D01*
X721361Y467361D01*
X721361Y445264D01*
X719745Y445446D01*
G37*
%LPD*%
%LPC*%
G36*
X33945Y13646D02*
X33945Y13646D01*
X31233Y14265D01*
X28608Y15183D01*
X26101Y16390D01*
X23746Y17870D01*
X21571Y19605D01*
X19605Y21571D01*
X17870Y23746D01*
X16390Y26101D01*
X15183Y28608D01*
X14265Y31233D01*
X13646Y33945D01*
X13464Y35561D01*
X35561Y35561D01*
X35561Y13464D01*
X33945Y13646D01*
G37*
%LPD*%
%LPC*%
G36*
X33945Y445446D02*
X33945Y445446D01*
X31233Y446065D01*
X28608Y446983D01*
X26101Y448190D01*
X23746Y449670D01*
X21571Y451405D01*
X19605Y453371D01*
X17870Y455546D01*
X16390Y457901D01*
X15183Y460408D01*
X14265Y463033D01*
X13646Y465745D01*
X13464Y467361D01*
X35561Y467361D01*
X35561Y445264D01*
X33945Y445446D01*
G37*
%LPD*%
%LPC*%
G36*
X719745Y13646D02*
X719745Y13646D01*
X717033Y14265D01*
X714408Y15183D01*
X711901Y16390D01*
X709546Y17870D01*
X707371Y19605D01*
X705405Y21571D01*
X703670Y23746D01*
X702190Y26101D01*
X700983Y28608D01*
X700065Y31233D01*
X699446Y33945D01*
X699264Y35561D01*
X721361Y35561D01*
X721361Y13464D01*
X719745Y13646D01*
G37*
%LPD*%
%LPC*%
G36*
X15874Y294639D02*
X15874Y294639D01*
X15874Y298784D01*
X16047Y299431D01*
X16382Y300010D01*
X16855Y300483D01*
X17434Y300818D01*
X18081Y300991D01*
X21591Y300991D01*
X21591Y294639D01*
X15874Y294639D01*
G37*
%LPD*%
%LPC*%
G36*
X18081Y283209D02*
X18081Y283209D01*
X17434Y283382D01*
X16855Y283717D01*
X16382Y284190D01*
X16047Y284769D01*
X15874Y285416D01*
X15874Y289561D01*
X21591Y289561D01*
X21591Y283209D01*
X18081Y283209D01*
G37*
%LPD*%
%LPC*%
G36*
X723899Y38099D02*
X723899Y38099D01*
X723899Y38101D01*
X723901Y38101D01*
X723901Y38099D01*
X723899Y38099D01*
G37*
%LPD*%
%LPC*%
G36*
X38099Y38099D02*
X38099Y38099D01*
X38099Y38101D01*
X38101Y38101D01*
X38101Y38099D01*
X38099Y38099D01*
G37*
%LPD*%
%LPC*%
G36*
X38099Y469899D02*
X38099Y469899D01*
X38099Y469901D01*
X38101Y469901D01*
X38101Y469899D01*
X38099Y469899D01*
G37*
%LPD*%
%LPC*%
G36*
X723899Y469899D02*
X723899Y469899D01*
X723899Y469901D01*
X723901Y469901D01*
X723901Y469899D01*
X723899Y469899D01*
G37*
%LPD*%
D10*
X97200Y434600D03*
D11*
X97200Y409200D03*
X122600Y434600D03*
X122600Y409200D03*
X148000Y434600D03*
X148000Y409200D03*
X173400Y434600D03*
X173400Y409200D03*
X198800Y434600D03*
X198800Y409200D03*
X224200Y434600D03*
X224200Y409200D03*
X249600Y434600D03*
X249600Y409200D03*
X275000Y434600D03*
X275000Y409200D03*
X300400Y434600D03*
X300400Y409200D03*
X325800Y434600D03*
X325800Y409200D03*
X351200Y434600D03*
X351200Y409200D03*
X376600Y434600D03*
X376600Y409200D03*
X402000Y434600D03*
X402000Y409200D03*
X427400Y434600D03*
X427400Y409200D03*
X452800Y434600D03*
X452800Y409200D03*
X478200Y434600D03*
X478200Y409200D03*
X503600Y434600D03*
X503600Y409200D03*
X529000Y434600D03*
X529000Y409200D03*
D10*
X97200Y180600D03*
D11*
X97200Y155200D03*
X122600Y180600D03*
X122600Y155200D03*
X148000Y180600D03*
X148000Y155200D03*
X173400Y180600D03*
X173400Y155200D03*
X198800Y180600D03*
X198800Y155200D03*
X224200Y180600D03*
X224200Y155200D03*
X249600Y180600D03*
X249600Y155200D03*
X275000Y180600D03*
X275000Y155200D03*
X300400Y180600D03*
X300400Y155200D03*
X325800Y180600D03*
X325800Y155200D03*
X351200Y180600D03*
X351200Y155200D03*
X376600Y180600D03*
X376600Y155200D03*
X402000Y180600D03*
X402000Y155200D03*
X427400Y180600D03*
X427400Y155200D03*
X452800Y180600D03*
X452800Y155200D03*
X478200Y180600D03*
X478200Y155200D03*
X503600Y180600D03*
X503600Y155200D03*
X529000Y180600D03*
X529000Y155200D03*
D12*
X723900Y406400D03*
D13*
X723900Y381000D03*
X723900Y355600D03*
D14*
X202200Y101200D03*
X202200Y51200D03*
X77200Y51200D03*
X77200Y101200D03*
X418100Y101200D03*
X418100Y51200D03*
X293100Y51200D03*
X293100Y101200D03*
X634000Y101200D03*
X634000Y51200D03*
X509000Y51200D03*
X509000Y101200D03*
D15*
X132200Y292100D03*
X147200Y292100D03*
X170300Y292100D03*
X185300Y292100D03*
X208400Y292100D03*
X223400Y292100D03*
X251580Y292100D03*
X266580Y292100D03*
D16*
X228600Y68199D03*
X228600Y84201D03*
X444500Y68199D03*
X444500Y84201D03*
X660400Y68199D03*
X660400Y84201D03*
D17*
X38100Y38100D03*
X723900Y38100D03*
X723900Y469900D03*
X38100Y469900D03*
D18*
X38100Y88900D03*
X38100Y419100D03*
X723900Y88900D03*
D19*
X41910Y292100D03*
X24130Y292100D03*
D20*
X64900Y76200D02*
X77200Y63900D01*
X64900Y76200D02*
X63500Y76200D01*
X77200Y63900D02*
X77200Y51200D01*
D21*
X63500Y76200D03*
D20*
X266580Y292100D02*
X278130Y292100D01*
D21*
X278130Y292100D03*
D20*
X231020Y299720D02*
X223400Y292100D01*
X231020Y299720D02*
X234950Y299720D01*
D21*
X234950Y299720D03*
D20*
X196850Y292100D02*
X185300Y292100D01*
D21*
X196850Y292100D03*
D20*
X158750Y292100D02*
X147200Y292100D01*
D21*
X158750Y292100D03*
D20*
X57150Y292100D02*
X41910Y292100D01*
D21*
X57150Y292100D03*
D20*
X249600Y180600D02*
X289560Y220560D01*
X289560Y312420D02*
X236220Y365760D01*
X236220Y414020D01*
X243840Y421640D01*
X364160Y421640D02*
X376600Y409200D01*
X289560Y312420D02*
X289560Y220560D01*
X243840Y421640D02*
X364160Y421640D01*
X376600Y409200D02*
X404800Y381000D01*
X723900Y381000D01*
X660400Y68199D02*
X444500Y68199D01*
X245999Y68199D02*
X228600Y68199D01*
X245999Y68199D02*
X251460Y73660D01*
X251460Y132080D01*
X236220Y147320D02*
X236220Y160020D01*
X243840Y167640D01*
X363640Y167640D02*
X376600Y180600D01*
X251460Y132080D02*
X236220Y147320D01*
X243840Y167640D02*
X363640Y167640D01*
X444500Y68199D02*
X271399Y68199D01*
X256540Y53340D01*
X233680Y53340D02*
X228600Y58420D01*
X228600Y68199D01*
X233680Y53340D02*
X256540Y53340D01*
X249600Y366440D02*
X249600Y409200D01*
X249600Y366440D02*
X248920Y365760D01*
X302260Y312420D01*
X302260Y254940D02*
X376600Y180600D01*
X302260Y254940D02*
X302260Y312420D01*
X652780Y101600D02*
X660400Y93980D01*
X652780Y101600D02*
X634400Y101600D01*
X634000Y101200D01*
X660400Y93980D02*
X660400Y84201D01*
X634000Y101200D02*
X509000Y101200D01*
X546100Y138300D01*
X546100Y163500D02*
X529000Y180600D01*
X546100Y163500D02*
X546100Y138300D01*
X490220Y129921D02*
X444500Y84201D01*
X490220Y129921D02*
X490220Y167640D01*
X503180Y180600D01*
X503600Y180600D01*
X418100Y101200D02*
X293100Y101200D01*
X418100Y101200D02*
X435480Y83820D01*
X444119Y83820D02*
X444500Y84201D01*
X444119Y83820D02*
X435480Y83820D01*
X228600Y96520D02*
X223520Y101600D01*
X202600Y101600D01*
X202200Y101200D01*
X228600Y96520D02*
X228600Y84201D01*
X77200Y101200D02*
X77200Y148320D01*
X84080Y155200D02*
X97200Y155200D01*
X84080Y155200D02*
X77200Y148320D01*
X151200Y101200D02*
X202200Y101200D01*
X151200Y101200D02*
X97200Y155200D01*
X529000Y409200D02*
X538900Y419100D01*
X683260Y419100D02*
X695960Y406400D01*
X723900Y406400D01*
X683260Y419100D02*
X538900Y419100D01*
X122600Y155200D02*
X109220Y168580D01*
X119380Y246380D02*
X119380Y287020D01*
X124460Y292100D01*
X132200Y292100D01*
X109220Y236220D02*
X109220Y168580D01*
X109220Y236220D02*
X119380Y246380D01*
X134620Y168580D02*
X148000Y155200D01*
X170300Y271900D02*
X170300Y292100D01*
X134620Y236220D02*
X134620Y168580D01*
X134620Y236220D02*
X170300Y271900D01*
X160020Y168580D02*
X173400Y155200D01*
X208400Y284600D02*
X208400Y292100D01*
X160020Y236220D02*
X160020Y168580D01*
X160020Y236220D02*
X208400Y284600D01*
X185420Y168580D02*
X198800Y155200D01*
X185420Y168580D02*
X185420Y236220D01*
X241300Y292100D02*
X251580Y292100D01*
X229870Y280670D02*
X185420Y236220D01*
X229870Y280670D02*
X241300Y292100D01*
M02*
