G04 EAGLE Gerber RS-274X export*
G75*
%MOMM*%
%FSLAX34Y34*%
%LPD*%
%INCopper Layer 2*%
%IPPOS*%
%AMOC8*
5,1,8,0,0,1.08239X$1,22.5*%
G01*
%ADD10C,1.244600*%
%ADD11C,1.960000*%
%ADD12C,4.191000*%
%ADD13C,0.609600*%

G36*
X758109Y2556D02*
X758109Y2556D01*
X758228Y2563D01*
X758267Y2575D01*
X758307Y2581D01*
X758417Y2624D01*
X758531Y2661D01*
X758565Y2683D01*
X758603Y2698D01*
X758699Y2767D01*
X758799Y2831D01*
X758827Y2861D01*
X758860Y2884D01*
X758936Y2976D01*
X759017Y3062D01*
X759037Y3098D01*
X759063Y3129D01*
X759114Y3237D01*
X759171Y3341D01*
X759181Y3380D01*
X759198Y3417D01*
X759221Y3534D01*
X759250Y3649D01*
X759254Y3709D01*
X759258Y3729D01*
X759257Y3750D01*
X759261Y3809D01*
X759458Y504190D01*
X759443Y504308D01*
X759435Y504427D01*
X759423Y504465D01*
X759418Y504505D01*
X759374Y504616D01*
X759337Y504729D01*
X759316Y504763D01*
X759301Y504801D01*
X759231Y504897D01*
X759167Y504998D01*
X759138Y505026D01*
X759114Y505058D01*
X759023Y505134D01*
X758936Y505216D01*
X758900Y505236D01*
X758870Y505261D01*
X758762Y505312D01*
X758657Y505370D01*
X758618Y505380D01*
X758582Y505397D01*
X758465Y505419D01*
X758349Y505449D01*
X758290Y505453D01*
X758270Y505457D01*
X758249Y505455D01*
X758189Y505459D01*
X3810Y505459D01*
X3692Y505444D01*
X3573Y505437D01*
X3535Y505424D01*
X3494Y505419D01*
X3384Y505376D01*
X3271Y505339D01*
X3236Y505317D01*
X3199Y505302D01*
X3103Y505233D01*
X3002Y505169D01*
X2974Y505139D01*
X2941Y505116D01*
X2865Y505024D01*
X2784Y504937D01*
X2764Y504902D01*
X2739Y504871D01*
X2688Y504763D01*
X2630Y504659D01*
X2620Y504619D01*
X2603Y504583D01*
X2581Y504466D01*
X2551Y504351D01*
X2547Y504291D01*
X2543Y504271D01*
X2545Y504250D01*
X2541Y504190D01*
X2541Y3810D01*
X2556Y3692D01*
X2563Y3573D01*
X2576Y3535D01*
X2581Y3494D01*
X2624Y3384D01*
X2661Y3271D01*
X2683Y3236D01*
X2698Y3199D01*
X2767Y3103D01*
X2831Y3002D01*
X2861Y2974D01*
X2884Y2941D01*
X2976Y2865D01*
X3063Y2784D01*
X3098Y2764D01*
X3129Y2739D01*
X3237Y2688D01*
X3341Y2630D01*
X3381Y2620D01*
X3417Y2603D01*
X3534Y2581D01*
X3649Y2551D01*
X3709Y2547D01*
X3729Y2543D01*
X3750Y2545D01*
X3810Y2541D01*
X757992Y2541D01*
X758109Y2556D01*
G37*
%LPC*%
G36*
X719226Y446404D02*
X719226Y446404D01*
X710591Y449981D01*
X703981Y456591D01*
X700404Y465226D01*
X700404Y474574D01*
X703981Y483209D01*
X710591Y489819D01*
X719226Y493396D01*
X728574Y493396D01*
X737209Y489819D01*
X743819Y483209D01*
X747396Y474574D01*
X747396Y465226D01*
X743819Y456591D01*
X737209Y449981D01*
X728574Y446404D01*
X719226Y446404D01*
G37*
%LPD*%
%LPC*%
G36*
X33426Y446404D02*
X33426Y446404D01*
X24791Y449981D01*
X18181Y456591D01*
X14604Y465226D01*
X14604Y474574D01*
X18181Y483209D01*
X24791Y489819D01*
X33426Y493396D01*
X42774Y493396D01*
X51409Y489819D01*
X58019Y483209D01*
X61596Y474574D01*
X61596Y465226D01*
X58019Y456591D01*
X51409Y449981D01*
X42774Y446404D01*
X33426Y446404D01*
G37*
%LPD*%
%LPC*%
G36*
X33426Y14604D02*
X33426Y14604D01*
X24791Y18181D01*
X18181Y24791D01*
X14604Y33426D01*
X14604Y42774D01*
X18181Y51409D01*
X24791Y58019D01*
X33426Y61596D01*
X42774Y61596D01*
X51409Y58019D01*
X58019Y51409D01*
X61596Y42774D01*
X61596Y33426D01*
X58019Y24791D01*
X51409Y18181D01*
X42774Y14604D01*
X33426Y14604D01*
G37*
%LPD*%
%LPC*%
G36*
X719226Y14604D02*
X719226Y14604D01*
X710591Y18181D01*
X703981Y24791D01*
X700404Y33426D01*
X700404Y42774D01*
X703981Y51409D01*
X710591Y58019D01*
X719226Y61596D01*
X728574Y61596D01*
X737209Y58019D01*
X743819Y51409D01*
X747396Y42774D01*
X747396Y33426D01*
X743819Y24791D01*
X737209Y18181D01*
X728574Y14604D01*
X719226Y14604D01*
G37*
%LPD*%
%LPC*%
G36*
X290645Y88859D02*
X290645Y88859D01*
X286110Y90738D01*
X282638Y94210D01*
X280759Y98745D01*
X280759Y103655D01*
X282638Y108190D01*
X286110Y111662D01*
X290645Y113541D01*
X295555Y113541D01*
X300090Y111662D01*
X303562Y108190D01*
X305441Y103655D01*
X305441Y98745D01*
X303562Y94210D01*
X300090Y90738D01*
X295555Y88859D01*
X290645Y88859D01*
G37*
%LPD*%
%LPC*%
G36*
X415645Y88859D02*
X415645Y88859D01*
X411110Y90738D01*
X407638Y94210D01*
X405759Y98745D01*
X405759Y103655D01*
X407638Y108190D01*
X411110Y111662D01*
X415645Y113541D01*
X420555Y113541D01*
X425090Y111662D01*
X428562Y108190D01*
X430441Y103655D01*
X430441Y98745D01*
X428562Y94210D01*
X425090Y90738D01*
X420555Y88859D01*
X415645Y88859D01*
G37*
%LPD*%
%LPC*%
G36*
X506545Y88859D02*
X506545Y88859D01*
X502010Y90738D01*
X498538Y94210D01*
X496659Y98745D01*
X496659Y103655D01*
X498538Y108190D01*
X502010Y111662D01*
X506545Y113541D01*
X511455Y113541D01*
X515990Y111662D01*
X519462Y108190D01*
X521341Y103655D01*
X521341Y98745D01*
X519462Y94210D01*
X515990Y90738D01*
X511455Y88859D01*
X506545Y88859D01*
G37*
%LPD*%
%LPC*%
G36*
X631545Y88859D02*
X631545Y88859D01*
X627010Y90738D01*
X623538Y94210D01*
X621659Y98745D01*
X621659Y103655D01*
X623538Y108190D01*
X627010Y111662D01*
X631545Y113541D01*
X636455Y113541D01*
X640990Y111662D01*
X644462Y108190D01*
X646341Y103655D01*
X646341Y98745D01*
X644462Y94210D01*
X640990Y90738D01*
X636455Y88859D01*
X631545Y88859D01*
G37*
%LPD*%
%LPC*%
G36*
X74745Y88859D02*
X74745Y88859D01*
X70210Y90738D01*
X66738Y94210D01*
X64859Y98745D01*
X64859Y103655D01*
X66738Y108190D01*
X70210Y111662D01*
X74745Y113541D01*
X79655Y113541D01*
X84190Y111662D01*
X87662Y108190D01*
X89541Y103655D01*
X89541Y98745D01*
X87662Y94210D01*
X84190Y90738D01*
X79655Y88859D01*
X74745Y88859D01*
G37*
%LPD*%
%LPC*%
G36*
X199745Y88859D02*
X199745Y88859D01*
X195210Y90738D01*
X191738Y94210D01*
X189859Y98745D01*
X189859Y103655D01*
X191738Y108190D01*
X195210Y111662D01*
X199745Y113541D01*
X204655Y113541D01*
X209190Y111662D01*
X212662Y108190D01*
X214541Y103655D01*
X214541Y98745D01*
X212662Y94210D01*
X209190Y90738D01*
X204655Y88859D01*
X199745Y88859D01*
G37*
%LPD*%
%LPC*%
G36*
X324057Y425836D02*
X324057Y425836D01*
X320836Y427170D01*
X318370Y429636D01*
X317036Y432857D01*
X317036Y436343D01*
X318370Y439564D01*
X320836Y442030D01*
X324057Y443364D01*
X327543Y443364D01*
X330764Y442030D01*
X333230Y439564D01*
X334564Y436343D01*
X334564Y432857D01*
X333230Y429636D01*
X330764Y427170D01*
X327543Y425836D01*
X324057Y425836D01*
G37*
%LPD*%
%LPC*%
G36*
X298657Y425836D02*
X298657Y425836D01*
X295436Y427170D01*
X292970Y429636D01*
X291636Y432857D01*
X291636Y436343D01*
X292970Y439564D01*
X295436Y442030D01*
X298657Y443364D01*
X302143Y443364D01*
X305364Y442030D01*
X307830Y439564D01*
X309164Y436343D01*
X309164Y432857D01*
X307830Y429636D01*
X305364Y427170D01*
X302143Y425836D01*
X298657Y425836D01*
G37*
%LPD*%
%LPC*%
G36*
X247857Y425836D02*
X247857Y425836D01*
X244636Y427170D01*
X242170Y429636D01*
X240836Y432857D01*
X240836Y436343D01*
X242170Y439564D01*
X244636Y442030D01*
X247857Y443364D01*
X251343Y443364D01*
X254564Y442030D01*
X257030Y439564D01*
X258364Y436343D01*
X258364Y432857D01*
X257030Y429636D01*
X254564Y427170D01*
X251343Y425836D01*
X247857Y425836D01*
G37*
%LPD*%
%LPC*%
G36*
X222457Y425836D02*
X222457Y425836D01*
X219236Y427170D01*
X216770Y429636D01*
X215436Y432857D01*
X215436Y436343D01*
X216770Y439564D01*
X219236Y442030D01*
X222457Y443364D01*
X225943Y443364D01*
X229164Y442030D01*
X231630Y439564D01*
X232964Y436343D01*
X232964Y432857D01*
X231630Y429636D01*
X229164Y427170D01*
X225943Y425836D01*
X222457Y425836D01*
G37*
%LPD*%
%LPC*%
G36*
X197057Y425836D02*
X197057Y425836D01*
X193836Y427170D01*
X191370Y429636D01*
X190036Y432857D01*
X190036Y436343D01*
X191370Y439564D01*
X193836Y442030D01*
X197057Y443364D01*
X200543Y443364D01*
X203764Y442030D01*
X206230Y439564D01*
X207564Y436343D01*
X207564Y432857D01*
X206230Y429636D01*
X203764Y427170D01*
X200543Y425836D01*
X197057Y425836D01*
G37*
%LPD*%
%LPC*%
G36*
X171657Y425836D02*
X171657Y425836D01*
X168436Y427170D01*
X165970Y429636D01*
X164636Y432857D01*
X164636Y436343D01*
X165970Y439564D01*
X168436Y442030D01*
X171657Y443364D01*
X175143Y443364D01*
X178364Y442030D01*
X180830Y439564D01*
X182164Y436343D01*
X182164Y432857D01*
X180830Y429636D01*
X178364Y427170D01*
X175143Y425836D01*
X171657Y425836D01*
G37*
%LPD*%
%LPC*%
G36*
X146257Y425836D02*
X146257Y425836D01*
X143036Y427170D01*
X140570Y429636D01*
X139236Y432857D01*
X139236Y436343D01*
X140570Y439564D01*
X143036Y442030D01*
X146257Y443364D01*
X149743Y443364D01*
X152964Y442030D01*
X155430Y439564D01*
X156764Y436343D01*
X156764Y432857D01*
X155430Y429636D01*
X152964Y427170D01*
X149743Y425836D01*
X146257Y425836D01*
G37*
%LPD*%
%LPC*%
G36*
X120857Y425836D02*
X120857Y425836D01*
X117636Y427170D01*
X115170Y429636D01*
X113836Y432857D01*
X113836Y436343D01*
X115170Y439564D01*
X117636Y442030D01*
X120857Y443364D01*
X124343Y443364D01*
X127564Y442030D01*
X130030Y439564D01*
X131364Y436343D01*
X131364Y432857D01*
X130030Y429636D01*
X127564Y427170D01*
X124343Y425836D01*
X120857Y425836D01*
G37*
%LPD*%
%LPC*%
G36*
X95457Y425836D02*
X95457Y425836D01*
X92236Y427170D01*
X89770Y429636D01*
X88436Y432857D01*
X88436Y436343D01*
X89770Y439564D01*
X92236Y442030D01*
X95457Y443364D01*
X98943Y443364D01*
X102164Y442030D01*
X104630Y439564D01*
X105964Y436343D01*
X105964Y432857D01*
X104630Y429636D01*
X102164Y427170D01*
X98943Y425836D01*
X95457Y425836D01*
G37*
%LPD*%
%LPC*%
G36*
X374857Y425836D02*
X374857Y425836D01*
X371636Y427170D01*
X369170Y429636D01*
X367836Y432857D01*
X367836Y436343D01*
X369170Y439564D01*
X371636Y442030D01*
X374857Y443364D01*
X378343Y443364D01*
X381564Y442030D01*
X384030Y439564D01*
X385364Y436343D01*
X385364Y432857D01*
X384030Y429636D01*
X381564Y427170D01*
X378343Y425836D01*
X374857Y425836D01*
G37*
%LPD*%
%LPC*%
G36*
X349457Y425836D02*
X349457Y425836D01*
X346236Y427170D01*
X343770Y429636D01*
X342436Y432857D01*
X342436Y436343D01*
X343770Y439564D01*
X346236Y442030D01*
X349457Y443364D01*
X352943Y443364D01*
X356164Y442030D01*
X358630Y439564D01*
X359964Y436343D01*
X359964Y432857D01*
X358630Y429636D01*
X356164Y427170D01*
X352943Y425836D01*
X349457Y425836D01*
G37*
%LPD*%
%LPC*%
G36*
X95457Y146436D02*
X95457Y146436D01*
X92236Y147770D01*
X89770Y150236D01*
X88436Y153457D01*
X88436Y156943D01*
X89770Y160164D01*
X92236Y162630D01*
X95457Y163964D01*
X98943Y163964D01*
X102164Y162630D01*
X104630Y160164D01*
X105964Y156943D01*
X105964Y153457D01*
X104630Y150236D01*
X102164Y147770D01*
X98943Y146436D01*
X95457Y146436D01*
G37*
%LPD*%
%LPC*%
G36*
X171657Y146436D02*
X171657Y146436D01*
X168436Y147770D01*
X165970Y150236D01*
X164636Y153457D01*
X164636Y156943D01*
X165970Y160164D01*
X168436Y162630D01*
X171657Y163964D01*
X175143Y163964D01*
X178364Y162630D01*
X180830Y160164D01*
X182164Y156943D01*
X182164Y153457D01*
X180830Y150236D01*
X178364Y147770D01*
X175143Y146436D01*
X171657Y146436D01*
G37*
%LPD*%
%LPC*%
G36*
X527257Y400436D02*
X527257Y400436D01*
X524036Y401770D01*
X521570Y404236D01*
X520236Y407457D01*
X520236Y410943D01*
X521570Y414164D01*
X524036Y416630D01*
X527257Y417964D01*
X530743Y417964D01*
X533964Y416630D01*
X536430Y414164D01*
X537764Y410943D01*
X537764Y407457D01*
X536430Y404236D01*
X533964Y401770D01*
X530743Y400436D01*
X527257Y400436D01*
G37*
%LPD*%
%LPC*%
G36*
X501857Y400436D02*
X501857Y400436D01*
X498636Y401770D01*
X496170Y404236D01*
X494836Y407457D01*
X494836Y410943D01*
X496170Y414164D01*
X498636Y416630D01*
X501857Y417964D01*
X505343Y417964D01*
X508564Y416630D01*
X511030Y414164D01*
X512364Y410943D01*
X512364Y407457D01*
X511030Y404236D01*
X508564Y401770D01*
X505343Y400436D01*
X501857Y400436D01*
G37*
%LPD*%
%LPC*%
G36*
X476457Y400436D02*
X476457Y400436D01*
X473236Y401770D01*
X470770Y404236D01*
X469436Y407457D01*
X469436Y410943D01*
X470770Y414164D01*
X473236Y416630D01*
X476457Y417964D01*
X479943Y417964D01*
X483164Y416630D01*
X485630Y414164D01*
X486964Y410943D01*
X486964Y407457D01*
X485630Y404236D01*
X483164Y401770D01*
X479943Y400436D01*
X476457Y400436D01*
G37*
%LPD*%
%LPC*%
G36*
X451057Y400436D02*
X451057Y400436D01*
X447836Y401770D01*
X445370Y404236D01*
X444036Y407457D01*
X444036Y410943D01*
X445370Y414164D01*
X447836Y416630D01*
X451057Y417964D01*
X454543Y417964D01*
X457764Y416630D01*
X460230Y414164D01*
X461564Y410943D01*
X461564Y407457D01*
X460230Y404236D01*
X457764Y401770D01*
X454543Y400436D01*
X451057Y400436D01*
G37*
%LPD*%
%LPC*%
G36*
X425657Y400436D02*
X425657Y400436D01*
X422436Y401770D01*
X419970Y404236D01*
X418636Y407457D01*
X418636Y410943D01*
X419970Y414164D01*
X422436Y416630D01*
X425657Y417964D01*
X429143Y417964D01*
X432364Y416630D01*
X434830Y414164D01*
X436164Y410943D01*
X436164Y407457D01*
X434830Y404236D01*
X432364Y401770D01*
X429143Y400436D01*
X425657Y400436D01*
G37*
%LPD*%
%LPC*%
G36*
X400257Y400436D02*
X400257Y400436D01*
X397036Y401770D01*
X394570Y404236D01*
X393236Y407457D01*
X393236Y410943D01*
X394570Y414164D01*
X397036Y416630D01*
X400257Y417964D01*
X403743Y417964D01*
X406964Y416630D01*
X409430Y414164D01*
X410764Y410943D01*
X410764Y407457D01*
X409430Y404236D01*
X406964Y401770D01*
X403743Y400436D01*
X400257Y400436D01*
G37*
%LPD*%
%LPC*%
G36*
X374857Y400436D02*
X374857Y400436D01*
X371636Y401770D01*
X369170Y404236D01*
X367836Y407457D01*
X367836Y410943D01*
X369170Y414164D01*
X371636Y416630D01*
X374857Y417964D01*
X378343Y417964D01*
X381564Y416630D01*
X384030Y414164D01*
X385364Y410943D01*
X385364Y407457D01*
X384030Y404236D01*
X381564Y401770D01*
X378343Y400436D01*
X374857Y400436D01*
G37*
%LPD*%
%LPC*%
G36*
X324057Y400436D02*
X324057Y400436D01*
X320836Y401770D01*
X318370Y404236D01*
X317036Y407457D01*
X317036Y410943D01*
X318370Y414164D01*
X320836Y416630D01*
X324057Y417964D01*
X327543Y417964D01*
X330764Y416630D01*
X333230Y414164D01*
X334564Y410943D01*
X334564Y407457D01*
X333230Y404236D01*
X330764Y401770D01*
X327543Y400436D01*
X324057Y400436D01*
G37*
%LPD*%
%LPC*%
G36*
X298657Y400436D02*
X298657Y400436D01*
X295436Y401770D01*
X292970Y404236D01*
X291636Y407457D01*
X291636Y410943D01*
X292970Y414164D01*
X295436Y416630D01*
X298657Y417964D01*
X302143Y417964D01*
X305364Y416630D01*
X307830Y414164D01*
X309164Y410943D01*
X309164Y407457D01*
X307830Y404236D01*
X305364Y401770D01*
X302143Y400436D01*
X298657Y400436D01*
G37*
%LPD*%
%LPC*%
G36*
X247857Y400436D02*
X247857Y400436D01*
X244636Y401770D01*
X242170Y404236D01*
X240836Y407457D01*
X240836Y410943D01*
X242170Y414164D01*
X244636Y416630D01*
X247857Y417964D01*
X251343Y417964D01*
X254564Y416630D01*
X257030Y414164D01*
X258364Y410943D01*
X258364Y407457D01*
X257030Y404236D01*
X254564Y401770D01*
X251343Y400436D01*
X247857Y400436D01*
G37*
%LPD*%
%LPC*%
G36*
X222457Y400436D02*
X222457Y400436D01*
X219236Y401770D01*
X216770Y404236D01*
X215436Y407457D01*
X215436Y410943D01*
X216770Y414164D01*
X219236Y416630D01*
X222457Y417964D01*
X225943Y417964D01*
X229164Y416630D01*
X231630Y414164D01*
X232964Y410943D01*
X232964Y407457D01*
X231630Y404236D01*
X229164Y401770D01*
X225943Y400436D01*
X222457Y400436D01*
G37*
%LPD*%
%LPC*%
G36*
X197057Y400436D02*
X197057Y400436D01*
X193836Y401770D01*
X191370Y404236D01*
X190036Y407457D01*
X190036Y410943D01*
X191370Y414164D01*
X193836Y416630D01*
X197057Y417964D01*
X200543Y417964D01*
X203764Y416630D01*
X206230Y414164D01*
X207564Y410943D01*
X207564Y407457D01*
X206230Y404236D01*
X203764Y401770D01*
X200543Y400436D01*
X197057Y400436D01*
G37*
%LPD*%
%LPC*%
G36*
X171657Y400436D02*
X171657Y400436D01*
X168436Y401770D01*
X165970Y404236D01*
X164636Y407457D01*
X164636Y410943D01*
X165970Y414164D01*
X168436Y416630D01*
X171657Y417964D01*
X175143Y417964D01*
X178364Y416630D01*
X180830Y414164D01*
X182164Y410943D01*
X182164Y407457D01*
X180830Y404236D01*
X178364Y401770D01*
X175143Y400436D01*
X171657Y400436D01*
G37*
%LPD*%
%LPC*%
G36*
X146257Y400436D02*
X146257Y400436D01*
X143036Y401770D01*
X140570Y404236D01*
X139236Y407457D01*
X139236Y410943D01*
X140570Y414164D01*
X143036Y416630D01*
X146257Y417964D01*
X149743Y417964D01*
X152964Y416630D01*
X155430Y414164D01*
X156764Y410943D01*
X156764Y407457D01*
X155430Y404236D01*
X152964Y401770D01*
X149743Y400436D01*
X146257Y400436D01*
G37*
%LPD*%
%LPC*%
G36*
X120857Y400436D02*
X120857Y400436D01*
X117636Y401770D01*
X115170Y404236D01*
X113836Y407457D01*
X113836Y410943D01*
X115170Y414164D01*
X117636Y416630D01*
X120857Y417964D01*
X124343Y417964D01*
X127564Y416630D01*
X130030Y414164D01*
X131364Y410943D01*
X131364Y407457D01*
X130030Y404236D01*
X127564Y401770D01*
X124343Y400436D01*
X120857Y400436D01*
G37*
%LPD*%
%LPC*%
G36*
X95457Y400436D02*
X95457Y400436D01*
X92236Y401770D01*
X89770Y404236D01*
X88436Y407457D01*
X88436Y410943D01*
X89770Y414164D01*
X92236Y416630D01*
X95457Y417964D01*
X98943Y417964D01*
X102164Y416630D01*
X104630Y414164D01*
X105964Y410943D01*
X105964Y407457D01*
X104630Y404236D01*
X102164Y401770D01*
X98943Y400436D01*
X95457Y400436D01*
G37*
%LPD*%
%LPC*%
G36*
X197057Y146436D02*
X197057Y146436D01*
X193836Y147770D01*
X191370Y150236D01*
X190036Y153457D01*
X190036Y156943D01*
X191370Y160164D01*
X193836Y162630D01*
X197057Y163964D01*
X200543Y163964D01*
X203764Y162630D01*
X206230Y160164D01*
X207564Y156943D01*
X207564Y153457D01*
X206230Y150236D01*
X203764Y147770D01*
X200543Y146436D01*
X197057Y146436D01*
G37*
%LPD*%
%LPC*%
G36*
X222457Y146436D02*
X222457Y146436D01*
X219236Y147770D01*
X216770Y150236D01*
X215436Y153457D01*
X215436Y156943D01*
X216770Y160164D01*
X219236Y162630D01*
X222457Y163964D01*
X225943Y163964D01*
X229164Y162630D01*
X231630Y160164D01*
X232964Y156943D01*
X232964Y153457D01*
X231630Y150236D01*
X229164Y147770D01*
X225943Y146436D01*
X222457Y146436D01*
G37*
%LPD*%
%LPC*%
G36*
X527257Y425836D02*
X527257Y425836D01*
X524036Y427170D01*
X521570Y429636D01*
X520236Y432857D01*
X520236Y436343D01*
X521570Y439564D01*
X524036Y442030D01*
X527257Y443364D01*
X530743Y443364D01*
X533964Y442030D01*
X536430Y439564D01*
X537764Y436343D01*
X537764Y432857D01*
X536430Y429636D01*
X533964Y427170D01*
X530743Y425836D01*
X527257Y425836D01*
G37*
%LPD*%
%LPC*%
G36*
X501857Y425836D02*
X501857Y425836D01*
X498636Y427170D01*
X496170Y429636D01*
X494836Y432857D01*
X494836Y436343D01*
X496170Y439564D01*
X498636Y442030D01*
X501857Y443364D01*
X505343Y443364D01*
X508564Y442030D01*
X511030Y439564D01*
X512364Y436343D01*
X512364Y432857D01*
X511030Y429636D01*
X508564Y427170D01*
X505343Y425836D01*
X501857Y425836D01*
G37*
%LPD*%
%LPC*%
G36*
X722157Y397636D02*
X722157Y397636D01*
X718936Y398970D01*
X716470Y401436D01*
X715136Y404657D01*
X715136Y408143D01*
X716470Y411364D01*
X718936Y413830D01*
X722157Y415164D01*
X725643Y415164D01*
X728864Y413830D01*
X731330Y411364D01*
X732664Y408143D01*
X732664Y404657D01*
X731330Y401436D01*
X728864Y398970D01*
X725643Y397636D01*
X722157Y397636D01*
G37*
%LPD*%
%LPC*%
G36*
X247857Y146436D02*
X247857Y146436D01*
X244636Y147770D01*
X242170Y150236D01*
X240836Y153457D01*
X240836Y156943D01*
X242170Y160164D01*
X244636Y162630D01*
X247857Y163964D01*
X251343Y163964D01*
X254564Y162630D01*
X257030Y160164D01*
X258364Y156943D01*
X258364Y153457D01*
X257030Y150236D01*
X254564Y147770D01*
X251343Y146436D01*
X247857Y146436D01*
G37*
%LPD*%
%LPC*%
G36*
X273257Y146436D02*
X273257Y146436D01*
X270036Y147770D01*
X267570Y150236D01*
X266236Y153457D01*
X266236Y156943D01*
X267570Y160164D01*
X270036Y162630D01*
X273257Y163964D01*
X276743Y163964D01*
X279964Y162630D01*
X282430Y160164D01*
X283764Y156943D01*
X283764Y153457D01*
X282430Y150236D01*
X279964Y147770D01*
X276743Y146436D01*
X273257Y146436D01*
G37*
%LPD*%
%LPC*%
G36*
X298657Y146436D02*
X298657Y146436D01*
X295436Y147770D01*
X292970Y150236D01*
X291636Y153457D01*
X291636Y156943D01*
X292970Y160164D01*
X295436Y162630D01*
X298657Y163964D01*
X302143Y163964D01*
X305364Y162630D01*
X307830Y160164D01*
X309164Y156943D01*
X309164Y153457D01*
X307830Y150236D01*
X305364Y147770D01*
X302143Y146436D01*
X298657Y146436D01*
G37*
%LPD*%
%LPC*%
G36*
X324057Y146436D02*
X324057Y146436D01*
X320836Y147770D01*
X318370Y150236D01*
X317036Y153457D01*
X317036Y156943D01*
X318370Y160164D01*
X320836Y162630D01*
X324057Y163964D01*
X327543Y163964D01*
X330764Y162630D01*
X333230Y160164D01*
X334564Y156943D01*
X334564Y153457D01*
X333230Y150236D01*
X330764Y147770D01*
X327543Y146436D01*
X324057Y146436D01*
G37*
%LPD*%
%LPC*%
G36*
X722157Y372236D02*
X722157Y372236D01*
X718936Y373570D01*
X716470Y376036D01*
X715136Y379257D01*
X715136Y382743D01*
X716470Y385964D01*
X718936Y388430D01*
X722157Y389764D01*
X725643Y389764D01*
X728864Y388430D01*
X731330Y385964D01*
X732664Y382743D01*
X732664Y379257D01*
X731330Y376036D01*
X728864Y373570D01*
X725643Y372236D01*
X722157Y372236D01*
G37*
%LPD*%
%LPC*%
G36*
X349457Y146436D02*
X349457Y146436D01*
X346236Y147770D01*
X343770Y150236D01*
X342436Y153457D01*
X342436Y156943D01*
X343770Y160164D01*
X346236Y162630D01*
X349457Y163964D01*
X352943Y163964D01*
X356164Y162630D01*
X358630Y160164D01*
X359964Y156943D01*
X359964Y153457D01*
X358630Y150236D01*
X356164Y147770D01*
X352943Y146436D01*
X349457Y146436D01*
G37*
%LPD*%
%LPC*%
G36*
X374857Y146436D02*
X374857Y146436D01*
X371636Y147770D01*
X369170Y150236D01*
X367836Y153457D01*
X367836Y156943D01*
X369170Y160164D01*
X371636Y162630D01*
X374857Y163964D01*
X378343Y163964D01*
X381564Y162630D01*
X384030Y160164D01*
X385364Y156943D01*
X385364Y153457D01*
X384030Y150236D01*
X381564Y147770D01*
X378343Y146436D01*
X374857Y146436D01*
G37*
%LPD*%
%LPC*%
G36*
X400257Y146436D02*
X400257Y146436D01*
X397036Y147770D01*
X394570Y150236D01*
X393236Y153457D01*
X393236Y156943D01*
X394570Y160164D01*
X397036Y162630D01*
X400257Y163964D01*
X403743Y163964D01*
X406964Y162630D01*
X409430Y160164D01*
X410764Y156943D01*
X410764Y153457D01*
X409430Y150236D01*
X406964Y147770D01*
X403743Y146436D01*
X400257Y146436D01*
G37*
%LPD*%
%LPC*%
G36*
X425657Y146436D02*
X425657Y146436D01*
X422436Y147770D01*
X419970Y150236D01*
X418636Y153457D01*
X418636Y156943D01*
X419970Y160164D01*
X422436Y162630D01*
X425657Y163964D01*
X429143Y163964D01*
X432364Y162630D01*
X434830Y160164D01*
X436164Y156943D01*
X436164Y153457D01*
X434830Y150236D01*
X432364Y147770D01*
X429143Y146436D01*
X425657Y146436D01*
G37*
%LPD*%
%LPC*%
G36*
X197057Y171836D02*
X197057Y171836D01*
X193836Y173170D01*
X191370Y175636D01*
X190036Y178857D01*
X190036Y182343D01*
X191370Y185564D01*
X193836Y188030D01*
X197057Y189364D01*
X200543Y189364D01*
X203764Y188030D01*
X206230Y185564D01*
X207564Y182343D01*
X207564Y178857D01*
X206230Y175636D01*
X203764Y173170D01*
X200543Y171836D01*
X197057Y171836D01*
G37*
%LPD*%
%LPC*%
G36*
X171657Y171836D02*
X171657Y171836D01*
X168436Y173170D01*
X165970Y175636D01*
X164636Y178857D01*
X164636Y182343D01*
X165970Y185564D01*
X168436Y188030D01*
X171657Y189364D01*
X175143Y189364D01*
X178364Y188030D01*
X180830Y185564D01*
X182164Y182343D01*
X182164Y178857D01*
X180830Y175636D01*
X178364Y173170D01*
X175143Y171836D01*
X171657Y171836D01*
G37*
%LPD*%
%LPC*%
G36*
X527257Y171836D02*
X527257Y171836D01*
X524036Y173170D01*
X521570Y175636D01*
X520236Y178857D01*
X520236Y182343D01*
X521570Y185564D01*
X524036Y188030D01*
X527257Y189364D01*
X530743Y189364D01*
X533964Y188030D01*
X536430Y185564D01*
X537764Y182343D01*
X537764Y178857D01*
X536430Y175636D01*
X533964Y173170D01*
X530743Y171836D01*
X527257Y171836D01*
G37*
%LPD*%
%LPC*%
G36*
X501857Y171836D02*
X501857Y171836D01*
X498636Y173170D01*
X496170Y175636D01*
X494836Y178857D01*
X494836Y182343D01*
X496170Y185564D01*
X498636Y188030D01*
X501857Y189364D01*
X505343Y189364D01*
X508564Y188030D01*
X511030Y185564D01*
X512364Y182343D01*
X512364Y178857D01*
X511030Y175636D01*
X508564Y173170D01*
X505343Y171836D01*
X501857Y171836D01*
G37*
%LPD*%
%LPC*%
G36*
X476457Y171836D02*
X476457Y171836D01*
X473236Y173170D01*
X470770Y175636D01*
X469436Y178857D01*
X469436Y182343D01*
X470770Y185564D01*
X473236Y188030D01*
X476457Y189364D01*
X479943Y189364D01*
X483164Y188030D01*
X485630Y185564D01*
X486964Y182343D01*
X486964Y178857D01*
X485630Y175636D01*
X483164Y173170D01*
X479943Y171836D01*
X476457Y171836D01*
G37*
%LPD*%
%LPC*%
G36*
X451057Y171836D02*
X451057Y171836D01*
X447836Y173170D01*
X445370Y175636D01*
X444036Y178857D01*
X444036Y182343D01*
X445370Y185564D01*
X447836Y188030D01*
X451057Y189364D01*
X454543Y189364D01*
X457764Y188030D01*
X460230Y185564D01*
X461564Y182343D01*
X461564Y178857D01*
X460230Y175636D01*
X457764Y173170D01*
X454543Y171836D01*
X451057Y171836D01*
G37*
%LPD*%
%LPC*%
G36*
X425657Y171836D02*
X425657Y171836D01*
X422436Y173170D01*
X419970Y175636D01*
X418636Y178857D01*
X418636Y182343D01*
X419970Y185564D01*
X422436Y188030D01*
X425657Y189364D01*
X429143Y189364D01*
X432364Y188030D01*
X434830Y185564D01*
X436164Y182343D01*
X436164Y178857D01*
X434830Y175636D01*
X432364Y173170D01*
X429143Y171836D01*
X425657Y171836D01*
G37*
%LPD*%
%LPC*%
G36*
X400257Y171836D02*
X400257Y171836D01*
X397036Y173170D01*
X394570Y175636D01*
X393236Y178857D01*
X393236Y182343D01*
X394570Y185564D01*
X397036Y188030D01*
X400257Y189364D01*
X403743Y189364D01*
X406964Y188030D01*
X409430Y185564D01*
X410764Y182343D01*
X410764Y178857D01*
X409430Y175636D01*
X406964Y173170D01*
X403743Y171836D01*
X400257Y171836D01*
G37*
%LPD*%
%LPC*%
G36*
X374857Y171836D02*
X374857Y171836D01*
X371636Y173170D01*
X369170Y175636D01*
X367836Y178857D01*
X367836Y182343D01*
X369170Y185564D01*
X371636Y188030D01*
X374857Y189364D01*
X378343Y189364D01*
X381564Y188030D01*
X384030Y185564D01*
X385364Y182343D01*
X385364Y178857D01*
X384030Y175636D01*
X381564Y173170D01*
X378343Y171836D01*
X374857Y171836D01*
G37*
%LPD*%
%LPC*%
G36*
X324057Y171836D02*
X324057Y171836D01*
X320836Y173170D01*
X318370Y175636D01*
X317036Y178857D01*
X317036Y182343D01*
X318370Y185564D01*
X320836Y188030D01*
X324057Y189364D01*
X327543Y189364D01*
X330764Y188030D01*
X333230Y185564D01*
X334564Y182343D01*
X334564Y178857D01*
X333230Y175636D01*
X330764Y173170D01*
X327543Y171836D01*
X324057Y171836D01*
G37*
%LPD*%
%LPC*%
G36*
X298657Y171836D02*
X298657Y171836D01*
X295436Y173170D01*
X292970Y175636D01*
X291636Y178857D01*
X291636Y182343D01*
X292970Y185564D01*
X295436Y188030D01*
X298657Y189364D01*
X302143Y189364D01*
X305364Y188030D01*
X307830Y185564D01*
X309164Y182343D01*
X309164Y178857D01*
X307830Y175636D01*
X305364Y173170D01*
X302143Y171836D01*
X298657Y171836D01*
G37*
%LPD*%
%LPC*%
G36*
X247857Y171836D02*
X247857Y171836D01*
X244636Y173170D01*
X242170Y175636D01*
X240836Y178857D01*
X240836Y182343D01*
X242170Y185564D01*
X244636Y188030D01*
X247857Y189364D01*
X251343Y189364D01*
X254564Y188030D01*
X257030Y185564D01*
X258364Y182343D01*
X258364Y178857D01*
X257030Y175636D01*
X254564Y173170D01*
X251343Y171836D01*
X247857Y171836D01*
G37*
%LPD*%
%LPC*%
G36*
X222457Y171836D02*
X222457Y171836D01*
X219236Y173170D01*
X216770Y175636D01*
X215436Y178857D01*
X215436Y182343D01*
X216770Y185564D01*
X219236Y188030D01*
X222457Y189364D01*
X225943Y189364D01*
X229164Y188030D01*
X231630Y185564D01*
X232964Y182343D01*
X232964Y178857D01*
X231630Y175636D01*
X229164Y173170D01*
X225943Y171836D01*
X222457Y171836D01*
G37*
%LPD*%
%LPC*%
G36*
X146257Y171836D02*
X146257Y171836D01*
X143036Y173170D01*
X140570Y175636D01*
X139236Y178857D01*
X139236Y182343D01*
X140570Y185564D01*
X143036Y188030D01*
X146257Y189364D01*
X149743Y189364D01*
X152964Y188030D01*
X155430Y185564D01*
X156764Y182343D01*
X156764Y178857D01*
X155430Y175636D01*
X152964Y173170D01*
X149743Y171836D01*
X146257Y171836D01*
G37*
%LPD*%
%LPC*%
G36*
X120857Y171836D02*
X120857Y171836D01*
X117636Y173170D01*
X115170Y175636D01*
X113836Y178857D01*
X113836Y182343D01*
X115170Y185564D01*
X117636Y188030D01*
X120857Y189364D01*
X124343Y189364D01*
X127564Y188030D01*
X130030Y185564D01*
X131364Y182343D01*
X131364Y178857D01*
X130030Y175636D01*
X127564Y173170D01*
X124343Y171836D01*
X120857Y171836D01*
G37*
%LPD*%
%LPC*%
G36*
X95457Y171836D02*
X95457Y171836D01*
X92236Y173170D01*
X89770Y175636D01*
X88436Y178857D01*
X88436Y182343D01*
X89770Y185564D01*
X92236Y188030D01*
X95457Y189364D01*
X98943Y189364D01*
X102164Y188030D01*
X104630Y185564D01*
X105964Y182343D01*
X105964Y178857D01*
X104630Y175636D01*
X102164Y173170D01*
X98943Y171836D01*
X95457Y171836D01*
G37*
%LPD*%
%LPC*%
G36*
X451057Y146436D02*
X451057Y146436D01*
X447836Y147770D01*
X445370Y150236D01*
X444036Y153457D01*
X444036Y156943D01*
X445370Y160164D01*
X447836Y162630D01*
X451057Y163964D01*
X454543Y163964D01*
X457764Y162630D01*
X460230Y160164D01*
X461564Y156943D01*
X461564Y153457D01*
X460230Y150236D01*
X457764Y147770D01*
X454543Y146436D01*
X451057Y146436D01*
G37*
%LPD*%
%LPC*%
G36*
X476457Y146436D02*
X476457Y146436D01*
X473236Y147770D01*
X470770Y150236D01*
X469436Y153457D01*
X469436Y156943D01*
X470770Y160164D01*
X473236Y162630D01*
X476457Y163964D01*
X479943Y163964D01*
X483164Y162630D01*
X485630Y160164D01*
X486964Y156943D01*
X486964Y153457D01*
X485630Y150236D01*
X483164Y147770D01*
X479943Y146436D01*
X476457Y146436D01*
G37*
%LPD*%
%LPC*%
G36*
X501857Y146436D02*
X501857Y146436D01*
X498636Y147770D01*
X496170Y150236D01*
X494836Y153457D01*
X494836Y156943D01*
X496170Y160164D01*
X498636Y162630D01*
X501857Y163964D01*
X505343Y163964D01*
X508564Y162630D01*
X511030Y160164D01*
X512364Y156943D01*
X512364Y153457D01*
X511030Y150236D01*
X508564Y147770D01*
X505343Y146436D01*
X501857Y146436D01*
G37*
%LPD*%
%LPC*%
G36*
X527257Y146436D02*
X527257Y146436D01*
X524036Y147770D01*
X521570Y150236D01*
X520236Y153457D01*
X520236Y156943D01*
X521570Y160164D01*
X524036Y162630D01*
X527257Y163964D01*
X530743Y163964D01*
X533964Y162630D01*
X536430Y160164D01*
X537764Y156943D01*
X537764Y153457D01*
X536430Y150236D01*
X533964Y147770D01*
X530743Y146436D01*
X527257Y146436D01*
G37*
%LPD*%
%LPC*%
G36*
X476457Y425836D02*
X476457Y425836D01*
X473236Y427170D01*
X470770Y429636D01*
X469436Y432857D01*
X469436Y436343D01*
X470770Y439564D01*
X473236Y442030D01*
X476457Y443364D01*
X479943Y443364D01*
X483164Y442030D01*
X485630Y439564D01*
X486964Y436343D01*
X486964Y432857D01*
X485630Y429636D01*
X483164Y427170D01*
X479943Y425836D01*
X476457Y425836D01*
G37*
%LPD*%
%LPC*%
G36*
X451057Y425836D02*
X451057Y425836D01*
X447836Y427170D01*
X445370Y429636D01*
X444036Y432857D01*
X444036Y436343D01*
X445370Y439564D01*
X447836Y442030D01*
X451057Y443364D01*
X454543Y443364D01*
X457764Y442030D01*
X460230Y439564D01*
X461564Y436343D01*
X461564Y432857D01*
X460230Y429636D01*
X457764Y427170D01*
X454543Y425836D01*
X451057Y425836D01*
G37*
%LPD*%
%LPC*%
G36*
X425657Y425836D02*
X425657Y425836D01*
X422436Y427170D01*
X419970Y429636D01*
X418636Y432857D01*
X418636Y436343D01*
X419970Y439564D01*
X422436Y442030D01*
X425657Y443364D01*
X429143Y443364D01*
X432364Y442030D01*
X434830Y439564D01*
X436164Y436343D01*
X436164Y432857D01*
X434830Y429636D01*
X432364Y427170D01*
X429143Y425836D01*
X425657Y425836D01*
G37*
%LPD*%
%LPC*%
G36*
X400257Y425836D02*
X400257Y425836D01*
X397036Y427170D01*
X394570Y429636D01*
X393236Y432857D01*
X393236Y436343D01*
X394570Y439564D01*
X397036Y442030D01*
X400257Y443364D01*
X403743Y443364D01*
X406964Y442030D01*
X409430Y439564D01*
X410764Y436343D01*
X410764Y432857D01*
X409430Y429636D01*
X406964Y427170D01*
X403743Y425836D01*
X400257Y425836D01*
G37*
%LPD*%
%LPC*%
G36*
X146257Y146436D02*
X146257Y146436D01*
X143036Y147770D01*
X140570Y150236D01*
X139236Y153457D01*
X139236Y156943D01*
X140570Y160164D01*
X143036Y162630D01*
X146257Y163964D01*
X149743Y163964D01*
X152964Y162630D01*
X155430Y160164D01*
X156764Y156943D01*
X156764Y153457D01*
X155430Y150236D01*
X152964Y147770D01*
X149743Y146436D01*
X146257Y146436D01*
G37*
%LPD*%
%LPC*%
G36*
X120857Y146436D02*
X120857Y146436D01*
X117636Y147770D01*
X115170Y150236D01*
X113836Y153457D01*
X113836Y156943D01*
X115170Y160164D01*
X117636Y162630D01*
X120857Y163964D01*
X124343Y163964D01*
X127564Y162630D01*
X130030Y160164D01*
X131364Y156943D01*
X131364Y153457D01*
X130030Y150236D01*
X127564Y147770D01*
X124343Y146436D01*
X120857Y146436D01*
G37*
%LPD*%
%LPC*%
G36*
X511539Y53739D02*
X511539Y53739D01*
X511539Y63292D01*
X511890Y63237D01*
X513737Y62637D01*
X515468Y61755D01*
X517039Y60613D01*
X518413Y59239D01*
X519555Y57668D01*
X520437Y55937D01*
X521037Y54090D01*
X521092Y53739D01*
X511539Y53739D01*
G37*
%LPD*%
%LPC*%
G36*
X420639Y53739D02*
X420639Y53739D01*
X420639Y63292D01*
X420990Y63237D01*
X422837Y62637D01*
X424568Y61755D01*
X426139Y60613D01*
X427513Y59239D01*
X428655Y57668D01*
X429537Y55937D01*
X430137Y54090D01*
X430192Y53739D01*
X420639Y53739D01*
G37*
%LPD*%
%LPC*%
G36*
X204739Y53739D02*
X204739Y53739D01*
X204739Y63292D01*
X205090Y63237D01*
X206937Y62637D01*
X208668Y61755D01*
X210239Y60613D01*
X211613Y59239D01*
X212755Y57668D01*
X213637Y55937D01*
X214237Y54090D01*
X214292Y53739D01*
X204739Y53739D01*
G37*
%LPD*%
%LPC*%
G36*
X295639Y53739D02*
X295639Y53739D01*
X295639Y63292D01*
X295990Y63237D01*
X297837Y62637D01*
X299568Y61755D01*
X301139Y60613D01*
X302513Y59239D01*
X303655Y57668D01*
X304537Y55937D01*
X305137Y54090D01*
X305192Y53739D01*
X295639Y53739D01*
G37*
%LPD*%
%LPC*%
G36*
X79739Y53739D02*
X79739Y53739D01*
X79739Y63292D01*
X80090Y63237D01*
X81937Y62637D01*
X83668Y61755D01*
X85239Y60613D01*
X86613Y59239D01*
X87755Y57668D01*
X88637Y55937D01*
X89237Y54090D01*
X89292Y53739D01*
X79739Y53739D01*
G37*
%LPD*%
%LPC*%
G36*
X636539Y53739D02*
X636539Y53739D01*
X636539Y63292D01*
X636890Y63237D01*
X638737Y62637D01*
X640468Y61755D01*
X642039Y60613D01*
X643413Y59239D01*
X644555Y57668D01*
X645437Y55937D01*
X646037Y54090D01*
X646092Y53739D01*
X636539Y53739D01*
G37*
%LPD*%
%LPC*%
G36*
X65108Y53739D02*
X65108Y53739D01*
X65163Y54090D01*
X65763Y55937D01*
X66645Y57668D01*
X67787Y59239D01*
X69161Y60613D01*
X70732Y61755D01*
X72463Y62637D01*
X74310Y63237D01*
X74661Y63292D01*
X74661Y53739D01*
X65108Y53739D01*
G37*
%LPD*%
%LPC*%
G36*
X190108Y53739D02*
X190108Y53739D01*
X190163Y54090D01*
X190763Y55937D01*
X191645Y57668D01*
X192787Y59239D01*
X194161Y60613D01*
X195732Y61755D01*
X197463Y62637D01*
X199310Y63237D01*
X199661Y63292D01*
X199661Y53739D01*
X190108Y53739D01*
G37*
%LPD*%
%LPC*%
G36*
X281008Y53739D02*
X281008Y53739D01*
X281063Y54090D01*
X281663Y55937D01*
X282545Y57668D01*
X283687Y59239D01*
X285061Y60613D01*
X286632Y61755D01*
X288363Y62637D01*
X290210Y63237D01*
X290561Y63292D01*
X290561Y53739D01*
X281008Y53739D01*
G37*
%LPD*%
%LPC*%
G36*
X406008Y53739D02*
X406008Y53739D01*
X406063Y54090D01*
X406663Y55937D01*
X407545Y57668D01*
X408687Y59239D01*
X410061Y60613D01*
X411632Y61755D01*
X413363Y62637D01*
X415210Y63237D01*
X415561Y63292D01*
X415561Y53739D01*
X406008Y53739D01*
G37*
%LPD*%
%LPC*%
G36*
X496908Y53739D02*
X496908Y53739D01*
X496963Y54090D01*
X497563Y55937D01*
X498445Y57668D01*
X499587Y59239D01*
X500961Y60613D01*
X502532Y61755D01*
X504263Y62637D01*
X506110Y63237D01*
X506461Y63292D01*
X506461Y53739D01*
X496908Y53739D01*
G37*
%LPD*%
%LPC*%
G36*
X621908Y53739D02*
X621908Y53739D01*
X621963Y54090D01*
X622563Y55937D01*
X623445Y57668D01*
X624587Y59239D01*
X625961Y60613D01*
X627532Y61755D01*
X629263Y62637D01*
X631110Y63237D01*
X631461Y63292D01*
X631461Y53739D01*
X621908Y53739D01*
G37*
%LPD*%
%LPC*%
G36*
X636539Y48661D02*
X636539Y48661D01*
X646092Y48661D01*
X646037Y48310D01*
X645437Y46463D01*
X644555Y44732D01*
X643413Y43161D01*
X642039Y41787D01*
X640468Y40645D01*
X638737Y39763D01*
X636890Y39163D01*
X636539Y39108D01*
X636539Y48661D01*
G37*
%LPD*%
%LPC*%
G36*
X511539Y48661D02*
X511539Y48661D01*
X521092Y48661D01*
X521037Y48310D01*
X520437Y46463D01*
X519555Y44732D01*
X518413Y43161D01*
X517039Y41787D01*
X515468Y40645D01*
X513737Y39763D01*
X511890Y39163D01*
X511539Y39108D01*
X511539Y48661D01*
G37*
%LPD*%
%LPC*%
G36*
X420639Y48661D02*
X420639Y48661D01*
X430192Y48661D01*
X430137Y48310D01*
X429537Y46463D01*
X428655Y44732D01*
X427513Y43161D01*
X426139Y41787D01*
X424568Y40645D01*
X422837Y39763D01*
X420990Y39163D01*
X420639Y39108D01*
X420639Y48661D01*
G37*
%LPD*%
%LPC*%
G36*
X295639Y48661D02*
X295639Y48661D01*
X305192Y48661D01*
X305137Y48310D01*
X304537Y46463D01*
X303655Y44732D01*
X302513Y43161D01*
X301139Y41787D01*
X299568Y40645D01*
X297837Y39763D01*
X295990Y39163D01*
X295639Y39108D01*
X295639Y48661D01*
G37*
%LPD*%
%LPC*%
G36*
X204739Y48661D02*
X204739Y48661D01*
X214292Y48661D01*
X214237Y48310D01*
X213637Y46463D01*
X212755Y44732D01*
X211613Y43161D01*
X210239Y41787D01*
X208668Y40645D01*
X206937Y39763D01*
X205090Y39163D01*
X204739Y39108D01*
X204739Y48661D01*
G37*
%LPD*%
%LPC*%
G36*
X79739Y48661D02*
X79739Y48661D01*
X89292Y48661D01*
X89237Y48310D01*
X88637Y46463D01*
X87755Y44732D01*
X86613Y43161D01*
X85239Y41787D01*
X83668Y40645D01*
X81937Y39763D01*
X80090Y39163D01*
X79739Y39108D01*
X79739Y48661D01*
G37*
%LPD*%
%LPC*%
G36*
X74310Y39163D02*
X74310Y39163D01*
X72463Y39763D01*
X70732Y40645D01*
X69161Y41787D01*
X67787Y43161D01*
X66645Y44732D01*
X65763Y46463D01*
X65163Y48310D01*
X65108Y48661D01*
X74661Y48661D01*
X74661Y39108D01*
X74310Y39163D01*
G37*
%LPD*%
%LPC*%
G36*
X199310Y39163D02*
X199310Y39163D01*
X197463Y39763D01*
X195732Y40645D01*
X194161Y41787D01*
X192787Y43161D01*
X191645Y44732D01*
X190763Y46463D01*
X190163Y48310D01*
X190108Y48661D01*
X199661Y48661D01*
X199661Y39108D01*
X199310Y39163D01*
G37*
%LPD*%
%LPC*%
G36*
X631110Y39163D02*
X631110Y39163D01*
X629263Y39763D01*
X627532Y40645D01*
X625961Y41787D01*
X624587Y43161D01*
X623445Y44732D01*
X622563Y46463D01*
X621963Y48310D01*
X621908Y48661D01*
X631461Y48661D01*
X631461Y39108D01*
X631110Y39163D01*
G37*
%LPD*%
%LPC*%
G36*
X290210Y39163D02*
X290210Y39163D01*
X288363Y39763D01*
X286632Y40645D01*
X285061Y41787D01*
X283687Y43161D01*
X282545Y44732D01*
X281663Y46463D01*
X281063Y48310D01*
X281008Y48661D01*
X290561Y48661D01*
X290561Y39108D01*
X290210Y39163D01*
G37*
%LPD*%
%LPC*%
G36*
X415210Y39163D02*
X415210Y39163D01*
X413363Y39763D01*
X411632Y40645D01*
X410061Y41787D01*
X408687Y43161D01*
X407545Y44732D01*
X406663Y46463D01*
X406063Y48310D01*
X406008Y48661D01*
X415561Y48661D01*
X415561Y39108D01*
X415210Y39163D01*
G37*
%LPD*%
%LPC*%
G36*
X506110Y39163D02*
X506110Y39163D01*
X504263Y39763D01*
X502532Y40645D01*
X500961Y41787D01*
X499587Y43161D01*
X498445Y44732D01*
X497563Y46463D01*
X496963Y48310D01*
X496908Y48661D01*
X506461Y48661D01*
X506461Y39108D01*
X506110Y39163D01*
G37*
%LPD*%
%LPC*%
G36*
X353422Y411422D02*
X353422Y411422D01*
X353422Y417693D01*
X353756Y417627D01*
X355351Y416966D01*
X356787Y416007D01*
X358007Y414787D01*
X358966Y413351D01*
X359627Y411756D01*
X359693Y411422D01*
X353422Y411422D01*
G37*
%LPD*%
%LPC*%
G36*
X277222Y411422D02*
X277222Y411422D01*
X277222Y417693D01*
X277556Y417627D01*
X279151Y416966D01*
X280587Y416007D01*
X281807Y414787D01*
X282766Y413351D01*
X283427Y411756D01*
X283493Y411422D01*
X277222Y411422D01*
G37*
%LPD*%
%LPC*%
G36*
X726122Y357822D02*
X726122Y357822D01*
X726122Y364093D01*
X726456Y364027D01*
X728051Y363366D01*
X729487Y362407D01*
X730707Y361187D01*
X731666Y359751D01*
X732327Y358156D01*
X732393Y357822D01*
X726122Y357822D01*
G37*
%LPD*%
%LPC*%
G36*
X277222Y436822D02*
X277222Y436822D01*
X277222Y443093D01*
X277556Y443027D01*
X279151Y442366D01*
X280587Y441407D01*
X281807Y440187D01*
X282766Y438751D01*
X283427Y437156D01*
X283493Y436822D01*
X277222Y436822D01*
G37*
%LPD*%
%LPC*%
G36*
X353422Y182822D02*
X353422Y182822D01*
X353422Y189093D01*
X353756Y189027D01*
X355351Y188366D01*
X356787Y187407D01*
X358007Y186187D01*
X358966Y184751D01*
X359627Y183156D01*
X359693Y182822D01*
X353422Y182822D01*
G37*
%LPD*%
%LPC*%
G36*
X277222Y182822D02*
X277222Y182822D01*
X277222Y189093D01*
X277556Y189027D01*
X279151Y188366D01*
X280587Y187407D01*
X281807Y186187D01*
X282766Y184751D01*
X283427Y183156D01*
X283493Y182822D01*
X277222Y182822D01*
G37*
%LPD*%
%LPC*%
G36*
X266507Y411422D02*
X266507Y411422D01*
X266573Y411756D01*
X267234Y413351D01*
X268193Y414787D01*
X269413Y416007D01*
X270849Y416966D01*
X272444Y417627D01*
X272778Y417693D01*
X272778Y411422D01*
X266507Y411422D01*
G37*
%LPD*%
%LPC*%
G36*
X342707Y411422D02*
X342707Y411422D01*
X342773Y411756D01*
X343434Y413351D01*
X344393Y414787D01*
X345613Y416007D01*
X347049Y416966D01*
X348644Y417627D01*
X348978Y417693D01*
X348978Y411422D01*
X342707Y411422D01*
G37*
%LPD*%
%LPC*%
G36*
X342707Y182822D02*
X342707Y182822D01*
X342773Y183156D01*
X343434Y184751D01*
X344393Y186187D01*
X345613Y187407D01*
X347049Y188366D01*
X348644Y189027D01*
X348978Y189093D01*
X348978Y182822D01*
X342707Y182822D01*
G37*
%LPD*%
%LPC*%
G36*
X353422Y406978D02*
X353422Y406978D01*
X359693Y406978D01*
X359627Y406644D01*
X358966Y405049D01*
X358007Y403613D01*
X356787Y402393D01*
X355351Y401434D01*
X353756Y400773D01*
X353422Y400707D01*
X353422Y406978D01*
G37*
%LPD*%
%LPC*%
G36*
X277222Y406978D02*
X277222Y406978D01*
X283493Y406978D01*
X283427Y406644D01*
X282766Y405049D01*
X281807Y403613D01*
X280587Y402393D01*
X279151Y401434D01*
X277556Y400773D01*
X277222Y400707D01*
X277222Y406978D01*
G37*
%LPD*%
%LPC*%
G36*
X266507Y436822D02*
X266507Y436822D01*
X266573Y437156D01*
X267234Y438751D01*
X268193Y440187D01*
X269413Y441407D01*
X270849Y442366D01*
X272444Y443027D01*
X272778Y443093D01*
X272778Y436822D01*
X266507Y436822D01*
G37*
%LPD*%
%LPC*%
G36*
X353422Y178378D02*
X353422Y178378D01*
X359693Y178378D01*
X359627Y178044D01*
X358966Y176449D01*
X358007Y175013D01*
X356787Y173793D01*
X355351Y172834D01*
X353756Y172173D01*
X353422Y172107D01*
X353422Y178378D01*
G37*
%LPD*%
%LPC*%
G36*
X277222Y178378D02*
X277222Y178378D01*
X283493Y178378D01*
X283427Y178044D01*
X282766Y176449D01*
X281807Y175013D01*
X280587Y173793D01*
X279151Y172834D01*
X277556Y172173D01*
X277222Y172107D01*
X277222Y178378D01*
G37*
%LPD*%
%LPC*%
G36*
X277222Y432378D02*
X277222Y432378D01*
X283493Y432378D01*
X283427Y432044D01*
X282766Y430449D01*
X281807Y429013D01*
X280587Y427793D01*
X279151Y426834D01*
X277556Y426173D01*
X277222Y426107D01*
X277222Y432378D01*
G37*
%LPD*%
%LPC*%
G36*
X266507Y182822D02*
X266507Y182822D01*
X266573Y183156D01*
X267234Y184751D01*
X268193Y186187D01*
X269413Y187407D01*
X270849Y188366D01*
X272444Y189027D01*
X272778Y189093D01*
X272778Y182822D01*
X266507Y182822D01*
G37*
%LPD*%
%LPC*%
G36*
X726122Y353378D02*
X726122Y353378D01*
X732393Y353378D01*
X732327Y353044D01*
X731666Y351449D01*
X730707Y350013D01*
X729487Y348793D01*
X728051Y347834D01*
X726456Y347173D01*
X726122Y347107D01*
X726122Y353378D01*
G37*
%LPD*%
%LPC*%
G36*
X715407Y357822D02*
X715407Y357822D01*
X715473Y358156D01*
X716134Y359751D01*
X717093Y361187D01*
X718313Y362407D01*
X719749Y363366D01*
X721344Y364027D01*
X721678Y364093D01*
X721678Y357822D01*
X715407Y357822D01*
G37*
%LPD*%
%LPC*%
G36*
X272444Y400773D02*
X272444Y400773D01*
X270849Y401434D01*
X269413Y402393D01*
X268193Y403613D01*
X267234Y405049D01*
X266573Y406644D01*
X266507Y406978D01*
X272778Y406978D01*
X272778Y400707D01*
X272444Y400773D01*
G37*
%LPD*%
%LPC*%
G36*
X348644Y400773D02*
X348644Y400773D01*
X347049Y401434D01*
X345613Y402393D01*
X344393Y403613D01*
X343434Y405049D01*
X342773Y406644D01*
X342707Y406978D01*
X348978Y406978D01*
X348978Y400707D01*
X348644Y400773D01*
G37*
%LPD*%
%LPC*%
G36*
X721344Y347173D02*
X721344Y347173D01*
X719749Y347834D01*
X718313Y348793D01*
X717093Y350013D01*
X716134Y351449D01*
X715473Y353044D01*
X715407Y353378D01*
X721678Y353378D01*
X721678Y347107D01*
X721344Y347173D01*
G37*
%LPD*%
%LPC*%
G36*
X272444Y172173D02*
X272444Y172173D01*
X270849Y172834D01*
X269413Y173793D01*
X268193Y175013D01*
X267234Y176449D01*
X266573Y178044D01*
X266507Y178378D01*
X272778Y178378D01*
X272778Y172107D01*
X272444Y172173D01*
G37*
%LPD*%
%LPC*%
G36*
X272444Y426173D02*
X272444Y426173D01*
X270849Y426834D01*
X269413Y427793D01*
X268193Y429013D01*
X267234Y430449D01*
X266573Y432044D01*
X266507Y432378D01*
X272778Y432378D01*
X272778Y426107D01*
X272444Y426173D01*
G37*
%LPD*%
%LPC*%
G36*
X348644Y172173D02*
X348644Y172173D01*
X347049Y172834D01*
X345613Y173793D01*
X344393Y175013D01*
X343434Y176449D01*
X342773Y178044D01*
X342707Y178378D01*
X348978Y178378D01*
X348978Y172107D01*
X348644Y172173D01*
G37*
%LPD*%
%LPC*%
G36*
X633999Y51199D02*
X633999Y51199D01*
X633999Y51201D01*
X634001Y51201D01*
X634001Y51199D01*
X633999Y51199D01*
G37*
%LPD*%
%LPC*%
G36*
X418099Y51199D02*
X418099Y51199D01*
X418099Y51201D01*
X418101Y51201D01*
X418101Y51199D01*
X418099Y51199D01*
G37*
%LPD*%
%LPC*%
G36*
X293099Y51199D02*
X293099Y51199D01*
X293099Y51201D01*
X293101Y51201D01*
X293101Y51199D01*
X293099Y51199D01*
G37*
%LPD*%
%LPC*%
G36*
X202199Y51199D02*
X202199Y51199D01*
X202199Y51201D01*
X202201Y51201D01*
X202201Y51199D01*
X202199Y51199D01*
G37*
%LPD*%
%LPC*%
G36*
X77199Y51199D02*
X77199Y51199D01*
X77199Y51201D01*
X77201Y51201D01*
X77201Y51199D01*
X77199Y51199D01*
G37*
%LPD*%
%LPC*%
G36*
X508999Y51199D02*
X508999Y51199D01*
X508999Y51201D01*
X509001Y51201D01*
X509001Y51199D01*
X508999Y51199D01*
G37*
%LPD*%
D10*
X97200Y434600D03*
X97200Y409200D03*
X122600Y434600D03*
X122600Y409200D03*
X148000Y434600D03*
X148000Y409200D03*
X173400Y434600D03*
X173400Y409200D03*
X198800Y434600D03*
X198800Y409200D03*
X224200Y434600D03*
X224200Y409200D03*
X249600Y434600D03*
X249600Y409200D03*
X275000Y434600D03*
X275000Y409200D03*
X300400Y434600D03*
X300400Y409200D03*
X325800Y434600D03*
X325800Y409200D03*
X351200Y434600D03*
X351200Y409200D03*
X376600Y434600D03*
X376600Y409200D03*
X402000Y434600D03*
X402000Y409200D03*
X427400Y434600D03*
X427400Y409200D03*
X452800Y434600D03*
X452800Y409200D03*
X478200Y434600D03*
X478200Y409200D03*
X503600Y434600D03*
X503600Y409200D03*
X529000Y434600D03*
X529000Y409200D03*
X97200Y180600D03*
X97200Y155200D03*
X122600Y180600D03*
X122600Y155200D03*
X148000Y180600D03*
X148000Y155200D03*
X173400Y180600D03*
X173400Y155200D03*
X198800Y180600D03*
X198800Y155200D03*
X224200Y180600D03*
X224200Y155200D03*
X249600Y180600D03*
X249600Y155200D03*
X275000Y180600D03*
X275000Y155200D03*
X300400Y180600D03*
X300400Y155200D03*
X325800Y180600D03*
X325800Y155200D03*
X351200Y180600D03*
X351200Y155200D03*
X376600Y180600D03*
X376600Y155200D03*
X402000Y180600D03*
X402000Y155200D03*
X427400Y180600D03*
X427400Y155200D03*
X452800Y180600D03*
X452800Y155200D03*
X478200Y180600D03*
X478200Y155200D03*
X503600Y180600D03*
X503600Y155200D03*
X529000Y180600D03*
X529000Y155200D03*
X723900Y406400D03*
X723900Y381000D03*
X723900Y355600D03*
D11*
X202200Y101200D03*
X202200Y51200D03*
X77200Y51200D03*
X77200Y101200D03*
X418100Y101200D03*
X418100Y51200D03*
X293100Y51200D03*
X293100Y101200D03*
X634000Y101200D03*
X634000Y51200D03*
X509000Y51200D03*
X509000Y101200D03*
D12*
X38100Y38100D03*
X723900Y38100D03*
X723900Y469900D03*
X38100Y469900D03*
D13*
X63500Y76200D03*
X278130Y292100D03*
X234950Y299720D03*
X196850Y292100D03*
X158750Y292100D03*
X57150Y292100D03*
M02*
