G04 EAGLE Gerber RS-274X export*
G75*
%MOMM*%
%FSLAX34Y34*%
%LPD*%
%INCopper Layer 15*%
%IPPOS*%
%AMOC8*
5,1,8,0,0,1.08239X$1,22.5*%
G01*
%ADD10C,1.244600*%
%ADD11C,1.960000*%
%ADD12C,4.191000*%
%ADD13C,0.609600*%

G36*
X758109Y2556D02*
X758109Y2556D01*
X758228Y2563D01*
X758267Y2575D01*
X758307Y2581D01*
X758417Y2624D01*
X758531Y2661D01*
X758565Y2683D01*
X758603Y2698D01*
X758699Y2767D01*
X758799Y2831D01*
X758827Y2861D01*
X758860Y2884D01*
X758936Y2976D01*
X759017Y3062D01*
X759037Y3098D01*
X759063Y3129D01*
X759114Y3237D01*
X759171Y3341D01*
X759181Y3380D01*
X759198Y3417D01*
X759221Y3534D01*
X759250Y3649D01*
X759254Y3709D01*
X759258Y3729D01*
X759257Y3750D01*
X759261Y3809D01*
X759458Y504190D01*
X759443Y504308D01*
X759435Y504427D01*
X759423Y504465D01*
X759418Y504505D01*
X759374Y504616D01*
X759337Y504729D01*
X759316Y504763D01*
X759301Y504801D01*
X759231Y504897D01*
X759167Y504998D01*
X759138Y505026D01*
X759114Y505058D01*
X759023Y505134D01*
X758936Y505216D01*
X758900Y505236D01*
X758870Y505261D01*
X758762Y505312D01*
X758657Y505370D01*
X758618Y505380D01*
X758582Y505397D01*
X758465Y505419D01*
X758349Y505449D01*
X758290Y505453D01*
X758270Y505457D01*
X758249Y505455D01*
X758189Y505459D01*
X3810Y505459D01*
X3692Y505444D01*
X3573Y505437D01*
X3535Y505424D01*
X3494Y505419D01*
X3384Y505376D01*
X3271Y505339D01*
X3236Y505317D01*
X3199Y505302D01*
X3103Y505233D01*
X3002Y505169D01*
X2974Y505139D01*
X2941Y505116D01*
X2865Y505024D01*
X2784Y504937D01*
X2764Y504902D01*
X2739Y504871D01*
X2688Y504763D01*
X2630Y504659D01*
X2620Y504619D01*
X2603Y504583D01*
X2581Y504466D01*
X2551Y504351D01*
X2547Y504291D01*
X2543Y504271D01*
X2545Y504250D01*
X2541Y504190D01*
X2541Y3810D01*
X2556Y3692D01*
X2563Y3573D01*
X2576Y3535D01*
X2581Y3494D01*
X2624Y3384D01*
X2661Y3271D01*
X2683Y3236D01*
X2698Y3199D01*
X2767Y3103D01*
X2831Y3002D01*
X2861Y2974D01*
X2884Y2941D01*
X2976Y2865D01*
X3063Y2784D01*
X3098Y2764D01*
X3129Y2739D01*
X3237Y2688D01*
X3341Y2630D01*
X3381Y2620D01*
X3417Y2603D01*
X3534Y2581D01*
X3649Y2551D01*
X3709Y2547D01*
X3729Y2543D01*
X3750Y2545D01*
X3810Y2541D01*
X757992Y2541D01*
X758109Y2556D01*
G37*
%LPC*%
G36*
X719226Y446404D02*
X719226Y446404D01*
X710591Y449981D01*
X703981Y456591D01*
X700404Y465226D01*
X700404Y474574D01*
X703981Y483209D01*
X710591Y489819D01*
X719226Y493396D01*
X728574Y493396D01*
X737209Y489819D01*
X743819Y483209D01*
X747396Y474574D01*
X747396Y465226D01*
X743819Y456591D01*
X737209Y449981D01*
X728574Y446404D01*
X719226Y446404D01*
G37*
%LPD*%
%LPC*%
G36*
X33426Y446404D02*
X33426Y446404D01*
X24791Y449981D01*
X18181Y456591D01*
X14604Y465226D01*
X14604Y474574D01*
X18181Y483209D01*
X24791Y489819D01*
X33426Y493396D01*
X42774Y493396D01*
X51409Y489819D01*
X58019Y483209D01*
X61596Y474574D01*
X61596Y465226D01*
X58019Y456591D01*
X51409Y449981D01*
X42774Y446404D01*
X33426Y446404D01*
G37*
%LPD*%
%LPC*%
G36*
X719226Y14604D02*
X719226Y14604D01*
X710591Y18181D01*
X703981Y24791D01*
X700404Y33426D01*
X700404Y42774D01*
X703981Y51409D01*
X710591Y58019D01*
X719226Y61596D01*
X728574Y61596D01*
X737209Y58019D01*
X743819Y51409D01*
X747396Y42774D01*
X747396Y33426D01*
X743819Y24791D01*
X737209Y18181D01*
X728574Y14604D01*
X719226Y14604D01*
G37*
%LPD*%
%LPC*%
G36*
X33426Y14604D02*
X33426Y14604D01*
X24791Y18181D01*
X18181Y24791D01*
X14604Y33426D01*
X14604Y42774D01*
X18181Y51409D01*
X24791Y58019D01*
X33426Y61596D01*
X42774Y61596D01*
X51409Y58019D01*
X58019Y51409D01*
X61596Y42774D01*
X61596Y33426D01*
X58019Y24791D01*
X51409Y18181D01*
X42774Y14604D01*
X33426Y14604D01*
G37*
%LPD*%
%LPC*%
G36*
X199745Y38859D02*
X199745Y38859D01*
X195210Y40738D01*
X191738Y44210D01*
X189859Y48745D01*
X189859Y53655D01*
X191738Y58190D01*
X195210Y61662D01*
X199745Y63541D01*
X204655Y63541D01*
X209190Y61662D01*
X212662Y58190D01*
X214541Y53655D01*
X214541Y48745D01*
X212662Y44210D01*
X209190Y40738D01*
X204655Y38859D01*
X199745Y38859D01*
G37*
%LPD*%
%LPC*%
G36*
X290645Y38859D02*
X290645Y38859D01*
X286110Y40738D01*
X282638Y44210D01*
X280759Y48745D01*
X280759Y53655D01*
X282638Y58190D01*
X286110Y61662D01*
X290645Y63541D01*
X295555Y63541D01*
X300090Y61662D01*
X303562Y58190D01*
X305441Y53655D01*
X305441Y48745D01*
X303562Y44210D01*
X300090Y40738D01*
X295555Y38859D01*
X290645Y38859D01*
G37*
%LPD*%
%LPC*%
G36*
X415645Y38859D02*
X415645Y38859D01*
X411110Y40738D01*
X407638Y44210D01*
X405759Y48745D01*
X405759Y53655D01*
X407638Y58190D01*
X411110Y61662D01*
X415645Y63541D01*
X420555Y63541D01*
X425090Y61662D01*
X428562Y58190D01*
X430441Y53655D01*
X430441Y48745D01*
X428562Y44210D01*
X425090Y40738D01*
X420555Y38859D01*
X415645Y38859D01*
G37*
%LPD*%
%LPC*%
G36*
X506545Y38859D02*
X506545Y38859D01*
X502010Y40738D01*
X498538Y44210D01*
X496659Y48745D01*
X496659Y53655D01*
X498538Y58190D01*
X502010Y61662D01*
X506545Y63541D01*
X511455Y63541D01*
X515990Y61662D01*
X519462Y58190D01*
X521341Y53655D01*
X521341Y48745D01*
X519462Y44210D01*
X515990Y40738D01*
X511455Y38859D01*
X506545Y38859D01*
G37*
%LPD*%
%LPC*%
G36*
X74745Y38859D02*
X74745Y38859D01*
X70210Y40738D01*
X66738Y44210D01*
X64859Y48745D01*
X64859Y53655D01*
X66738Y58190D01*
X70210Y61662D01*
X74745Y63541D01*
X79655Y63541D01*
X84190Y61662D01*
X87662Y58190D01*
X89541Y53655D01*
X89541Y48745D01*
X87662Y44210D01*
X84190Y40738D01*
X79655Y38859D01*
X74745Y38859D01*
G37*
%LPD*%
%LPC*%
G36*
X74745Y88859D02*
X74745Y88859D01*
X70210Y90738D01*
X66738Y94210D01*
X64859Y98745D01*
X64859Y103655D01*
X66738Y108190D01*
X70210Y111662D01*
X74745Y113541D01*
X79655Y113541D01*
X84190Y111662D01*
X87662Y108190D01*
X89541Y103655D01*
X89541Y98745D01*
X87662Y94210D01*
X84190Y90738D01*
X79655Y88859D01*
X74745Y88859D01*
G37*
%LPD*%
%LPC*%
G36*
X199745Y88859D02*
X199745Y88859D01*
X195210Y90738D01*
X191738Y94210D01*
X189859Y98745D01*
X189859Y103655D01*
X191738Y108190D01*
X195210Y111662D01*
X199745Y113541D01*
X204655Y113541D01*
X209190Y111662D01*
X212662Y108190D01*
X214541Y103655D01*
X214541Y98745D01*
X212662Y94210D01*
X209190Y90738D01*
X204655Y88859D01*
X199745Y88859D01*
G37*
%LPD*%
%LPC*%
G36*
X290645Y88859D02*
X290645Y88859D01*
X286110Y90738D01*
X282638Y94210D01*
X280759Y98745D01*
X280759Y103655D01*
X282638Y108190D01*
X286110Y111662D01*
X290645Y113541D01*
X295555Y113541D01*
X300090Y111662D01*
X303562Y108190D01*
X305441Y103655D01*
X305441Y98745D01*
X303562Y94210D01*
X300090Y90738D01*
X295555Y88859D01*
X290645Y88859D01*
G37*
%LPD*%
%LPC*%
G36*
X415645Y88859D02*
X415645Y88859D01*
X411110Y90738D01*
X407638Y94210D01*
X405759Y98745D01*
X405759Y103655D01*
X407638Y108190D01*
X411110Y111662D01*
X415645Y113541D01*
X420555Y113541D01*
X425090Y111662D01*
X428562Y108190D01*
X430441Y103655D01*
X430441Y98745D01*
X428562Y94210D01*
X425090Y90738D01*
X420555Y88859D01*
X415645Y88859D01*
G37*
%LPD*%
%LPC*%
G36*
X506545Y88859D02*
X506545Y88859D01*
X502010Y90738D01*
X498538Y94210D01*
X496659Y98745D01*
X496659Y103655D01*
X498538Y108190D01*
X502010Y111662D01*
X506545Y113541D01*
X511455Y113541D01*
X515990Y111662D01*
X519462Y108190D01*
X521341Y103655D01*
X521341Y98745D01*
X519462Y94210D01*
X515990Y90738D01*
X511455Y88859D01*
X506545Y88859D01*
G37*
%LPD*%
%LPC*%
G36*
X631545Y88859D02*
X631545Y88859D01*
X627010Y90738D01*
X623538Y94210D01*
X621659Y98745D01*
X621659Y103655D01*
X623538Y108190D01*
X627010Y111662D01*
X631545Y113541D01*
X636455Y113541D01*
X640990Y111662D01*
X644462Y108190D01*
X646341Y103655D01*
X646341Y98745D01*
X644462Y94210D01*
X640990Y90738D01*
X636455Y88859D01*
X631545Y88859D01*
G37*
%LPD*%
%LPC*%
G36*
X631545Y38859D02*
X631545Y38859D01*
X627010Y40738D01*
X623538Y44210D01*
X621659Y48745D01*
X621659Y53655D01*
X623538Y58190D01*
X627010Y61662D01*
X631545Y63541D01*
X636455Y63541D01*
X640990Y61662D01*
X644462Y58190D01*
X646341Y53655D01*
X646341Y48745D01*
X644462Y44210D01*
X640990Y40738D01*
X636455Y38859D01*
X631545Y38859D01*
G37*
%LPD*%
%LPC*%
G36*
X247857Y425836D02*
X247857Y425836D01*
X244636Y427170D01*
X242170Y429636D01*
X240836Y432857D01*
X240836Y436343D01*
X242170Y439564D01*
X244636Y442030D01*
X247857Y443364D01*
X251343Y443364D01*
X254564Y442030D01*
X257030Y439564D01*
X258364Y436343D01*
X258364Y432857D01*
X257030Y429636D01*
X254564Y427170D01*
X251343Y425836D01*
X247857Y425836D01*
G37*
%LPD*%
%LPC*%
G36*
X222457Y425836D02*
X222457Y425836D01*
X219236Y427170D01*
X216770Y429636D01*
X215436Y432857D01*
X215436Y436343D01*
X216770Y439564D01*
X219236Y442030D01*
X222457Y443364D01*
X225943Y443364D01*
X229164Y442030D01*
X231630Y439564D01*
X232964Y436343D01*
X232964Y432857D01*
X231630Y429636D01*
X229164Y427170D01*
X225943Y425836D01*
X222457Y425836D01*
G37*
%LPD*%
%LPC*%
G36*
X197057Y425836D02*
X197057Y425836D01*
X193836Y427170D01*
X191370Y429636D01*
X190036Y432857D01*
X190036Y436343D01*
X191370Y439564D01*
X193836Y442030D01*
X197057Y443364D01*
X200543Y443364D01*
X203764Y442030D01*
X206230Y439564D01*
X207564Y436343D01*
X207564Y432857D01*
X206230Y429636D01*
X203764Y427170D01*
X200543Y425836D01*
X197057Y425836D01*
G37*
%LPD*%
%LPC*%
G36*
X171657Y425836D02*
X171657Y425836D01*
X168436Y427170D01*
X165970Y429636D01*
X164636Y432857D01*
X164636Y436343D01*
X165970Y439564D01*
X168436Y442030D01*
X171657Y443364D01*
X175143Y443364D01*
X178364Y442030D01*
X180830Y439564D01*
X182164Y436343D01*
X182164Y432857D01*
X180830Y429636D01*
X178364Y427170D01*
X175143Y425836D01*
X171657Y425836D01*
G37*
%LPD*%
%LPC*%
G36*
X527257Y400436D02*
X527257Y400436D01*
X524036Y401770D01*
X521570Y404236D01*
X520236Y407457D01*
X520236Y410943D01*
X521570Y414164D01*
X524036Y416630D01*
X527257Y417964D01*
X530743Y417964D01*
X533964Y416630D01*
X536430Y414164D01*
X537764Y410943D01*
X537764Y407457D01*
X536430Y404236D01*
X533964Y401770D01*
X530743Y400436D01*
X527257Y400436D01*
G37*
%LPD*%
%LPC*%
G36*
X501857Y400436D02*
X501857Y400436D01*
X498636Y401770D01*
X496170Y404236D01*
X494836Y407457D01*
X494836Y410943D01*
X496170Y414164D01*
X498636Y416630D01*
X501857Y417964D01*
X505343Y417964D01*
X508564Y416630D01*
X511030Y414164D01*
X512364Y410943D01*
X512364Y407457D01*
X511030Y404236D01*
X508564Y401770D01*
X505343Y400436D01*
X501857Y400436D01*
G37*
%LPD*%
%LPC*%
G36*
X476457Y400436D02*
X476457Y400436D01*
X473236Y401770D01*
X470770Y404236D01*
X469436Y407457D01*
X469436Y410943D01*
X470770Y414164D01*
X473236Y416630D01*
X476457Y417964D01*
X479943Y417964D01*
X483164Y416630D01*
X485630Y414164D01*
X486964Y410943D01*
X486964Y407457D01*
X485630Y404236D01*
X483164Y401770D01*
X479943Y400436D01*
X476457Y400436D01*
G37*
%LPD*%
%LPC*%
G36*
X451057Y400436D02*
X451057Y400436D01*
X447836Y401770D01*
X445370Y404236D01*
X444036Y407457D01*
X444036Y410943D01*
X445370Y414164D01*
X447836Y416630D01*
X451057Y417964D01*
X454543Y417964D01*
X457764Y416630D01*
X460230Y414164D01*
X461564Y410943D01*
X461564Y407457D01*
X460230Y404236D01*
X457764Y401770D01*
X454543Y400436D01*
X451057Y400436D01*
G37*
%LPD*%
%LPC*%
G36*
X425657Y400436D02*
X425657Y400436D01*
X422436Y401770D01*
X419970Y404236D01*
X418636Y407457D01*
X418636Y410943D01*
X419970Y414164D01*
X422436Y416630D01*
X425657Y417964D01*
X429143Y417964D01*
X432364Y416630D01*
X434830Y414164D01*
X436164Y410943D01*
X436164Y407457D01*
X434830Y404236D01*
X432364Y401770D01*
X429143Y400436D01*
X425657Y400436D01*
G37*
%LPD*%
%LPC*%
G36*
X400257Y400436D02*
X400257Y400436D01*
X397036Y401770D01*
X394570Y404236D01*
X393236Y407457D01*
X393236Y410943D01*
X394570Y414164D01*
X397036Y416630D01*
X400257Y417964D01*
X403743Y417964D01*
X406964Y416630D01*
X409430Y414164D01*
X410764Y410943D01*
X410764Y407457D01*
X409430Y404236D01*
X406964Y401770D01*
X403743Y400436D01*
X400257Y400436D01*
G37*
%LPD*%
%LPC*%
G36*
X374857Y400436D02*
X374857Y400436D01*
X371636Y401770D01*
X369170Y404236D01*
X367836Y407457D01*
X367836Y410943D01*
X369170Y414164D01*
X371636Y416630D01*
X374857Y417964D01*
X378343Y417964D01*
X381564Y416630D01*
X384030Y414164D01*
X385364Y410943D01*
X385364Y407457D01*
X384030Y404236D01*
X381564Y401770D01*
X378343Y400436D01*
X374857Y400436D01*
G37*
%LPD*%
%LPC*%
G36*
X349457Y400436D02*
X349457Y400436D01*
X346236Y401770D01*
X343770Y404236D01*
X342436Y407457D01*
X342436Y410943D01*
X343770Y414164D01*
X346236Y416630D01*
X349457Y417964D01*
X352943Y417964D01*
X356164Y416630D01*
X358630Y414164D01*
X359964Y410943D01*
X359964Y407457D01*
X358630Y404236D01*
X356164Y401770D01*
X352943Y400436D01*
X349457Y400436D01*
G37*
%LPD*%
%LPC*%
G36*
X324057Y400436D02*
X324057Y400436D01*
X320836Y401770D01*
X318370Y404236D01*
X317036Y407457D01*
X317036Y410943D01*
X318370Y414164D01*
X320836Y416630D01*
X324057Y417964D01*
X327543Y417964D01*
X330764Y416630D01*
X333230Y414164D01*
X334564Y410943D01*
X334564Y407457D01*
X333230Y404236D01*
X330764Y401770D01*
X327543Y400436D01*
X324057Y400436D01*
G37*
%LPD*%
%LPC*%
G36*
X298657Y400436D02*
X298657Y400436D01*
X295436Y401770D01*
X292970Y404236D01*
X291636Y407457D01*
X291636Y410943D01*
X292970Y414164D01*
X295436Y416630D01*
X298657Y417964D01*
X302143Y417964D01*
X305364Y416630D01*
X307830Y414164D01*
X309164Y410943D01*
X309164Y407457D01*
X307830Y404236D01*
X305364Y401770D01*
X302143Y400436D01*
X298657Y400436D01*
G37*
%LPD*%
%LPC*%
G36*
X273257Y400436D02*
X273257Y400436D01*
X270036Y401770D01*
X267570Y404236D01*
X266236Y407457D01*
X266236Y410943D01*
X267570Y414164D01*
X270036Y416630D01*
X273257Y417964D01*
X276743Y417964D01*
X279964Y416630D01*
X282430Y414164D01*
X283764Y410943D01*
X283764Y407457D01*
X282430Y404236D01*
X279964Y401770D01*
X276743Y400436D01*
X273257Y400436D01*
G37*
%LPD*%
%LPC*%
G36*
X222457Y400436D02*
X222457Y400436D01*
X219236Y401770D01*
X216770Y404236D01*
X215436Y407457D01*
X215436Y410943D01*
X216770Y414164D01*
X219236Y416630D01*
X222457Y417964D01*
X225943Y417964D01*
X229164Y416630D01*
X231630Y414164D01*
X232964Y410943D01*
X232964Y407457D01*
X231630Y404236D01*
X229164Y401770D01*
X225943Y400436D01*
X222457Y400436D01*
G37*
%LPD*%
%LPC*%
G36*
X197057Y400436D02*
X197057Y400436D01*
X193836Y401770D01*
X191370Y404236D01*
X190036Y407457D01*
X190036Y410943D01*
X191370Y414164D01*
X193836Y416630D01*
X197057Y417964D01*
X200543Y417964D01*
X203764Y416630D01*
X206230Y414164D01*
X207564Y410943D01*
X207564Y407457D01*
X206230Y404236D01*
X203764Y401770D01*
X200543Y400436D01*
X197057Y400436D01*
G37*
%LPD*%
%LPC*%
G36*
X171657Y400436D02*
X171657Y400436D01*
X168436Y401770D01*
X165970Y404236D01*
X164636Y407457D01*
X164636Y410943D01*
X165970Y414164D01*
X168436Y416630D01*
X171657Y417964D01*
X175143Y417964D01*
X178364Y416630D01*
X180830Y414164D01*
X182164Y410943D01*
X182164Y407457D01*
X180830Y404236D01*
X178364Y401770D01*
X175143Y400436D01*
X171657Y400436D01*
G37*
%LPD*%
%LPC*%
G36*
X146257Y400436D02*
X146257Y400436D01*
X143036Y401770D01*
X140570Y404236D01*
X139236Y407457D01*
X139236Y410943D01*
X140570Y414164D01*
X143036Y416630D01*
X146257Y417964D01*
X149743Y417964D01*
X152964Y416630D01*
X155430Y414164D01*
X156764Y410943D01*
X156764Y407457D01*
X155430Y404236D01*
X152964Y401770D01*
X149743Y400436D01*
X146257Y400436D01*
G37*
%LPD*%
%LPC*%
G36*
X120857Y400436D02*
X120857Y400436D01*
X117636Y401770D01*
X115170Y404236D01*
X113836Y407457D01*
X113836Y410943D01*
X115170Y414164D01*
X117636Y416630D01*
X120857Y417964D01*
X124343Y417964D01*
X127564Y416630D01*
X130030Y414164D01*
X131364Y410943D01*
X131364Y407457D01*
X130030Y404236D01*
X127564Y401770D01*
X124343Y400436D01*
X120857Y400436D01*
G37*
%LPD*%
%LPC*%
G36*
X95457Y400436D02*
X95457Y400436D01*
X92236Y401770D01*
X89770Y404236D01*
X88436Y407457D01*
X88436Y410943D01*
X89770Y414164D01*
X92236Y416630D01*
X95457Y417964D01*
X98943Y417964D01*
X102164Y416630D01*
X104630Y414164D01*
X105964Y410943D01*
X105964Y407457D01*
X104630Y404236D01*
X102164Y401770D01*
X98943Y400436D01*
X95457Y400436D01*
G37*
%LPD*%
%LPC*%
G36*
X476457Y171836D02*
X476457Y171836D01*
X473236Y173170D01*
X470770Y175636D01*
X469436Y178857D01*
X469436Y182343D01*
X470770Y185564D01*
X473236Y188030D01*
X476457Y189364D01*
X479943Y189364D01*
X483164Y188030D01*
X485630Y185564D01*
X486964Y182343D01*
X486964Y178857D01*
X485630Y175636D01*
X483164Y173170D01*
X479943Y171836D01*
X476457Y171836D01*
G37*
%LPD*%
%LPC*%
G36*
X146257Y425836D02*
X146257Y425836D01*
X143036Y427170D01*
X140570Y429636D01*
X139236Y432857D01*
X139236Y436343D01*
X140570Y439564D01*
X143036Y442030D01*
X146257Y443364D01*
X149743Y443364D01*
X152964Y442030D01*
X155430Y439564D01*
X156764Y436343D01*
X156764Y432857D01*
X155430Y429636D01*
X152964Y427170D01*
X149743Y425836D01*
X146257Y425836D01*
G37*
%LPD*%
%LPC*%
G36*
X722157Y397636D02*
X722157Y397636D01*
X718936Y398970D01*
X716470Y401436D01*
X715136Y404657D01*
X715136Y408143D01*
X716470Y411364D01*
X718936Y413830D01*
X722157Y415164D01*
X725643Y415164D01*
X728864Y413830D01*
X731330Y411364D01*
X732664Y408143D01*
X732664Y404657D01*
X731330Y401436D01*
X728864Y398970D01*
X725643Y397636D01*
X722157Y397636D01*
G37*
%LPD*%
%LPC*%
G36*
X120857Y425836D02*
X120857Y425836D01*
X117636Y427170D01*
X115170Y429636D01*
X113836Y432857D01*
X113836Y436343D01*
X115170Y439564D01*
X117636Y442030D01*
X120857Y443364D01*
X124343Y443364D01*
X127564Y442030D01*
X130030Y439564D01*
X131364Y436343D01*
X131364Y432857D01*
X130030Y429636D01*
X127564Y427170D01*
X124343Y425836D01*
X120857Y425836D01*
G37*
%LPD*%
%LPC*%
G36*
X95457Y425836D02*
X95457Y425836D01*
X92236Y427170D01*
X89770Y429636D01*
X88436Y432857D01*
X88436Y436343D01*
X89770Y439564D01*
X92236Y442030D01*
X95457Y443364D01*
X98943Y443364D01*
X102164Y442030D01*
X104630Y439564D01*
X105964Y436343D01*
X105964Y432857D01*
X104630Y429636D01*
X102164Y427170D01*
X98943Y425836D01*
X95457Y425836D01*
G37*
%LPD*%
%LPC*%
G36*
X722157Y372236D02*
X722157Y372236D01*
X718936Y373570D01*
X716470Y376036D01*
X715136Y379257D01*
X715136Y382743D01*
X716470Y385964D01*
X718936Y388430D01*
X722157Y389764D01*
X725643Y389764D01*
X728864Y388430D01*
X731330Y385964D01*
X732664Y382743D01*
X732664Y379257D01*
X731330Y376036D01*
X728864Y373570D01*
X725643Y372236D01*
X722157Y372236D01*
G37*
%LPD*%
%LPC*%
G36*
X722157Y346836D02*
X722157Y346836D01*
X718936Y348170D01*
X716470Y350636D01*
X715136Y353857D01*
X715136Y357343D01*
X716470Y360564D01*
X718936Y363030D01*
X722157Y364364D01*
X725643Y364364D01*
X728864Y363030D01*
X731330Y360564D01*
X732664Y357343D01*
X732664Y353857D01*
X731330Y350636D01*
X728864Y348170D01*
X725643Y346836D01*
X722157Y346836D01*
G37*
%LPD*%
%LPC*%
G36*
X527257Y425836D02*
X527257Y425836D01*
X524036Y427170D01*
X521570Y429636D01*
X520236Y432857D01*
X520236Y436343D01*
X521570Y439564D01*
X524036Y442030D01*
X527257Y443364D01*
X530743Y443364D01*
X533964Y442030D01*
X536430Y439564D01*
X537764Y436343D01*
X537764Y432857D01*
X536430Y429636D01*
X533964Y427170D01*
X530743Y425836D01*
X527257Y425836D01*
G37*
%LPD*%
%LPC*%
G36*
X501857Y425836D02*
X501857Y425836D01*
X498636Y427170D01*
X496170Y429636D01*
X494836Y432857D01*
X494836Y436343D01*
X496170Y439564D01*
X498636Y442030D01*
X501857Y443364D01*
X505343Y443364D01*
X508564Y442030D01*
X511030Y439564D01*
X512364Y436343D01*
X512364Y432857D01*
X511030Y429636D01*
X508564Y427170D01*
X505343Y425836D01*
X501857Y425836D01*
G37*
%LPD*%
%LPC*%
G36*
X476457Y425836D02*
X476457Y425836D01*
X473236Y427170D01*
X470770Y429636D01*
X469436Y432857D01*
X469436Y436343D01*
X470770Y439564D01*
X473236Y442030D01*
X476457Y443364D01*
X479943Y443364D01*
X483164Y442030D01*
X485630Y439564D01*
X486964Y436343D01*
X486964Y432857D01*
X485630Y429636D01*
X483164Y427170D01*
X479943Y425836D01*
X476457Y425836D01*
G37*
%LPD*%
%LPC*%
G36*
X451057Y425836D02*
X451057Y425836D01*
X447836Y427170D01*
X445370Y429636D01*
X444036Y432857D01*
X444036Y436343D01*
X445370Y439564D01*
X447836Y442030D01*
X451057Y443364D01*
X454543Y443364D01*
X457764Y442030D01*
X460230Y439564D01*
X461564Y436343D01*
X461564Y432857D01*
X460230Y429636D01*
X457764Y427170D01*
X454543Y425836D01*
X451057Y425836D01*
G37*
%LPD*%
%LPC*%
G36*
X425657Y425836D02*
X425657Y425836D01*
X422436Y427170D01*
X419970Y429636D01*
X418636Y432857D01*
X418636Y436343D01*
X419970Y439564D01*
X422436Y442030D01*
X425657Y443364D01*
X429143Y443364D01*
X432364Y442030D01*
X434830Y439564D01*
X436164Y436343D01*
X436164Y432857D01*
X434830Y429636D01*
X432364Y427170D01*
X429143Y425836D01*
X425657Y425836D01*
G37*
%LPD*%
%LPC*%
G36*
X501857Y171836D02*
X501857Y171836D01*
X498636Y173170D01*
X496170Y175636D01*
X494836Y178857D01*
X494836Y182343D01*
X496170Y185564D01*
X498636Y188030D01*
X501857Y189364D01*
X505343Y189364D01*
X508564Y188030D01*
X511030Y185564D01*
X512364Y182343D01*
X512364Y178857D01*
X511030Y175636D01*
X508564Y173170D01*
X505343Y171836D01*
X501857Y171836D01*
G37*
%LPD*%
%LPC*%
G36*
X527257Y171836D02*
X527257Y171836D01*
X524036Y173170D01*
X521570Y175636D01*
X520236Y178857D01*
X520236Y182343D01*
X521570Y185564D01*
X524036Y188030D01*
X527257Y189364D01*
X530743Y189364D01*
X533964Y188030D01*
X536430Y185564D01*
X537764Y182343D01*
X537764Y178857D01*
X536430Y175636D01*
X533964Y173170D01*
X530743Y171836D01*
X527257Y171836D01*
G37*
%LPD*%
%LPC*%
G36*
X273257Y425836D02*
X273257Y425836D01*
X270036Y427170D01*
X267570Y429636D01*
X266236Y432857D01*
X266236Y436343D01*
X267570Y439564D01*
X270036Y442030D01*
X273257Y443364D01*
X276743Y443364D01*
X279964Y442030D01*
X282430Y439564D01*
X283764Y436343D01*
X283764Y432857D01*
X282430Y429636D01*
X279964Y427170D01*
X276743Y425836D01*
X273257Y425836D01*
G37*
%LPD*%
%LPC*%
G36*
X451057Y171836D02*
X451057Y171836D01*
X447836Y173170D01*
X445370Y175636D01*
X444036Y178857D01*
X444036Y182343D01*
X445370Y185564D01*
X447836Y188030D01*
X451057Y189364D01*
X454543Y189364D01*
X457764Y188030D01*
X460230Y185564D01*
X461564Y182343D01*
X461564Y178857D01*
X460230Y175636D01*
X457764Y173170D01*
X454543Y171836D01*
X451057Y171836D01*
G37*
%LPD*%
%LPC*%
G36*
X425657Y171836D02*
X425657Y171836D01*
X422436Y173170D01*
X419970Y175636D01*
X418636Y178857D01*
X418636Y182343D01*
X419970Y185564D01*
X422436Y188030D01*
X425657Y189364D01*
X429143Y189364D01*
X432364Y188030D01*
X434830Y185564D01*
X436164Y182343D01*
X436164Y178857D01*
X434830Y175636D01*
X432364Y173170D01*
X429143Y171836D01*
X425657Y171836D01*
G37*
%LPD*%
%LPC*%
G36*
X400257Y171836D02*
X400257Y171836D01*
X397036Y173170D01*
X394570Y175636D01*
X393236Y178857D01*
X393236Y182343D01*
X394570Y185564D01*
X397036Y188030D01*
X400257Y189364D01*
X403743Y189364D01*
X406964Y188030D01*
X409430Y185564D01*
X410764Y182343D01*
X410764Y178857D01*
X409430Y175636D01*
X406964Y173170D01*
X403743Y171836D01*
X400257Y171836D01*
G37*
%LPD*%
%LPC*%
G36*
X349457Y171836D02*
X349457Y171836D01*
X346236Y173170D01*
X343770Y175636D01*
X342436Y178857D01*
X342436Y182343D01*
X343770Y185564D01*
X346236Y188030D01*
X349457Y189364D01*
X352943Y189364D01*
X356164Y188030D01*
X358630Y185564D01*
X359964Y182343D01*
X359964Y178857D01*
X358630Y175636D01*
X356164Y173170D01*
X352943Y171836D01*
X349457Y171836D01*
G37*
%LPD*%
%LPC*%
G36*
X324057Y171836D02*
X324057Y171836D01*
X320836Y173170D01*
X318370Y175636D01*
X317036Y178857D01*
X317036Y182343D01*
X318370Y185564D01*
X320836Y188030D01*
X324057Y189364D01*
X327543Y189364D01*
X330764Y188030D01*
X333230Y185564D01*
X334564Y182343D01*
X334564Y178857D01*
X333230Y175636D01*
X330764Y173170D01*
X327543Y171836D01*
X324057Y171836D01*
G37*
%LPD*%
%LPC*%
G36*
X298657Y171836D02*
X298657Y171836D01*
X295436Y173170D01*
X292970Y175636D01*
X291636Y178857D01*
X291636Y182343D01*
X292970Y185564D01*
X295436Y188030D01*
X298657Y189364D01*
X302143Y189364D01*
X305364Y188030D01*
X307830Y185564D01*
X309164Y182343D01*
X309164Y178857D01*
X307830Y175636D01*
X305364Y173170D01*
X302143Y171836D01*
X298657Y171836D01*
G37*
%LPD*%
%LPC*%
G36*
X273257Y171836D02*
X273257Y171836D01*
X270036Y173170D01*
X267570Y175636D01*
X266236Y178857D01*
X266236Y182343D01*
X267570Y185564D01*
X270036Y188030D01*
X273257Y189364D01*
X276743Y189364D01*
X279964Y188030D01*
X282430Y185564D01*
X283764Y182343D01*
X283764Y178857D01*
X282430Y175636D01*
X279964Y173170D01*
X276743Y171836D01*
X273257Y171836D01*
G37*
%LPD*%
%LPC*%
G36*
X247857Y171836D02*
X247857Y171836D01*
X244636Y173170D01*
X242170Y175636D01*
X240836Y178857D01*
X240836Y182343D01*
X242170Y185564D01*
X244636Y188030D01*
X247857Y189364D01*
X251343Y189364D01*
X254564Y188030D01*
X257030Y185564D01*
X258364Y182343D01*
X258364Y178857D01*
X257030Y175636D01*
X254564Y173170D01*
X251343Y171836D01*
X247857Y171836D01*
G37*
%LPD*%
%LPC*%
G36*
X222457Y171836D02*
X222457Y171836D01*
X219236Y173170D01*
X216770Y175636D01*
X215436Y178857D01*
X215436Y182343D01*
X216770Y185564D01*
X219236Y188030D01*
X222457Y189364D01*
X225943Y189364D01*
X229164Y188030D01*
X231630Y185564D01*
X232964Y182343D01*
X232964Y178857D01*
X231630Y175636D01*
X229164Y173170D01*
X225943Y171836D01*
X222457Y171836D01*
G37*
%LPD*%
%LPC*%
G36*
X197057Y171836D02*
X197057Y171836D01*
X193836Y173170D01*
X191370Y175636D01*
X190036Y178857D01*
X190036Y182343D01*
X191370Y185564D01*
X193836Y188030D01*
X197057Y189364D01*
X200543Y189364D01*
X203764Y188030D01*
X206230Y185564D01*
X207564Y182343D01*
X207564Y178857D01*
X206230Y175636D01*
X203764Y173170D01*
X200543Y171836D01*
X197057Y171836D01*
G37*
%LPD*%
%LPC*%
G36*
X171657Y171836D02*
X171657Y171836D01*
X168436Y173170D01*
X165970Y175636D01*
X164636Y178857D01*
X164636Y182343D01*
X165970Y185564D01*
X168436Y188030D01*
X171657Y189364D01*
X175143Y189364D01*
X178364Y188030D01*
X180830Y185564D01*
X182164Y182343D01*
X182164Y178857D01*
X180830Y175636D01*
X178364Y173170D01*
X175143Y171836D01*
X171657Y171836D01*
G37*
%LPD*%
%LPC*%
G36*
X146257Y171836D02*
X146257Y171836D01*
X143036Y173170D01*
X140570Y175636D01*
X139236Y178857D01*
X139236Y182343D01*
X140570Y185564D01*
X143036Y188030D01*
X146257Y189364D01*
X149743Y189364D01*
X152964Y188030D01*
X155430Y185564D01*
X156764Y182343D01*
X156764Y178857D01*
X155430Y175636D01*
X152964Y173170D01*
X149743Y171836D01*
X146257Y171836D01*
G37*
%LPD*%
%LPC*%
G36*
X120857Y171836D02*
X120857Y171836D01*
X117636Y173170D01*
X115170Y175636D01*
X113836Y178857D01*
X113836Y182343D01*
X115170Y185564D01*
X117636Y188030D01*
X120857Y189364D01*
X124343Y189364D01*
X127564Y188030D01*
X130030Y185564D01*
X131364Y182343D01*
X131364Y178857D01*
X130030Y175636D01*
X127564Y173170D01*
X124343Y171836D01*
X120857Y171836D01*
G37*
%LPD*%
%LPC*%
G36*
X95457Y171836D02*
X95457Y171836D01*
X92236Y173170D01*
X89770Y175636D01*
X88436Y178857D01*
X88436Y182343D01*
X89770Y185564D01*
X92236Y188030D01*
X95457Y189364D01*
X98943Y189364D01*
X102164Y188030D01*
X104630Y185564D01*
X105964Y182343D01*
X105964Y178857D01*
X104630Y175636D01*
X102164Y173170D01*
X98943Y171836D01*
X95457Y171836D01*
G37*
%LPD*%
%LPC*%
G36*
X400257Y425836D02*
X400257Y425836D01*
X397036Y427170D01*
X394570Y429636D01*
X393236Y432857D01*
X393236Y436343D01*
X394570Y439564D01*
X397036Y442030D01*
X400257Y443364D01*
X403743Y443364D01*
X406964Y442030D01*
X409430Y439564D01*
X410764Y436343D01*
X410764Y432857D01*
X409430Y429636D01*
X406964Y427170D01*
X403743Y425836D01*
X400257Y425836D01*
G37*
%LPD*%
%LPC*%
G36*
X374857Y425836D02*
X374857Y425836D01*
X371636Y427170D01*
X369170Y429636D01*
X367836Y432857D01*
X367836Y436343D01*
X369170Y439564D01*
X371636Y442030D01*
X374857Y443364D01*
X378343Y443364D01*
X381564Y442030D01*
X384030Y439564D01*
X385364Y436343D01*
X385364Y432857D01*
X384030Y429636D01*
X381564Y427170D01*
X378343Y425836D01*
X374857Y425836D01*
G37*
%LPD*%
%LPC*%
G36*
X349457Y425836D02*
X349457Y425836D01*
X346236Y427170D01*
X343770Y429636D01*
X342436Y432857D01*
X342436Y436343D01*
X343770Y439564D01*
X346236Y442030D01*
X349457Y443364D01*
X352943Y443364D01*
X356164Y442030D01*
X358630Y439564D01*
X359964Y436343D01*
X359964Y432857D01*
X358630Y429636D01*
X356164Y427170D01*
X352943Y425836D01*
X349457Y425836D01*
G37*
%LPD*%
%LPC*%
G36*
X324057Y425836D02*
X324057Y425836D01*
X320836Y427170D01*
X318370Y429636D01*
X317036Y432857D01*
X317036Y436343D01*
X318370Y439564D01*
X320836Y442030D01*
X324057Y443364D01*
X327543Y443364D01*
X330764Y442030D01*
X333230Y439564D01*
X334564Y436343D01*
X334564Y432857D01*
X333230Y429636D01*
X330764Y427170D01*
X327543Y425836D01*
X324057Y425836D01*
G37*
%LPD*%
%LPC*%
G36*
X425657Y146436D02*
X425657Y146436D01*
X422436Y147770D01*
X419970Y150236D01*
X418636Y153457D01*
X418636Y156943D01*
X419970Y160164D01*
X422436Y162630D01*
X425657Y163964D01*
X429143Y163964D01*
X432364Y162630D01*
X434830Y160164D01*
X436164Y156943D01*
X436164Y153457D01*
X434830Y150236D01*
X432364Y147770D01*
X429143Y146436D01*
X425657Y146436D01*
G37*
%LPD*%
%LPC*%
G36*
X400257Y146436D02*
X400257Y146436D01*
X397036Y147770D01*
X394570Y150236D01*
X393236Y153457D01*
X393236Y156943D01*
X394570Y160164D01*
X397036Y162630D01*
X400257Y163964D01*
X403743Y163964D01*
X406964Y162630D01*
X409430Y160164D01*
X410764Y156943D01*
X410764Y153457D01*
X409430Y150236D01*
X406964Y147770D01*
X403743Y146436D01*
X400257Y146436D01*
G37*
%LPD*%
%LPC*%
G36*
X374857Y146436D02*
X374857Y146436D01*
X371636Y147770D01*
X369170Y150236D01*
X367836Y153457D01*
X367836Y156943D01*
X369170Y160164D01*
X371636Y162630D01*
X374857Y163964D01*
X378343Y163964D01*
X381564Y162630D01*
X384030Y160164D01*
X385364Y156943D01*
X385364Y153457D01*
X384030Y150236D01*
X381564Y147770D01*
X378343Y146436D01*
X374857Y146436D01*
G37*
%LPD*%
%LPC*%
G36*
X527257Y146436D02*
X527257Y146436D01*
X524036Y147770D01*
X521570Y150236D01*
X520236Y153457D01*
X520236Y156943D01*
X521570Y160164D01*
X524036Y162630D01*
X527257Y163964D01*
X530743Y163964D01*
X533964Y162630D01*
X536430Y160164D01*
X537764Y156943D01*
X537764Y153457D01*
X536430Y150236D01*
X533964Y147770D01*
X530743Y146436D01*
X527257Y146436D01*
G37*
%LPD*%
%LPC*%
G36*
X501857Y146436D02*
X501857Y146436D01*
X498636Y147770D01*
X496170Y150236D01*
X494836Y153457D01*
X494836Y156943D01*
X496170Y160164D01*
X498636Y162630D01*
X501857Y163964D01*
X505343Y163964D01*
X508564Y162630D01*
X511030Y160164D01*
X512364Y156943D01*
X512364Y153457D01*
X511030Y150236D01*
X508564Y147770D01*
X505343Y146436D01*
X501857Y146436D01*
G37*
%LPD*%
%LPC*%
G36*
X476457Y146436D02*
X476457Y146436D01*
X473236Y147770D01*
X470770Y150236D01*
X469436Y153457D01*
X469436Y156943D01*
X470770Y160164D01*
X473236Y162630D01*
X476457Y163964D01*
X479943Y163964D01*
X483164Y162630D01*
X485630Y160164D01*
X486964Y156943D01*
X486964Y153457D01*
X485630Y150236D01*
X483164Y147770D01*
X479943Y146436D01*
X476457Y146436D01*
G37*
%LPD*%
%LPC*%
G36*
X451057Y146436D02*
X451057Y146436D01*
X447836Y147770D01*
X445370Y150236D01*
X444036Y153457D01*
X444036Y156943D01*
X445370Y160164D01*
X447836Y162630D01*
X451057Y163964D01*
X454543Y163964D01*
X457764Y162630D01*
X460230Y160164D01*
X461564Y156943D01*
X461564Y153457D01*
X460230Y150236D01*
X457764Y147770D01*
X454543Y146436D01*
X451057Y146436D01*
G37*
%LPD*%
%LPC*%
G36*
X146257Y146436D02*
X146257Y146436D01*
X143036Y147770D01*
X140570Y150236D01*
X139236Y153457D01*
X139236Y156943D01*
X140570Y160164D01*
X143036Y162630D01*
X146257Y163964D01*
X149743Y163964D01*
X152964Y162630D01*
X155430Y160164D01*
X156764Y156943D01*
X156764Y153457D01*
X155430Y150236D01*
X152964Y147770D01*
X149743Y146436D01*
X146257Y146436D01*
G37*
%LPD*%
%LPC*%
G36*
X120857Y146436D02*
X120857Y146436D01*
X117636Y147770D01*
X115170Y150236D01*
X113836Y153457D01*
X113836Y156943D01*
X115170Y160164D01*
X117636Y162630D01*
X120857Y163964D01*
X124343Y163964D01*
X127564Y162630D01*
X130030Y160164D01*
X131364Y156943D01*
X131364Y153457D01*
X130030Y150236D01*
X127564Y147770D01*
X124343Y146436D01*
X120857Y146436D01*
G37*
%LPD*%
%LPC*%
G36*
X95457Y146436D02*
X95457Y146436D01*
X92236Y147770D01*
X89770Y150236D01*
X88436Y153457D01*
X88436Y156943D01*
X89770Y160164D01*
X92236Y162630D01*
X95457Y163964D01*
X98943Y163964D01*
X102164Y162630D01*
X104630Y160164D01*
X105964Y156943D01*
X105964Y153457D01*
X104630Y150236D01*
X102164Y147770D01*
X98943Y146436D01*
X95457Y146436D01*
G37*
%LPD*%
%LPC*%
G36*
X349457Y146436D02*
X349457Y146436D01*
X346236Y147770D01*
X343770Y150236D01*
X342436Y153457D01*
X342436Y156943D01*
X343770Y160164D01*
X346236Y162630D01*
X349457Y163964D01*
X352943Y163964D01*
X356164Y162630D01*
X358630Y160164D01*
X359964Y156943D01*
X359964Y153457D01*
X358630Y150236D01*
X356164Y147770D01*
X352943Y146436D01*
X349457Y146436D01*
G37*
%LPD*%
%LPC*%
G36*
X324057Y146436D02*
X324057Y146436D01*
X320836Y147770D01*
X318370Y150236D01*
X317036Y153457D01*
X317036Y156943D01*
X318370Y160164D01*
X320836Y162630D01*
X324057Y163964D01*
X327543Y163964D01*
X330764Y162630D01*
X333230Y160164D01*
X334564Y156943D01*
X334564Y153457D01*
X333230Y150236D01*
X330764Y147770D01*
X327543Y146436D01*
X324057Y146436D01*
G37*
%LPD*%
%LPC*%
G36*
X298657Y146436D02*
X298657Y146436D01*
X295436Y147770D01*
X292970Y150236D01*
X291636Y153457D01*
X291636Y156943D01*
X292970Y160164D01*
X295436Y162630D01*
X298657Y163964D01*
X302143Y163964D01*
X305364Y162630D01*
X307830Y160164D01*
X309164Y156943D01*
X309164Y153457D01*
X307830Y150236D01*
X305364Y147770D01*
X302143Y146436D01*
X298657Y146436D01*
G37*
%LPD*%
%LPC*%
G36*
X273257Y146436D02*
X273257Y146436D01*
X270036Y147770D01*
X267570Y150236D01*
X266236Y153457D01*
X266236Y156943D01*
X267570Y160164D01*
X270036Y162630D01*
X273257Y163964D01*
X276743Y163964D01*
X279964Y162630D01*
X282430Y160164D01*
X283764Y156943D01*
X283764Y153457D01*
X282430Y150236D01*
X279964Y147770D01*
X276743Y146436D01*
X273257Y146436D01*
G37*
%LPD*%
%LPC*%
G36*
X247857Y146436D02*
X247857Y146436D01*
X244636Y147770D01*
X242170Y150236D01*
X240836Y153457D01*
X240836Y156943D01*
X242170Y160164D01*
X244636Y162630D01*
X247857Y163964D01*
X251343Y163964D01*
X254564Y162630D01*
X257030Y160164D01*
X258364Y156943D01*
X258364Y153457D01*
X257030Y150236D01*
X254564Y147770D01*
X251343Y146436D01*
X247857Y146436D01*
G37*
%LPD*%
%LPC*%
G36*
X222457Y146436D02*
X222457Y146436D01*
X219236Y147770D01*
X216770Y150236D01*
X215436Y153457D01*
X215436Y156943D01*
X216770Y160164D01*
X219236Y162630D01*
X222457Y163964D01*
X225943Y163964D01*
X229164Y162630D01*
X231630Y160164D01*
X232964Y156943D01*
X232964Y153457D01*
X231630Y150236D01*
X229164Y147770D01*
X225943Y146436D01*
X222457Y146436D01*
G37*
%LPD*%
%LPC*%
G36*
X197057Y146436D02*
X197057Y146436D01*
X193836Y147770D01*
X191370Y150236D01*
X190036Y153457D01*
X190036Y156943D01*
X191370Y160164D01*
X193836Y162630D01*
X197057Y163964D01*
X200543Y163964D01*
X203764Y162630D01*
X206230Y160164D01*
X207564Y156943D01*
X207564Y153457D01*
X206230Y150236D01*
X203764Y147770D01*
X200543Y146436D01*
X197057Y146436D01*
G37*
%LPD*%
%LPC*%
G36*
X171657Y146436D02*
X171657Y146436D01*
X168436Y147770D01*
X165970Y150236D01*
X164636Y153457D01*
X164636Y156943D01*
X165970Y160164D01*
X168436Y162630D01*
X171657Y163964D01*
X175143Y163964D01*
X178364Y162630D01*
X180830Y160164D01*
X182164Y156943D01*
X182164Y153457D01*
X180830Y150236D01*
X178364Y147770D01*
X175143Y146436D01*
X171657Y146436D01*
G37*
%LPD*%
%LPC*%
G36*
X298657Y425836D02*
X298657Y425836D01*
X295436Y427170D01*
X292970Y429636D01*
X291636Y432857D01*
X291636Y436343D01*
X292970Y439564D01*
X295436Y442030D01*
X298657Y443364D01*
X302143Y443364D01*
X305364Y442030D01*
X307830Y439564D01*
X309164Y436343D01*
X309164Y432857D01*
X307830Y429636D01*
X305364Y427170D01*
X302143Y425836D01*
X298657Y425836D01*
G37*
%LPD*%
%LPC*%
G36*
X157638Y286511D02*
X157638Y286511D01*
X155584Y287362D01*
X154012Y288934D01*
X153161Y290988D01*
X153161Y293212D01*
X154012Y295266D01*
X155584Y296838D01*
X157638Y297689D01*
X159862Y297689D01*
X161916Y296838D01*
X163488Y295266D01*
X164339Y293212D01*
X164339Y290988D01*
X163488Y288934D01*
X161916Y287362D01*
X159862Y286511D01*
X157638Y286511D01*
G37*
%LPD*%
%LPC*%
G36*
X195738Y286511D02*
X195738Y286511D01*
X193684Y287362D01*
X192112Y288934D01*
X191261Y290988D01*
X191261Y293212D01*
X192112Y295266D01*
X193684Y296838D01*
X195738Y297689D01*
X197962Y297689D01*
X200016Y296838D01*
X201588Y295266D01*
X202439Y293212D01*
X202439Y290988D01*
X201588Y288934D01*
X200016Y287362D01*
X197962Y286511D01*
X195738Y286511D01*
G37*
%LPD*%
%LPC*%
G36*
X233838Y294131D02*
X233838Y294131D01*
X231784Y294982D01*
X230212Y296554D01*
X229361Y298608D01*
X229361Y300832D01*
X230212Y302886D01*
X231784Y304458D01*
X233838Y305309D01*
X236062Y305309D01*
X238116Y304458D01*
X239688Y302886D01*
X240539Y300832D01*
X240539Y298608D01*
X239688Y296554D01*
X238116Y294982D01*
X236062Y294131D01*
X233838Y294131D01*
G37*
%LPD*%
%LPC*%
G36*
X56038Y286511D02*
X56038Y286511D01*
X53984Y287362D01*
X52412Y288934D01*
X51561Y290988D01*
X51561Y293212D01*
X52412Y295266D01*
X53984Y296838D01*
X56038Y297689D01*
X58262Y297689D01*
X60316Y296838D01*
X61888Y295266D01*
X62739Y293212D01*
X62739Y290988D01*
X61888Y288934D01*
X60316Y287362D01*
X58262Y286511D01*
X56038Y286511D01*
G37*
%LPD*%
%LPC*%
G36*
X277018Y286511D02*
X277018Y286511D01*
X274964Y287362D01*
X273392Y288934D01*
X272541Y290988D01*
X272541Y293212D01*
X273392Y295266D01*
X274964Y296838D01*
X277018Y297689D01*
X279242Y297689D01*
X281296Y296838D01*
X282868Y295266D01*
X283719Y293212D01*
X283719Y290988D01*
X282868Y288934D01*
X281296Y287362D01*
X279242Y286511D01*
X277018Y286511D01*
G37*
%LPD*%
%LPC*%
G36*
X62388Y70611D02*
X62388Y70611D01*
X60334Y71462D01*
X58762Y73034D01*
X57911Y75088D01*
X57911Y77312D01*
X58762Y79366D01*
X60334Y80938D01*
X62388Y81789D01*
X64612Y81789D01*
X66666Y80938D01*
X68238Y79366D01*
X69089Y77312D01*
X69089Y75088D01*
X68238Y73034D01*
X66666Y71462D01*
X64612Y70611D01*
X62388Y70611D01*
G37*
%LPD*%
%LPC*%
G36*
X251822Y411422D02*
X251822Y411422D01*
X251822Y417693D01*
X252156Y417627D01*
X253751Y416966D01*
X255187Y416007D01*
X256407Y414787D01*
X257366Y413351D01*
X258027Y411756D01*
X258093Y411422D01*
X251822Y411422D01*
G37*
%LPD*%
%LPC*%
G36*
X378822Y182822D02*
X378822Y182822D01*
X378822Y189093D01*
X379156Y189027D01*
X380751Y188366D01*
X382187Y187407D01*
X383407Y186187D01*
X384366Y184751D01*
X385027Y183156D01*
X385093Y182822D01*
X378822Y182822D01*
G37*
%LPD*%
%LPC*%
G36*
X241107Y411422D02*
X241107Y411422D01*
X241173Y411756D01*
X241834Y413351D01*
X242793Y414787D01*
X244013Y416007D01*
X245449Y416966D01*
X247044Y417627D01*
X247378Y417693D01*
X247378Y411422D01*
X241107Y411422D01*
G37*
%LPD*%
%LPC*%
G36*
X368107Y182822D02*
X368107Y182822D01*
X368173Y183156D01*
X368834Y184751D01*
X369793Y186187D01*
X371013Y187407D01*
X372449Y188366D01*
X374044Y189027D01*
X374378Y189093D01*
X374378Y182822D01*
X368107Y182822D01*
G37*
%LPD*%
%LPC*%
G36*
X251822Y406978D02*
X251822Y406978D01*
X258093Y406978D01*
X258027Y406644D01*
X257366Y405049D01*
X256407Y403613D01*
X255187Y402393D01*
X253751Y401434D01*
X252156Y400773D01*
X251822Y400707D01*
X251822Y406978D01*
G37*
%LPD*%
%LPC*%
G36*
X378822Y178378D02*
X378822Y178378D01*
X385093Y178378D01*
X385027Y178044D01*
X384366Y176449D01*
X383407Y175013D01*
X382187Y173793D01*
X380751Y172834D01*
X379156Y172173D01*
X378822Y172107D01*
X378822Y178378D01*
G37*
%LPD*%
%LPC*%
G36*
X247044Y400773D02*
X247044Y400773D01*
X245449Y401434D01*
X244013Y402393D01*
X242793Y403613D01*
X241834Y405049D01*
X241173Y406644D01*
X241107Y406978D01*
X247378Y406978D01*
X247378Y400707D01*
X247044Y400773D01*
G37*
%LPD*%
%LPC*%
G36*
X374044Y172173D02*
X374044Y172173D01*
X372449Y172834D01*
X371013Y173793D01*
X369793Y175013D01*
X368834Y176449D01*
X368173Y178044D01*
X368107Y178378D01*
X374378Y178378D01*
X374378Y172107D01*
X374044Y172173D01*
G37*
%LPD*%
D10*
X97200Y434600D03*
X97200Y409200D03*
X122600Y434600D03*
X122600Y409200D03*
X148000Y434600D03*
X148000Y409200D03*
X173400Y434600D03*
X173400Y409200D03*
X198800Y434600D03*
X198800Y409200D03*
X224200Y434600D03*
X224200Y409200D03*
X249600Y434600D03*
X249600Y409200D03*
X275000Y434600D03*
X275000Y409200D03*
X300400Y434600D03*
X300400Y409200D03*
X325800Y434600D03*
X325800Y409200D03*
X351200Y434600D03*
X351200Y409200D03*
X376600Y434600D03*
X376600Y409200D03*
X402000Y434600D03*
X402000Y409200D03*
X427400Y434600D03*
X427400Y409200D03*
X452800Y434600D03*
X452800Y409200D03*
X478200Y434600D03*
X478200Y409200D03*
X503600Y434600D03*
X503600Y409200D03*
X529000Y434600D03*
X529000Y409200D03*
X97200Y180600D03*
X97200Y155200D03*
X122600Y180600D03*
X122600Y155200D03*
X148000Y180600D03*
X148000Y155200D03*
X173400Y180600D03*
X173400Y155200D03*
X198800Y180600D03*
X198800Y155200D03*
X224200Y180600D03*
X224200Y155200D03*
X249600Y180600D03*
X249600Y155200D03*
X275000Y180600D03*
X275000Y155200D03*
X300400Y180600D03*
X300400Y155200D03*
X325800Y180600D03*
X325800Y155200D03*
X351200Y180600D03*
X351200Y155200D03*
X376600Y180600D03*
X376600Y155200D03*
X402000Y180600D03*
X402000Y155200D03*
X427400Y180600D03*
X427400Y155200D03*
X452800Y180600D03*
X452800Y155200D03*
X478200Y180600D03*
X478200Y155200D03*
X503600Y180600D03*
X503600Y155200D03*
X529000Y180600D03*
X529000Y155200D03*
X723900Y406400D03*
X723900Y381000D03*
X723900Y355600D03*
D11*
X202200Y101200D03*
X202200Y51200D03*
X77200Y51200D03*
X77200Y101200D03*
X418100Y101200D03*
X418100Y51200D03*
X293100Y51200D03*
X293100Y101200D03*
X634000Y101200D03*
X634000Y51200D03*
X509000Y51200D03*
X509000Y101200D03*
D12*
X38100Y38100D03*
X723900Y38100D03*
X723900Y469900D03*
X38100Y469900D03*
D13*
X63500Y76200D03*
X278130Y292100D03*
X234950Y299720D03*
X196850Y292100D03*
X158750Y292100D03*
X57150Y292100D03*
M02*
