M48
;GenerationSoftware,Autodesk,EAGLE,9.6.2*%
;CreationDate,2023-12-17T05:23:17Z*%
FMAT,2
ICI,OFF
METRIC,TZ,000.000
T4C0.305
T3C0.889
T2C1.400
T1C3.175
%
G90
M71
T1
X3810Y46990
X72390Y46990
X72390Y3810
X3810Y3810
T2
X50900Y10120
X50900Y5120
X63400Y5120
X63400Y10120
X29310Y10120
X29310Y5120
X41810Y5120
X41810Y10120
X7720Y10120
X7720Y5120
X20220Y5120
X20220Y10120
T3
X22420Y43460
X22420Y40920
X24960Y43460
X24960Y40920
X27500Y43460
X27500Y40920
X30040Y43460
X30040Y40920
X32580Y43460
X32580Y40920
X35120Y43460
X35120Y40920
X37660Y43460
X37660Y40920
X40200Y43460
X40200Y40920
X42740Y43460
X42740Y40920
X45280Y43460
X45280Y40920
X47820Y43460
X47820Y40920
X50360Y43460
X50360Y40920
X52900Y43460
X52900Y40920
X9720Y18060
X9720Y15520
X12260Y18060
X12260Y15520
X14800Y18060
X14800Y15520
X17340Y18060
X17340Y15520
X19880Y18060
X19880Y15520
X22420Y18060
X22420Y15520
X24960Y18060
X24960Y15520
X27500Y18060
X27500Y15520
X30040Y18060
X30040Y15520
X32580Y18060
X32580Y15520
X35120Y18060
X35120Y15520
X37660Y18060
X37660Y15520
X40200Y18060
X40200Y15520
X42740Y18060
X42740Y15520
X45280Y18060
X45280Y15520
X47820Y18060
X47820Y15520
X50360Y18060
X50360Y15520
X52900Y18060
X52900Y15520
X72390Y40640
X72390Y38100
X72390Y35560
X19880Y40920
X19880Y43460
X17340Y40920
X17340Y43460
X14800Y40920
X14800Y43460
X12260Y40920
X12260Y43460
X9720Y40920
X9720Y43460
T4
X5715Y29210
X15875Y29210
X19685Y29210
X23495Y29972
X27813Y29210
X6350Y7620
M30