G04 EAGLE Gerber RS-274X export*
G75*
%MOMM*%
%FSLAX34Y34*%
%LPD*%
%INSilkscreen Top*%
%IPPOS*%
%AMOC8*
5,1,8,0,0,1.08239X$1,22.5*%
G01*
%ADD10C,0.152400*%
%ADD11C,0.254000*%
%ADD12C,0.127000*%

G36*
X257085Y289476D02*
X257085Y289476D01*
X257185Y289475D01*
X257199Y289479D01*
X257211Y289479D01*
X257254Y289497D01*
X257364Y289533D01*
X261364Y291533D01*
X261399Y291559D01*
X261440Y291578D01*
X261489Y291626D01*
X261543Y291667D01*
X261568Y291704D01*
X261599Y291736D01*
X261628Y291798D01*
X261665Y291855D01*
X261675Y291899D01*
X261694Y291939D01*
X261699Y292008D01*
X261714Y292074D01*
X261708Y292119D01*
X261711Y292163D01*
X261692Y292229D01*
X261683Y292297D01*
X261662Y292336D01*
X261650Y292379D01*
X261609Y292434D01*
X261577Y292494D01*
X261543Y292524D01*
X261517Y292560D01*
X261446Y292609D01*
X261408Y292643D01*
X261387Y292651D01*
X261364Y292667D01*
X257364Y294667D01*
X257268Y294695D01*
X257174Y294727D01*
X257161Y294727D01*
X257148Y294731D01*
X257049Y294724D01*
X256949Y294721D01*
X256938Y294716D01*
X256925Y294715D01*
X256834Y294674D01*
X256742Y294636D01*
X256732Y294628D01*
X256720Y294622D01*
X256649Y294552D01*
X256576Y294485D01*
X256570Y294474D01*
X256561Y294464D01*
X256519Y294374D01*
X256473Y294285D01*
X256471Y294271D01*
X256466Y294261D01*
X256463Y294214D01*
X256446Y294100D01*
X256446Y290100D01*
X256463Y290002D01*
X256477Y289903D01*
X256483Y289892D01*
X256485Y289879D01*
X256536Y289793D01*
X256583Y289706D01*
X256593Y289697D01*
X256600Y289686D01*
X256677Y289623D01*
X256752Y289557D01*
X256764Y289553D01*
X256774Y289545D01*
X256868Y289513D01*
X256961Y289477D01*
X256974Y289477D01*
X256986Y289473D01*
X257085Y289476D01*
G37*
G36*
X213905Y289476D02*
X213905Y289476D01*
X214005Y289475D01*
X214019Y289479D01*
X214031Y289479D01*
X214074Y289497D01*
X214184Y289533D01*
X218184Y291533D01*
X218219Y291559D01*
X218260Y291578D01*
X218309Y291626D01*
X218363Y291667D01*
X218388Y291704D01*
X218419Y291736D01*
X218448Y291798D01*
X218485Y291855D01*
X218495Y291899D01*
X218514Y291939D01*
X218519Y292008D01*
X218534Y292074D01*
X218528Y292119D01*
X218531Y292163D01*
X218512Y292229D01*
X218503Y292297D01*
X218482Y292336D01*
X218470Y292379D01*
X218429Y292434D01*
X218397Y292494D01*
X218363Y292524D01*
X218337Y292560D01*
X218266Y292609D01*
X218228Y292643D01*
X218207Y292651D01*
X218184Y292667D01*
X214184Y294667D01*
X214088Y294695D01*
X213994Y294727D01*
X213981Y294727D01*
X213968Y294731D01*
X213869Y294724D01*
X213769Y294721D01*
X213758Y294716D01*
X213745Y294715D01*
X213654Y294674D01*
X213562Y294636D01*
X213552Y294628D01*
X213540Y294622D01*
X213469Y294552D01*
X213396Y294485D01*
X213390Y294474D01*
X213381Y294464D01*
X213339Y294374D01*
X213293Y294285D01*
X213291Y294271D01*
X213286Y294261D01*
X213283Y294214D01*
X213266Y294100D01*
X213266Y290100D01*
X213283Y290002D01*
X213297Y289903D01*
X213303Y289892D01*
X213305Y289879D01*
X213356Y289793D01*
X213403Y289706D01*
X213413Y289697D01*
X213420Y289686D01*
X213497Y289623D01*
X213572Y289557D01*
X213584Y289553D01*
X213594Y289545D01*
X213688Y289513D01*
X213781Y289477D01*
X213794Y289477D01*
X213806Y289473D01*
X213905Y289476D01*
G37*
G36*
X175805Y289476D02*
X175805Y289476D01*
X175905Y289475D01*
X175919Y289479D01*
X175931Y289479D01*
X175974Y289497D01*
X176084Y289533D01*
X180084Y291533D01*
X180119Y291559D01*
X180160Y291578D01*
X180209Y291626D01*
X180263Y291667D01*
X180288Y291704D01*
X180319Y291736D01*
X180348Y291798D01*
X180385Y291855D01*
X180395Y291899D01*
X180414Y291939D01*
X180419Y292008D01*
X180434Y292074D01*
X180428Y292119D01*
X180431Y292163D01*
X180412Y292229D01*
X180403Y292297D01*
X180382Y292336D01*
X180370Y292379D01*
X180329Y292434D01*
X180297Y292494D01*
X180263Y292524D01*
X180237Y292560D01*
X180166Y292609D01*
X180128Y292643D01*
X180107Y292651D01*
X180084Y292667D01*
X176084Y294667D01*
X175988Y294695D01*
X175894Y294727D01*
X175881Y294727D01*
X175868Y294731D01*
X175769Y294724D01*
X175669Y294721D01*
X175658Y294716D01*
X175645Y294715D01*
X175554Y294674D01*
X175462Y294636D01*
X175452Y294628D01*
X175440Y294622D01*
X175369Y294552D01*
X175296Y294485D01*
X175290Y294474D01*
X175281Y294464D01*
X175239Y294374D01*
X175193Y294285D01*
X175191Y294271D01*
X175186Y294261D01*
X175183Y294214D01*
X175166Y294100D01*
X175166Y290100D01*
X175183Y290002D01*
X175197Y289903D01*
X175203Y289892D01*
X175205Y289879D01*
X175256Y289793D01*
X175303Y289706D01*
X175313Y289697D01*
X175320Y289686D01*
X175397Y289623D01*
X175472Y289557D01*
X175484Y289553D01*
X175494Y289545D01*
X175588Y289513D01*
X175681Y289477D01*
X175694Y289477D01*
X175706Y289473D01*
X175805Y289476D01*
G37*
G36*
X137705Y289476D02*
X137705Y289476D01*
X137805Y289475D01*
X137819Y289479D01*
X137831Y289479D01*
X137874Y289497D01*
X137984Y289533D01*
X141984Y291533D01*
X142019Y291559D01*
X142060Y291578D01*
X142109Y291626D01*
X142163Y291667D01*
X142188Y291704D01*
X142219Y291736D01*
X142248Y291798D01*
X142285Y291855D01*
X142295Y291899D01*
X142314Y291939D01*
X142319Y292008D01*
X142334Y292074D01*
X142328Y292119D01*
X142331Y292163D01*
X142312Y292229D01*
X142303Y292297D01*
X142282Y292336D01*
X142270Y292379D01*
X142229Y292434D01*
X142197Y292494D01*
X142163Y292524D01*
X142137Y292560D01*
X142066Y292609D01*
X142028Y292643D01*
X142007Y292651D01*
X141984Y292667D01*
X137984Y294667D01*
X137888Y294695D01*
X137794Y294727D01*
X137781Y294727D01*
X137768Y294731D01*
X137669Y294724D01*
X137569Y294721D01*
X137558Y294716D01*
X137545Y294715D01*
X137454Y294674D01*
X137362Y294636D01*
X137352Y294628D01*
X137340Y294622D01*
X137269Y294552D01*
X137196Y294485D01*
X137190Y294474D01*
X137181Y294464D01*
X137139Y294374D01*
X137093Y294285D01*
X137091Y294271D01*
X137086Y294261D01*
X137083Y294214D01*
X137066Y294100D01*
X137066Y290100D01*
X137083Y290002D01*
X137097Y289903D01*
X137103Y289892D01*
X137105Y289879D01*
X137156Y289793D01*
X137203Y289706D01*
X137213Y289697D01*
X137220Y289686D01*
X137297Y289623D01*
X137372Y289557D01*
X137384Y289553D01*
X137394Y289545D01*
X137488Y289513D01*
X137581Y289477D01*
X137594Y289477D01*
X137606Y289473D01*
X137705Y289476D01*
G37*
D10*
X559562Y146812D02*
X559562Y157988D01*
X565771Y146812D01*
X565771Y157988D01*
X571034Y157988D02*
X573518Y146812D01*
X576001Y154263D01*
X578485Y146812D01*
X580969Y157988D01*
X586373Y157988D02*
X586373Y146812D01*
X590098Y151779D02*
X586373Y157988D01*
X590098Y151779D02*
X593824Y157988D01*
X593824Y146812D01*
X559562Y184912D02*
X559562Y196088D01*
X562666Y196088D01*
X562777Y196086D01*
X562887Y196080D01*
X562998Y196070D01*
X563108Y196056D01*
X563217Y196039D01*
X563326Y196017D01*
X563434Y195992D01*
X563540Y195962D01*
X563646Y195929D01*
X563751Y195892D01*
X563854Y195852D01*
X563955Y195807D01*
X564055Y195760D01*
X564154Y195708D01*
X564250Y195653D01*
X564344Y195595D01*
X564436Y195534D01*
X564526Y195469D01*
X564614Y195401D01*
X564699Y195330D01*
X564781Y195256D01*
X564861Y195179D01*
X564938Y195099D01*
X565012Y195017D01*
X565083Y194932D01*
X565151Y194844D01*
X565216Y194754D01*
X565277Y194662D01*
X565335Y194568D01*
X565390Y194472D01*
X565442Y194373D01*
X565489Y194273D01*
X565534Y194172D01*
X565574Y194069D01*
X565611Y193964D01*
X565644Y193858D01*
X565674Y193752D01*
X565699Y193644D01*
X565721Y193535D01*
X565738Y193426D01*
X565752Y193316D01*
X565762Y193205D01*
X565768Y193095D01*
X565770Y192984D01*
X565768Y192873D01*
X565762Y192763D01*
X565752Y192652D01*
X565738Y192542D01*
X565721Y192433D01*
X565699Y192324D01*
X565674Y192216D01*
X565644Y192110D01*
X565611Y192004D01*
X565574Y191899D01*
X565534Y191796D01*
X565489Y191695D01*
X565442Y191595D01*
X565390Y191496D01*
X565335Y191400D01*
X565277Y191306D01*
X565216Y191214D01*
X565151Y191124D01*
X565083Y191036D01*
X565012Y190951D01*
X564938Y190869D01*
X564861Y190789D01*
X564781Y190712D01*
X564699Y190638D01*
X564614Y190567D01*
X564526Y190499D01*
X564436Y190434D01*
X564344Y190373D01*
X564250Y190315D01*
X564154Y190260D01*
X564055Y190208D01*
X563955Y190161D01*
X563854Y190116D01*
X563751Y190076D01*
X563646Y190039D01*
X563540Y190006D01*
X563434Y189976D01*
X563326Y189951D01*
X563217Y189929D01*
X563108Y189912D01*
X562998Y189898D01*
X562887Y189888D01*
X562777Y189882D01*
X562666Y189880D01*
X562666Y189879D02*
X559562Y189879D01*
X570722Y192363D02*
X570722Y184912D01*
X570722Y192363D02*
X574448Y192363D01*
X574448Y191121D01*
X578259Y189879D02*
X578259Y187396D01*
X578259Y189879D02*
X578261Y189978D01*
X578267Y190076D01*
X578277Y190175D01*
X578290Y190272D01*
X578308Y190370D01*
X578329Y190466D01*
X578355Y190562D01*
X578384Y190656D01*
X578416Y190749D01*
X578453Y190841D01*
X578493Y190931D01*
X578537Y191020D01*
X578584Y191107D01*
X578634Y191192D01*
X578688Y191274D01*
X578745Y191355D01*
X578805Y191433D01*
X578869Y191509D01*
X578935Y191582D01*
X579004Y191653D01*
X579076Y191721D01*
X579151Y191785D01*
X579228Y191847D01*
X579307Y191906D01*
X579389Y191961D01*
X579473Y192014D01*
X579558Y192062D01*
X579646Y192108D01*
X579736Y192150D01*
X579827Y192188D01*
X579919Y192222D01*
X580013Y192253D01*
X580108Y192280D01*
X580204Y192304D01*
X580301Y192323D01*
X580398Y192339D01*
X580496Y192351D01*
X580595Y192359D01*
X580694Y192363D01*
X580792Y192363D01*
X580891Y192359D01*
X580990Y192351D01*
X581088Y192339D01*
X581185Y192323D01*
X581282Y192304D01*
X581378Y192280D01*
X581473Y192253D01*
X581567Y192222D01*
X581659Y192188D01*
X581750Y192150D01*
X581840Y192108D01*
X581928Y192062D01*
X582013Y192014D01*
X582097Y191961D01*
X582179Y191906D01*
X582258Y191847D01*
X582335Y191785D01*
X582410Y191721D01*
X582482Y191653D01*
X582551Y191582D01*
X582617Y191509D01*
X582681Y191433D01*
X582741Y191355D01*
X582798Y191274D01*
X582852Y191192D01*
X582902Y191107D01*
X582949Y191020D01*
X582993Y190931D01*
X583033Y190841D01*
X583070Y190749D01*
X583102Y190656D01*
X583131Y190562D01*
X583157Y190466D01*
X583178Y190370D01*
X583196Y190272D01*
X583209Y190175D01*
X583219Y190076D01*
X583225Y189978D01*
X583227Y189879D01*
X583226Y189879D02*
X583226Y187396D01*
X583227Y187396D02*
X583225Y187297D01*
X583219Y187199D01*
X583209Y187100D01*
X583196Y187003D01*
X583178Y186905D01*
X583157Y186809D01*
X583131Y186713D01*
X583102Y186619D01*
X583070Y186526D01*
X583033Y186434D01*
X582993Y186344D01*
X582949Y186255D01*
X582902Y186168D01*
X582852Y186083D01*
X582798Y186001D01*
X582741Y185920D01*
X582681Y185842D01*
X582617Y185766D01*
X582551Y185693D01*
X582482Y185622D01*
X582410Y185554D01*
X582335Y185490D01*
X582258Y185428D01*
X582179Y185369D01*
X582097Y185314D01*
X582013Y185261D01*
X581928Y185213D01*
X581840Y185167D01*
X581750Y185125D01*
X581659Y185087D01*
X581567Y185053D01*
X581473Y185022D01*
X581378Y184995D01*
X581282Y184971D01*
X581185Y184952D01*
X581088Y184936D01*
X580990Y184924D01*
X580891Y184916D01*
X580792Y184912D01*
X580694Y184912D01*
X580595Y184916D01*
X580496Y184924D01*
X580398Y184936D01*
X580301Y184952D01*
X580204Y184971D01*
X580108Y184995D01*
X580013Y185022D01*
X579919Y185053D01*
X579827Y185087D01*
X579736Y185125D01*
X579646Y185167D01*
X579558Y185213D01*
X579473Y185261D01*
X579389Y185314D01*
X579307Y185369D01*
X579228Y185428D01*
X579151Y185490D01*
X579076Y185554D01*
X579004Y185622D01*
X578935Y185693D01*
X578869Y185766D01*
X578805Y185842D01*
X578745Y185920D01*
X578688Y186001D01*
X578634Y186083D01*
X578584Y186168D01*
X578537Y186255D01*
X578493Y186344D01*
X578453Y186434D01*
X578416Y186526D01*
X578384Y186619D01*
X578355Y186713D01*
X578329Y186809D01*
X578308Y186905D01*
X578290Y187003D01*
X578277Y187100D01*
X578267Y187199D01*
X578261Y187297D01*
X578259Y187396D01*
X587735Y183049D02*
X587735Y192363D01*
X587735Y183049D02*
X587733Y182963D01*
X587727Y182877D01*
X587717Y182792D01*
X587703Y182707D01*
X587686Y182622D01*
X587664Y182539D01*
X587638Y182457D01*
X587609Y182376D01*
X587576Y182297D01*
X587540Y182219D01*
X587500Y182142D01*
X587456Y182068D01*
X587409Y181996D01*
X587359Y181926D01*
X587305Y181859D01*
X587249Y181794D01*
X587189Y181732D01*
X587127Y181672D01*
X587062Y181616D01*
X586995Y181562D01*
X586925Y181512D01*
X586853Y181465D01*
X586779Y181421D01*
X586702Y181381D01*
X586625Y181345D01*
X586545Y181312D01*
X586464Y181283D01*
X586382Y181257D01*
X586299Y181235D01*
X586214Y181218D01*
X586129Y181204D01*
X586044Y181194D01*
X585958Y181188D01*
X585872Y181186D01*
X585872Y181187D02*
X585251Y181187D01*
X587424Y195467D02*
X587424Y196088D01*
X588045Y196088D01*
X588045Y195467D01*
X587424Y195467D01*
X594600Y184912D02*
X597704Y184912D01*
X594600Y184912D02*
X594516Y184914D01*
X594433Y184919D01*
X594350Y184929D01*
X594267Y184942D01*
X594185Y184959D01*
X594104Y184979D01*
X594024Y185003D01*
X593945Y185031D01*
X593868Y185062D01*
X593792Y185096D01*
X593717Y185134D01*
X593644Y185176D01*
X593574Y185220D01*
X593505Y185268D01*
X593438Y185318D01*
X593374Y185372D01*
X593313Y185428D01*
X593253Y185488D01*
X593197Y185549D01*
X593143Y185613D01*
X593093Y185680D01*
X593045Y185749D01*
X593001Y185819D01*
X592959Y185892D01*
X592921Y185967D01*
X592887Y186043D01*
X592856Y186120D01*
X592828Y186199D01*
X592804Y186279D01*
X592784Y186360D01*
X592767Y186442D01*
X592754Y186525D01*
X592744Y186608D01*
X592739Y186691D01*
X592737Y186775D01*
X592737Y189879D01*
X592739Y189978D01*
X592745Y190076D01*
X592755Y190175D01*
X592768Y190272D01*
X592786Y190370D01*
X592807Y190466D01*
X592833Y190562D01*
X592862Y190656D01*
X592894Y190749D01*
X592931Y190841D01*
X592971Y190931D01*
X593015Y191020D01*
X593062Y191107D01*
X593112Y191192D01*
X593166Y191274D01*
X593223Y191355D01*
X593283Y191433D01*
X593347Y191509D01*
X593413Y191582D01*
X593482Y191653D01*
X593554Y191721D01*
X593629Y191785D01*
X593706Y191847D01*
X593785Y191906D01*
X593867Y191961D01*
X593951Y192014D01*
X594036Y192062D01*
X594124Y192108D01*
X594214Y192150D01*
X594305Y192188D01*
X594397Y192222D01*
X594491Y192253D01*
X594586Y192280D01*
X594682Y192304D01*
X594779Y192323D01*
X594876Y192339D01*
X594974Y192351D01*
X595073Y192359D01*
X595172Y192363D01*
X595270Y192363D01*
X595369Y192359D01*
X595468Y192351D01*
X595566Y192339D01*
X595663Y192323D01*
X595760Y192304D01*
X595856Y192280D01*
X595951Y192253D01*
X596045Y192222D01*
X596137Y192188D01*
X596228Y192150D01*
X596318Y192108D01*
X596406Y192062D01*
X596491Y192014D01*
X596575Y191961D01*
X596657Y191906D01*
X596736Y191847D01*
X596813Y191785D01*
X596888Y191721D01*
X596960Y191653D01*
X597029Y191582D01*
X597095Y191509D01*
X597159Y191433D01*
X597219Y191355D01*
X597276Y191274D01*
X597330Y191192D01*
X597380Y191107D01*
X597427Y191020D01*
X597471Y190931D01*
X597511Y190841D01*
X597548Y190749D01*
X597580Y190656D01*
X597609Y190562D01*
X597635Y190466D01*
X597656Y190370D01*
X597674Y190272D01*
X597687Y190175D01*
X597697Y190076D01*
X597703Y189978D01*
X597705Y189879D01*
X597704Y189879D02*
X597704Y188637D01*
X592737Y188637D01*
X604522Y184912D02*
X607006Y184912D01*
X604522Y184912D02*
X604438Y184914D01*
X604355Y184919D01*
X604272Y184929D01*
X604189Y184942D01*
X604107Y184959D01*
X604026Y184979D01*
X603946Y185003D01*
X603867Y185031D01*
X603790Y185062D01*
X603714Y185096D01*
X603639Y185134D01*
X603566Y185176D01*
X603496Y185220D01*
X603427Y185268D01*
X603360Y185318D01*
X603296Y185372D01*
X603235Y185428D01*
X603175Y185488D01*
X603119Y185549D01*
X603065Y185613D01*
X603015Y185680D01*
X602967Y185749D01*
X602923Y185819D01*
X602881Y185892D01*
X602843Y185967D01*
X602809Y186043D01*
X602778Y186120D01*
X602750Y186199D01*
X602726Y186279D01*
X602706Y186360D01*
X602689Y186442D01*
X602676Y186525D01*
X602666Y186608D01*
X602661Y186691D01*
X602659Y186775D01*
X602660Y186775D02*
X602660Y190500D01*
X602659Y190500D02*
X602661Y190584D01*
X602667Y190667D01*
X602676Y190750D01*
X602689Y190833D01*
X602706Y190915D01*
X602726Y190996D01*
X602750Y191076D01*
X602778Y191155D01*
X602809Y191232D01*
X602843Y191308D01*
X602881Y191383D01*
X602923Y191456D01*
X602967Y191526D01*
X603015Y191595D01*
X603065Y191662D01*
X603119Y191726D01*
X603175Y191787D01*
X603235Y191847D01*
X603296Y191903D01*
X603360Y191957D01*
X603427Y192007D01*
X603496Y192055D01*
X603566Y192099D01*
X603639Y192141D01*
X603714Y192179D01*
X603790Y192213D01*
X603867Y192244D01*
X603946Y192272D01*
X604026Y192296D01*
X604107Y192316D01*
X604189Y192333D01*
X604272Y192346D01*
X604355Y192356D01*
X604438Y192361D01*
X604522Y192363D01*
X607006Y192363D01*
X610388Y192363D02*
X614113Y192363D01*
X611629Y196088D02*
X611629Y186775D01*
X611631Y186691D01*
X611636Y186608D01*
X611646Y186525D01*
X611659Y186442D01*
X611676Y186360D01*
X611696Y186279D01*
X611720Y186199D01*
X611748Y186120D01*
X611779Y186043D01*
X611813Y185967D01*
X611851Y185892D01*
X611893Y185819D01*
X611937Y185749D01*
X611985Y185680D01*
X612035Y185613D01*
X612089Y185549D01*
X612145Y185488D01*
X612205Y185428D01*
X612266Y185372D01*
X612330Y185318D01*
X612397Y185268D01*
X612466Y185220D01*
X612536Y185176D01*
X612609Y185134D01*
X612684Y185096D01*
X612760Y185062D01*
X612837Y185031D01*
X612916Y185003D01*
X612996Y184979D01*
X613077Y184959D01*
X613159Y184942D01*
X613242Y184929D01*
X613325Y184919D01*
X613408Y184914D01*
X613492Y184912D01*
X614113Y184912D01*
X628297Y196088D02*
X628401Y196086D01*
X628506Y196080D01*
X628610Y196070D01*
X628713Y196057D01*
X628816Y196039D01*
X628919Y196018D01*
X629020Y195993D01*
X629121Y195964D01*
X629220Y195931D01*
X629318Y195895D01*
X629414Y195855D01*
X629509Y195811D01*
X629603Y195764D01*
X629694Y195714D01*
X629783Y195660D01*
X629871Y195603D01*
X629956Y195542D01*
X630039Y195478D01*
X630119Y195412D01*
X630197Y195342D01*
X630273Y195270D01*
X630345Y195194D01*
X630415Y195116D01*
X630481Y195036D01*
X630545Y194953D01*
X630606Y194868D01*
X630663Y194780D01*
X630717Y194691D01*
X630767Y194600D01*
X630814Y194506D01*
X630858Y194411D01*
X630898Y194315D01*
X630934Y194217D01*
X630967Y194118D01*
X630996Y194017D01*
X631021Y193916D01*
X631042Y193813D01*
X631060Y193710D01*
X631073Y193607D01*
X631083Y193503D01*
X631089Y193398D01*
X631091Y193294D01*
X628297Y196089D02*
X628178Y196087D01*
X628060Y196081D01*
X627941Y196071D01*
X627823Y196058D01*
X627706Y196040D01*
X627589Y196018D01*
X627473Y195993D01*
X627358Y195964D01*
X627243Y195931D01*
X627130Y195894D01*
X627019Y195854D01*
X626908Y195810D01*
X626800Y195762D01*
X626693Y195711D01*
X626587Y195656D01*
X626484Y195597D01*
X626382Y195536D01*
X626283Y195471D01*
X626185Y195402D01*
X626091Y195331D01*
X625998Y195256D01*
X625908Y195179D01*
X625821Y195098D01*
X625736Y195015D01*
X625654Y194929D01*
X625575Y194840D01*
X625499Y194749D01*
X625426Y194655D01*
X625357Y194559D01*
X625290Y194460D01*
X625227Y194360D01*
X625167Y194257D01*
X625110Y194153D01*
X625058Y194046D01*
X625008Y193938D01*
X624962Y193829D01*
X624920Y193717D01*
X624882Y193605D01*
X630160Y191121D02*
X630235Y191195D01*
X630307Y191272D01*
X630377Y191351D01*
X630444Y191433D01*
X630508Y191517D01*
X630569Y191603D01*
X630627Y191691D01*
X630682Y191782D01*
X630734Y191874D01*
X630782Y191968D01*
X630827Y192063D01*
X630869Y192161D01*
X630907Y192259D01*
X630942Y192359D01*
X630973Y192460D01*
X631000Y192562D01*
X631024Y192665D01*
X631045Y192768D01*
X631061Y192873D01*
X631074Y192978D01*
X631084Y193083D01*
X631089Y193188D01*
X631091Y193294D01*
X630160Y191121D02*
X624882Y184912D01*
X631091Y184912D01*
X642549Y189258D02*
X650000Y189258D01*
X661867Y184912D02*
X666834Y184912D01*
X661867Y184912D02*
X661867Y196088D01*
X666834Y196088D01*
X665593Y191121D02*
X661867Y191121D01*
X670983Y196088D02*
X677192Y196088D01*
X670983Y184912D01*
X677192Y184912D01*
X690570Y184912D02*
X693054Y184912D01*
X690570Y184912D02*
X690472Y184914D01*
X690375Y184920D01*
X690278Y184929D01*
X690181Y184943D01*
X690085Y184960D01*
X689990Y184981D01*
X689896Y185005D01*
X689802Y185034D01*
X689710Y185066D01*
X689619Y185101D01*
X689530Y185140D01*
X689442Y185183D01*
X689356Y185229D01*
X689272Y185278D01*
X689190Y185331D01*
X689110Y185386D01*
X689032Y185445D01*
X688957Y185507D01*
X688884Y185572D01*
X688814Y185640D01*
X688746Y185710D01*
X688681Y185783D01*
X688619Y185858D01*
X688560Y185936D01*
X688505Y186016D01*
X688452Y186098D01*
X688403Y186182D01*
X688357Y186268D01*
X688314Y186356D01*
X688275Y186445D01*
X688240Y186536D01*
X688208Y186628D01*
X688179Y186722D01*
X688155Y186816D01*
X688134Y186911D01*
X688117Y187007D01*
X688103Y187104D01*
X688094Y187201D01*
X688088Y187298D01*
X688086Y187396D01*
X688086Y193604D01*
X688088Y193702D01*
X688094Y193799D01*
X688103Y193896D01*
X688117Y193993D01*
X688134Y194089D01*
X688155Y194184D01*
X688179Y194278D01*
X688208Y194372D01*
X688240Y194464D01*
X688275Y194555D01*
X688314Y194644D01*
X688357Y194732D01*
X688403Y194818D01*
X688452Y194902D01*
X688505Y194984D01*
X688560Y195064D01*
X688619Y195142D01*
X688681Y195217D01*
X688746Y195290D01*
X688814Y195360D01*
X688884Y195428D01*
X688957Y195493D01*
X689032Y195555D01*
X689110Y195614D01*
X689190Y195669D01*
X689272Y195722D01*
X689356Y195771D01*
X689442Y195817D01*
X689530Y195860D01*
X689619Y195899D01*
X689710Y195934D01*
X689802Y195966D01*
X689896Y195995D01*
X689990Y196019D01*
X690085Y196040D01*
X690181Y196057D01*
X690278Y196071D01*
X690375Y196080D01*
X690472Y196086D01*
X690570Y196088D01*
X693054Y196088D01*
X697512Y189879D02*
X697512Y187396D01*
X697511Y189879D02*
X697513Y189978D01*
X697519Y190076D01*
X697529Y190175D01*
X697542Y190272D01*
X697560Y190370D01*
X697581Y190466D01*
X697607Y190562D01*
X697636Y190656D01*
X697668Y190749D01*
X697705Y190841D01*
X697745Y190931D01*
X697789Y191020D01*
X697836Y191107D01*
X697886Y191192D01*
X697940Y191274D01*
X697997Y191355D01*
X698057Y191433D01*
X698121Y191509D01*
X698187Y191582D01*
X698256Y191653D01*
X698328Y191721D01*
X698403Y191785D01*
X698480Y191847D01*
X698559Y191906D01*
X698641Y191961D01*
X698725Y192014D01*
X698810Y192062D01*
X698898Y192108D01*
X698988Y192150D01*
X699079Y192188D01*
X699171Y192222D01*
X699265Y192253D01*
X699360Y192280D01*
X699456Y192304D01*
X699553Y192323D01*
X699650Y192339D01*
X699748Y192351D01*
X699847Y192359D01*
X699946Y192363D01*
X700044Y192363D01*
X700143Y192359D01*
X700242Y192351D01*
X700340Y192339D01*
X700437Y192323D01*
X700534Y192304D01*
X700630Y192280D01*
X700725Y192253D01*
X700819Y192222D01*
X700911Y192188D01*
X701002Y192150D01*
X701092Y192108D01*
X701180Y192062D01*
X701265Y192014D01*
X701349Y191961D01*
X701431Y191906D01*
X701510Y191847D01*
X701587Y191785D01*
X701662Y191721D01*
X701734Y191653D01*
X701803Y191582D01*
X701869Y191509D01*
X701933Y191433D01*
X701993Y191355D01*
X702050Y191274D01*
X702104Y191192D01*
X702154Y191107D01*
X702201Y191020D01*
X702245Y190931D01*
X702285Y190841D01*
X702322Y190749D01*
X702354Y190656D01*
X702383Y190562D01*
X702409Y190466D01*
X702430Y190370D01*
X702448Y190272D01*
X702461Y190175D01*
X702471Y190076D01*
X702477Y189978D01*
X702479Y189879D01*
X702479Y187396D01*
X702477Y187297D01*
X702471Y187199D01*
X702461Y187100D01*
X702448Y187003D01*
X702430Y186905D01*
X702409Y186809D01*
X702383Y186713D01*
X702354Y186619D01*
X702322Y186526D01*
X702285Y186434D01*
X702245Y186344D01*
X702201Y186255D01*
X702154Y186168D01*
X702104Y186083D01*
X702050Y186001D01*
X701993Y185920D01*
X701933Y185842D01*
X701869Y185766D01*
X701803Y185693D01*
X701734Y185622D01*
X701662Y185554D01*
X701587Y185490D01*
X701510Y185428D01*
X701431Y185369D01*
X701349Y185314D01*
X701265Y185261D01*
X701180Y185213D01*
X701092Y185167D01*
X701002Y185125D01*
X700911Y185087D01*
X700819Y185053D01*
X700725Y185022D01*
X700630Y184995D01*
X700534Y184971D01*
X700437Y184952D01*
X700340Y184936D01*
X700242Y184924D01*
X700143Y184916D01*
X700044Y184912D01*
X699946Y184912D01*
X699847Y184916D01*
X699748Y184924D01*
X699650Y184936D01*
X699553Y184952D01*
X699456Y184971D01*
X699360Y184995D01*
X699265Y185022D01*
X699171Y185053D01*
X699079Y185087D01*
X698988Y185125D01*
X698898Y185167D01*
X698810Y185213D01*
X698725Y185261D01*
X698641Y185314D01*
X698559Y185369D01*
X698480Y185428D01*
X698403Y185490D01*
X698328Y185554D01*
X698256Y185622D01*
X698187Y185693D01*
X698121Y185766D01*
X698057Y185842D01*
X697997Y185920D01*
X697940Y186001D01*
X697886Y186083D01*
X697836Y186168D01*
X697789Y186255D01*
X697745Y186344D01*
X697705Y186434D01*
X697668Y186526D01*
X697636Y186619D01*
X697607Y186713D01*
X697581Y186809D01*
X697560Y186905D01*
X697542Y187003D01*
X697529Y187100D01*
X697519Y187199D01*
X697513Y187297D01*
X697511Y187396D01*
X707418Y187396D02*
X707418Y189879D01*
X707417Y189879D02*
X707419Y189978D01*
X707425Y190076D01*
X707435Y190175D01*
X707448Y190272D01*
X707466Y190370D01*
X707487Y190466D01*
X707513Y190562D01*
X707542Y190656D01*
X707574Y190749D01*
X707611Y190841D01*
X707651Y190931D01*
X707695Y191020D01*
X707742Y191107D01*
X707792Y191192D01*
X707846Y191274D01*
X707903Y191355D01*
X707963Y191433D01*
X708027Y191509D01*
X708093Y191582D01*
X708162Y191653D01*
X708234Y191721D01*
X708309Y191785D01*
X708386Y191847D01*
X708465Y191906D01*
X708547Y191961D01*
X708631Y192014D01*
X708716Y192062D01*
X708804Y192108D01*
X708894Y192150D01*
X708985Y192188D01*
X709077Y192222D01*
X709171Y192253D01*
X709266Y192280D01*
X709362Y192304D01*
X709459Y192323D01*
X709556Y192339D01*
X709654Y192351D01*
X709753Y192359D01*
X709852Y192363D01*
X709950Y192363D01*
X710049Y192359D01*
X710148Y192351D01*
X710246Y192339D01*
X710343Y192323D01*
X710440Y192304D01*
X710536Y192280D01*
X710631Y192253D01*
X710725Y192222D01*
X710817Y192188D01*
X710908Y192150D01*
X710998Y192108D01*
X711086Y192062D01*
X711171Y192014D01*
X711255Y191961D01*
X711337Y191906D01*
X711416Y191847D01*
X711493Y191785D01*
X711568Y191721D01*
X711640Y191653D01*
X711709Y191582D01*
X711775Y191509D01*
X711839Y191433D01*
X711899Y191355D01*
X711956Y191274D01*
X712010Y191192D01*
X712060Y191107D01*
X712107Y191020D01*
X712151Y190931D01*
X712191Y190841D01*
X712228Y190749D01*
X712260Y190656D01*
X712289Y190562D01*
X712315Y190466D01*
X712336Y190370D01*
X712354Y190272D01*
X712367Y190175D01*
X712377Y190076D01*
X712383Y189978D01*
X712385Y189879D01*
X712385Y187396D01*
X712383Y187297D01*
X712377Y187199D01*
X712367Y187100D01*
X712354Y187003D01*
X712336Y186905D01*
X712315Y186809D01*
X712289Y186713D01*
X712260Y186619D01*
X712228Y186526D01*
X712191Y186434D01*
X712151Y186344D01*
X712107Y186255D01*
X712060Y186168D01*
X712010Y186083D01*
X711956Y186001D01*
X711899Y185920D01*
X711839Y185842D01*
X711775Y185766D01*
X711709Y185693D01*
X711640Y185622D01*
X711568Y185554D01*
X711493Y185490D01*
X711416Y185428D01*
X711337Y185369D01*
X711255Y185314D01*
X711171Y185261D01*
X711086Y185213D01*
X710998Y185167D01*
X710908Y185125D01*
X710817Y185087D01*
X710725Y185053D01*
X710631Y185022D01*
X710536Y184995D01*
X710440Y184971D01*
X710343Y184952D01*
X710246Y184936D01*
X710148Y184924D01*
X710049Y184916D01*
X709950Y184912D01*
X709852Y184912D01*
X709753Y184916D01*
X709654Y184924D01*
X709556Y184936D01*
X709459Y184952D01*
X709362Y184971D01*
X709266Y184995D01*
X709171Y185022D01*
X709077Y185053D01*
X708985Y185087D01*
X708894Y185125D01*
X708804Y185167D01*
X708716Y185213D01*
X708631Y185261D01*
X708547Y185314D01*
X708465Y185369D01*
X708386Y185428D01*
X708309Y185490D01*
X708234Y185554D01*
X708162Y185622D01*
X708093Y185693D01*
X708027Y185766D01*
X707963Y185842D01*
X707903Y185920D01*
X707846Y186001D01*
X707792Y186083D01*
X707742Y186168D01*
X707695Y186255D01*
X707651Y186344D01*
X707611Y186434D01*
X707574Y186526D01*
X707542Y186619D01*
X707513Y186713D01*
X707487Y186809D01*
X707466Y186905D01*
X707448Y187003D01*
X707435Y187100D01*
X707425Y187199D01*
X707419Y187297D01*
X707417Y187396D01*
X717416Y186775D02*
X717416Y196088D01*
X717415Y186775D02*
X717417Y186691D01*
X717422Y186608D01*
X717432Y186525D01*
X717445Y186442D01*
X717462Y186360D01*
X717482Y186279D01*
X717506Y186199D01*
X717534Y186120D01*
X717565Y186043D01*
X717599Y185967D01*
X717637Y185892D01*
X717679Y185819D01*
X717723Y185749D01*
X717771Y185680D01*
X717821Y185613D01*
X717875Y185549D01*
X717931Y185488D01*
X717991Y185428D01*
X718052Y185372D01*
X718116Y185318D01*
X718183Y185268D01*
X718252Y185220D01*
X718322Y185176D01*
X718395Y185134D01*
X718470Y185096D01*
X718546Y185062D01*
X718623Y185031D01*
X718702Y185003D01*
X718782Y184979D01*
X718863Y184959D01*
X718945Y184942D01*
X719028Y184929D01*
X719111Y184919D01*
X719194Y184914D01*
X719278Y184912D01*
X559562Y177038D02*
X559562Y165862D01*
X559562Y177038D02*
X562666Y177038D01*
X562777Y177036D01*
X562887Y177030D01*
X562998Y177020D01*
X563108Y177006D01*
X563217Y176989D01*
X563326Y176967D01*
X563434Y176942D01*
X563540Y176912D01*
X563646Y176879D01*
X563751Y176842D01*
X563854Y176802D01*
X563955Y176757D01*
X564055Y176710D01*
X564154Y176658D01*
X564250Y176603D01*
X564344Y176545D01*
X564436Y176484D01*
X564526Y176419D01*
X564614Y176351D01*
X564699Y176280D01*
X564781Y176206D01*
X564861Y176129D01*
X564938Y176049D01*
X565012Y175967D01*
X565083Y175882D01*
X565151Y175794D01*
X565216Y175704D01*
X565277Y175612D01*
X565335Y175518D01*
X565390Y175422D01*
X565442Y175323D01*
X565489Y175223D01*
X565534Y175122D01*
X565574Y175019D01*
X565611Y174914D01*
X565644Y174808D01*
X565674Y174702D01*
X565699Y174594D01*
X565721Y174485D01*
X565738Y174376D01*
X565752Y174266D01*
X565762Y174155D01*
X565768Y174045D01*
X565770Y173934D01*
X565768Y173823D01*
X565762Y173713D01*
X565752Y173602D01*
X565738Y173492D01*
X565721Y173383D01*
X565699Y173274D01*
X565674Y173166D01*
X565644Y173060D01*
X565611Y172954D01*
X565574Y172849D01*
X565534Y172746D01*
X565489Y172645D01*
X565442Y172545D01*
X565390Y172446D01*
X565335Y172350D01*
X565277Y172256D01*
X565216Y172164D01*
X565151Y172074D01*
X565083Y171986D01*
X565012Y171901D01*
X564938Y171819D01*
X564861Y171739D01*
X564781Y171662D01*
X564699Y171588D01*
X564614Y171517D01*
X564526Y171449D01*
X564436Y171384D01*
X564344Y171323D01*
X564250Y171265D01*
X564154Y171210D01*
X564055Y171158D01*
X563955Y171111D01*
X563854Y171066D01*
X563751Y171026D01*
X563646Y170989D01*
X563540Y170956D01*
X563434Y170926D01*
X563326Y170901D01*
X563217Y170879D01*
X563108Y170862D01*
X562998Y170848D01*
X562887Y170838D01*
X562777Y170832D01*
X562666Y170830D01*
X562666Y170829D02*
X559562Y170829D01*
X563287Y170829D02*
X565771Y165862D01*
X571309Y165862D02*
X576276Y165862D01*
X571309Y165862D02*
X571309Y177038D01*
X576276Y177038D01*
X575035Y172071D02*
X571309Y172071D01*
X580185Y177038D02*
X583910Y165862D01*
X587636Y177038D01*
X591601Y166483D02*
X591601Y165862D01*
X591601Y166483D02*
X592222Y166483D01*
X592222Y165862D01*
X591601Y165862D01*
X602904Y174554D02*
X606008Y177038D01*
X606008Y165862D01*
X602904Y165862D02*
X609113Y165862D01*
X613699Y165862D02*
X613699Y166483D01*
X614320Y166483D01*
X614320Y165862D01*
X613699Y165862D01*
X618906Y171450D02*
X618909Y171670D01*
X618916Y171890D01*
X618930Y172109D01*
X618948Y172328D01*
X618972Y172547D01*
X619000Y172765D01*
X619034Y172982D01*
X619073Y173198D01*
X619118Y173414D01*
X619167Y173628D01*
X619222Y173841D01*
X619281Y174053D01*
X619346Y174263D01*
X619416Y174471D01*
X619490Y174678D01*
X619570Y174883D01*
X619654Y175086D01*
X619743Y175287D01*
X619837Y175486D01*
X619870Y175575D01*
X619906Y175663D01*
X619946Y175749D01*
X619989Y175834D01*
X620036Y175916D01*
X620087Y175997D01*
X620140Y176075D01*
X620197Y176151D01*
X620257Y176225D01*
X620320Y176296D01*
X620385Y176365D01*
X620454Y176431D01*
X620525Y176493D01*
X620599Y176553D01*
X620675Y176610D01*
X620753Y176664D01*
X620834Y176714D01*
X620916Y176761D01*
X621001Y176804D01*
X621087Y176844D01*
X621175Y176881D01*
X621264Y176913D01*
X621354Y176942D01*
X621446Y176968D01*
X621538Y176989D01*
X621632Y177007D01*
X621726Y177020D01*
X621820Y177030D01*
X621915Y177036D01*
X622010Y177038D01*
X622105Y177036D01*
X622200Y177030D01*
X622294Y177020D01*
X622388Y177007D01*
X622482Y176989D01*
X622574Y176968D01*
X622666Y176942D01*
X622756Y176913D01*
X622845Y176881D01*
X622933Y176844D01*
X623019Y176804D01*
X623104Y176761D01*
X623186Y176714D01*
X623267Y176664D01*
X623345Y176610D01*
X623421Y176553D01*
X623495Y176493D01*
X623566Y176431D01*
X623635Y176365D01*
X623700Y176296D01*
X623763Y176225D01*
X623823Y176151D01*
X623880Y176075D01*
X623933Y175997D01*
X623984Y175916D01*
X624031Y175833D01*
X624074Y175749D01*
X624114Y175663D01*
X624150Y175575D01*
X624183Y175486D01*
X624184Y175486D02*
X624278Y175287D01*
X624367Y175086D01*
X624451Y174883D01*
X624531Y174678D01*
X624605Y174471D01*
X624675Y174263D01*
X624740Y174053D01*
X624799Y173841D01*
X624854Y173628D01*
X624903Y173414D01*
X624948Y173198D01*
X624987Y172982D01*
X625021Y172765D01*
X625049Y172547D01*
X625073Y172328D01*
X625091Y172109D01*
X625105Y171890D01*
X625112Y171670D01*
X625115Y171450D01*
X618906Y171450D02*
X618909Y171230D01*
X618916Y171010D01*
X618930Y170791D01*
X618948Y170572D01*
X618972Y170353D01*
X619000Y170135D01*
X619034Y169918D01*
X619073Y169702D01*
X619118Y169486D01*
X619167Y169272D01*
X619222Y169059D01*
X619281Y168848D01*
X619346Y168637D01*
X619416Y168429D01*
X619490Y168222D01*
X619570Y168017D01*
X619654Y167814D01*
X619743Y167613D01*
X619837Y167414D01*
X619870Y167325D01*
X619906Y167237D01*
X619946Y167151D01*
X619989Y167066D01*
X620036Y166984D01*
X620087Y166903D01*
X620140Y166825D01*
X620197Y166749D01*
X620257Y166675D01*
X620320Y166604D01*
X620385Y166535D01*
X620454Y166469D01*
X620525Y166407D01*
X620599Y166347D01*
X620675Y166290D01*
X620753Y166236D01*
X620834Y166186D01*
X620916Y166139D01*
X621001Y166096D01*
X621087Y166056D01*
X621175Y166019D01*
X621264Y165987D01*
X621354Y165958D01*
X621446Y165932D01*
X621538Y165911D01*
X621632Y165893D01*
X621726Y165880D01*
X621820Y165870D01*
X621915Y165864D01*
X622010Y165862D01*
X624184Y167414D02*
X624278Y167613D01*
X624367Y167814D01*
X624451Y168017D01*
X624531Y168222D01*
X624605Y168429D01*
X624675Y168637D01*
X624740Y168847D01*
X624799Y169059D01*
X624854Y169272D01*
X624903Y169486D01*
X624948Y169702D01*
X624987Y169918D01*
X625021Y170135D01*
X625049Y170353D01*
X625073Y170572D01*
X625091Y170791D01*
X625105Y171010D01*
X625112Y171230D01*
X625115Y171450D01*
X624183Y167414D02*
X624150Y167325D01*
X624114Y167237D01*
X624074Y167151D01*
X624031Y167066D01*
X623984Y166984D01*
X623933Y166903D01*
X623880Y166825D01*
X623823Y166749D01*
X623763Y166675D01*
X623700Y166604D01*
X623635Y166535D01*
X623566Y166469D01*
X623495Y166407D01*
X623421Y166347D01*
X623345Y166290D01*
X623267Y166236D01*
X623186Y166186D01*
X623104Y166139D01*
X623019Y166096D01*
X622933Y166056D01*
X622845Y166019D01*
X622756Y165987D01*
X622666Y165958D01*
X622574Y165932D01*
X622482Y165911D01*
X622388Y165893D01*
X622294Y165880D01*
X622200Y165870D01*
X622105Y165864D01*
X622010Y165862D01*
X619527Y168346D02*
X624494Y174554D01*
X134112Y324612D02*
X134112Y335788D01*
X137216Y335788D01*
X137327Y335786D01*
X137437Y335780D01*
X137548Y335770D01*
X137658Y335756D01*
X137767Y335739D01*
X137876Y335717D01*
X137984Y335692D01*
X138090Y335662D01*
X138196Y335629D01*
X138301Y335592D01*
X138404Y335552D01*
X138505Y335507D01*
X138605Y335460D01*
X138704Y335408D01*
X138800Y335353D01*
X138894Y335295D01*
X138986Y335234D01*
X139076Y335169D01*
X139164Y335101D01*
X139249Y335030D01*
X139331Y334956D01*
X139411Y334879D01*
X139488Y334799D01*
X139562Y334717D01*
X139633Y334632D01*
X139701Y334544D01*
X139766Y334454D01*
X139827Y334362D01*
X139885Y334268D01*
X139940Y334172D01*
X139992Y334073D01*
X140039Y333973D01*
X140084Y333872D01*
X140124Y333769D01*
X140161Y333664D01*
X140194Y333558D01*
X140224Y333452D01*
X140249Y333344D01*
X140271Y333235D01*
X140288Y333126D01*
X140302Y333016D01*
X140312Y332905D01*
X140318Y332795D01*
X140320Y332684D01*
X140318Y332573D01*
X140312Y332463D01*
X140302Y332352D01*
X140288Y332242D01*
X140271Y332133D01*
X140249Y332024D01*
X140224Y331916D01*
X140194Y331810D01*
X140161Y331704D01*
X140124Y331599D01*
X140084Y331496D01*
X140039Y331395D01*
X139992Y331295D01*
X139940Y331196D01*
X139885Y331100D01*
X139827Y331006D01*
X139766Y330914D01*
X139701Y330824D01*
X139633Y330736D01*
X139562Y330651D01*
X139488Y330569D01*
X139411Y330489D01*
X139331Y330412D01*
X139249Y330338D01*
X139164Y330267D01*
X139076Y330199D01*
X138986Y330134D01*
X138894Y330073D01*
X138800Y330015D01*
X138704Y329960D01*
X138605Y329908D01*
X138505Y329861D01*
X138404Y329816D01*
X138301Y329776D01*
X138196Y329739D01*
X138090Y329706D01*
X137984Y329676D01*
X137876Y329651D01*
X137767Y329629D01*
X137658Y329612D01*
X137548Y329598D01*
X137437Y329588D01*
X137327Y329582D01*
X137216Y329580D01*
X137216Y329579D02*
X134112Y329579D01*
X144949Y327716D02*
X144949Y332684D01*
X144950Y332684D02*
X144952Y332795D01*
X144958Y332905D01*
X144968Y333016D01*
X144982Y333126D01*
X144999Y333235D01*
X145021Y333344D01*
X145046Y333452D01*
X145076Y333558D01*
X145109Y333664D01*
X145146Y333769D01*
X145186Y333872D01*
X145231Y333973D01*
X145278Y334073D01*
X145330Y334172D01*
X145385Y334268D01*
X145443Y334362D01*
X145504Y334454D01*
X145569Y334544D01*
X145637Y334632D01*
X145708Y334717D01*
X145782Y334799D01*
X145859Y334879D01*
X145939Y334956D01*
X146021Y335030D01*
X146106Y335101D01*
X146194Y335169D01*
X146284Y335234D01*
X146376Y335295D01*
X146470Y335353D01*
X146566Y335408D01*
X146665Y335460D01*
X146765Y335507D01*
X146866Y335552D01*
X146969Y335592D01*
X147074Y335629D01*
X147180Y335662D01*
X147286Y335692D01*
X147394Y335717D01*
X147503Y335739D01*
X147612Y335756D01*
X147722Y335770D01*
X147833Y335780D01*
X147943Y335786D01*
X148054Y335788D01*
X148165Y335786D01*
X148275Y335780D01*
X148386Y335770D01*
X148496Y335756D01*
X148605Y335739D01*
X148714Y335717D01*
X148822Y335692D01*
X148928Y335662D01*
X149034Y335629D01*
X149139Y335592D01*
X149242Y335552D01*
X149343Y335507D01*
X149443Y335460D01*
X149542Y335408D01*
X149638Y335353D01*
X149732Y335295D01*
X149824Y335234D01*
X149914Y335169D01*
X150002Y335101D01*
X150087Y335030D01*
X150169Y334956D01*
X150249Y334879D01*
X150326Y334799D01*
X150400Y334717D01*
X150471Y334632D01*
X150539Y334544D01*
X150604Y334454D01*
X150665Y334362D01*
X150723Y334268D01*
X150778Y334172D01*
X150830Y334073D01*
X150877Y333973D01*
X150922Y333872D01*
X150962Y333769D01*
X150999Y333664D01*
X151032Y333558D01*
X151062Y333452D01*
X151087Y333344D01*
X151109Y333235D01*
X151126Y333126D01*
X151140Y333016D01*
X151150Y332905D01*
X151156Y332795D01*
X151158Y332684D01*
X151158Y327716D01*
X151156Y327605D01*
X151150Y327495D01*
X151140Y327384D01*
X151126Y327274D01*
X151109Y327165D01*
X151087Y327056D01*
X151062Y326948D01*
X151032Y326842D01*
X150999Y326736D01*
X150962Y326631D01*
X150922Y326528D01*
X150877Y326427D01*
X150830Y326327D01*
X150778Y326228D01*
X150723Y326132D01*
X150665Y326038D01*
X150604Y325946D01*
X150539Y325856D01*
X150471Y325768D01*
X150400Y325683D01*
X150326Y325601D01*
X150249Y325521D01*
X150169Y325444D01*
X150087Y325370D01*
X150002Y325299D01*
X149914Y325231D01*
X149824Y325166D01*
X149732Y325105D01*
X149638Y325047D01*
X149542Y324992D01*
X149443Y324940D01*
X149343Y324893D01*
X149242Y324848D01*
X149139Y324808D01*
X149034Y324771D01*
X148928Y324738D01*
X148822Y324708D01*
X148714Y324683D01*
X148605Y324661D01*
X148496Y324644D01*
X148386Y324630D01*
X148275Y324620D01*
X148165Y324614D01*
X148054Y324612D01*
X147943Y324614D01*
X147833Y324620D01*
X147722Y324630D01*
X147612Y324644D01*
X147503Y324661D01*
X147394Y324683D01*
X147286Y324708D01*
X147180Y324738D01*
X147074Y324771D01*
X146969Y324808D01*
X146866Y324848D01*
X146765Y324893D01*
X146665Y324940D01*
X146566Y324992D01*
X146470Y325047D01*
X146376Y325105D01*
X146284Y325166D01*
X146194Y325231D01*
X146106Y325299D01*
X146021Y325370D01*
X145939Y325444D01*
X145859Y325521D01*
X145782Y325601D01*
X145708Y325683D01*
X145637Y325768D01*
X145569Y325856D01*
X145504Y325946D01*
X145443Y326038D01*
X145385Y326132D01*
X145330Y326228D01*
X145278Y326327D01*
X145231Y326427D01*
X145186Y326528D01*
X145146Y326631D01*
X145109Y326736D01*
X145076Y326842D01*
X145046Y326948D01*
X145021Y327056D01*
X144999Y327165D01*
X144982Y327274D01*
X144968Y327384D01*
X144958Y327495D01*
X144952Y327605D01*
X144950Y327716D01*
X156041Y335788D02*
X158524Y324612D01*
X161008Y332063D01*
X163491Y324612D01*
X165975Y335788D01*
X171267Y324612D02*
X176234Y324612D01*
X171267Y324612D02*
X171267Y335788D01*
X176234Y335788D01*
X174992Y330821D02*
X171267Y330821D01*
X181236Y335788D02*
X181236Y324612D01*
X181236Y335788D02*
X184341Y335788D01*
X184452Y335786D01*
X184562Y335780D01*
X184673Y335770D01*
X184783Y335756D01*
X184892Y335739D01*
X185001Y335717D01*
X185109Y335692D01*
X185215Y335662D01*
X185321Y335629D01*
X185426Y335592D01*
X185529Y335552D01*
X185630Y335507D01*
X185730Y335460D01*
X185829Y335408D01*
X185925Y335353D01*
X186019Y335295D01*
X186111Y335234D01*
X186201Y335169D01*
X186289Y335101D01*
X186374Y335030D01*
X186456Y334956D01*
X186536Y334879D01*
X186613Y334799D01*
X186687Y334717D01*
X186758Y334632D01*
X186826Y334544D01*
X186891Y334454D01*
X186952Y334362D01*
X187010Y334268D01*
X187065Y334172D01*
X187117Y334073D01*
X187164Y333973D01*
X187209Y333872D01*
X187249Y333769D01*
X187286Y333664D01*
X187319Y333558D01*
X187349Y333452D01*
X187374Y333344D01*
X187396Y333235D01*
X187413Y333126D01*
X187427Y333016D01*
X187437Y332905D01*
X187443Y332795D01*
X187445Y332684D01*
X187443Y332573D01*
X187437Y332463D01*
X187427Y332352D01*
X187413Y332242D01*
X187396Y332133D01*
X187374Y332024D01*
X187349Y331916D01*
X187319Y331810D01*
X187286Y331704D01*
X187249Y331599D01*
X187209Y331496D01*
X187164Y331395D01*
X187117Y331295D01*
X187065Y331196D01*
X187010Y331100D01*
X186952Y331006D01*
X186891Y330914D01*
X186826Y330824D01*
X186758Y330736D01*
X186687Y330651D01*
X186613Y330569D01*
X186536Y330489D01*
X186456Y330412D01*
X186374Y330338D01*
X186289Y330267D01*
X186201Y330199D01*
X186111Y330134D01*
X186019Y330073D01*
X185925Y330015D01*
X185829Y329960D01*
X185730Y329908D01*
X185630Y329861D01*
X185529Y329816D01*
X185426Y329776D01*
X185321Y329739D01*
X185215Y329706D01*
X185109Y329676D01*
X185001Y329651D01*
X184892Y329629D01*
X184783Y329612D01*
X184673Y329598D01*
X184562Y329588D01*
X184452Y329582D01*
X184341Y329580D01*
X184341Y329579D02*
X181236Y329579D01*
X184962Y329579D02*
X187445Y324612D01*
D11*
X199700Y26200D02*
X199697Y25958D01*
X199688Y25717D01*
X199674Y25476D01*
X199653Y25235D01*
X199627Y24995D01*
X199595Y24755D01*
X199557Y24516D01*
X199514Y24279D01*
X199464Y24042D01*
X199409Y23807D01*
X199349Y23573D01*
X199282Y23341D01*
X199211Y23110D01*
X199133Y22881D01*
X199050Y22654D01*
X198962Y22429D01*
X198868Y22206D01*
X198769Y21986D01*
X198664Y21768D01*
X198555Y21553D01*
X198440Y21340D01*
X198320Y21130D01*
X198195Y20924D01*
X198065Y20720D01*
X197930Y20519D01*
X197790Y20322D01*
X197646Y20128D01*
X197497Y19938D01*
X197343Y19752D01*
X197185Y19569D01*
X197023Y19390D01*
X196856Y19215D01*
X196685Y19044D01*
X196510Y18877D01*
X196331Y18715D01*
X196148Y18557D01*
X195962Y18403D01*
X195772Y18254D01*
X195578Y18110D01*
X195381Y17970D01*
X195180Y17835D01*
X194976Y17705D01*
X194770Y17580D01*
X194560Y17460D01*
X194347Y17345D01*
X194132Y17236D01*
X193914Y17131D01*
X193694Y17032D01*
X193471Y16938D01*
X193246Y16850D01*
X193019Y16767D01*
X192790Y16689D01*
X192559Y16618D01*
X192327Y16551D01*
X192093Y16491D01*
X191858Y16436D01*
X191621Y16386D01*
X191384Y16343D01*
X191145Y16305D01*
X190905Y16273D01*
X190665Y16247D01*
X190424Y16226D01*
X190183Y16212D01*
X189942Y16203D01*
X189700Y16200D01*
X89700Y16200D01*
X89458Y16203D01*
X89217Y16212D01*
X88976Y16226D01*
X88735Y16247D01*
X88495Y16273D01*
X88255Y16305D01*
X88016Y16343D01*
X87779Y16386D01*
X87542Y16436D01*
X87307Y16491D01*
X87073Y16551D01*
X86841Y16618D01*
X86610Y16689D01*
X86381Y16767D01*
X86154Y16850D01*
X85929Y16938D01*
X85706Y17032D01*
X85486Y17131D01*
X85268Y17236D01*
X85053Y17345D01*
X84840Y17460D01*
X84630Y17580D01*
X84424Y17705D01*
X84220Y17835D01*
X84019Y17970D01*
X83822Y18110D01*
X83628Y18254D01*
X83438Y18403D01*
X83252Y18557D01*
X83069Y18715D01*
X82890Y18877D01*
X82715Y19044D01*
X82544Y19215D01*
X82377Y19390D01*
X82215Y19569D01*
X82057Y19752D01*
X81903Y19938D01*
X81754Y20128D01*
X81610Y20322D01*
X81470Y20519D01*
X81335Y20720D01*
X81205Y20924D01*
X81080Y21130D01*
X80960Y21340D01*
X80845Y21553D01*
X80736Y21768D01*
X80631Y21986D01*
X80532Y22206D01*
X80438Y22429D01*
X80350Y22654D01*
X80267Y22881D01*
X80189Y23110D01*
X80118Y23341D01*
X80051Y23573D01*
X79991Y23807D01*
X79936Y24042D01*
X79886Y24279D01*
X79843Y24516D01*
X79805Y24755D01*
X79773Y24995D01*
X79747Y25235D01*
X79726Y25476D01*
X79712Y25717D01*
X79703Y25958D01*
X79700Y26200D01*
X79700Y126200D02*
X79703Y126442D01*
X79712Y126683D01*
X79726Y126924D01*
X79747Y127165D01*
X79773Y127405D01*
X79805Y127645D01*
X79843Y127884D01*
X79886Y128121D01*
X79936Y128358D01*
X79991Y128593D01*
X80051Y128827D01*
X80118Y129059D01*
X80189Y129290D01*
X80267Y129519D01*
X80350Y129746D01*
X80438Y129971D01*
X80532Y130194D01*
X80631Y130414D01*
X80736Y130632D01*
X80845Y130847D01*
X80960Y131060D01*
X81080Y131270D01*
X81205Y131476D01*
X81335Y131680D01*
X81470Y131881D01*
X81610Y132078D01*
X81754Y132272D01*
X81903Y132462D01*
X82057Y132648D01*
X82215Y132831D01*
X82377Y133010D01*
X82544Y133185D01*
X82715Y133356D01*
X82890Y133523D01*
X83069Y133685D01*
X83252Y133843D01*
X83438Y133997D01*
X83628Y134146D01*
X83822Y134290D01*
X84019Y134430D01*
X84220Y134565D01*
X84424Y134695D01*
X84630Y134820D01*
X84840Y134940D01*
X85053Y135055D01*
X85268Y135164D01*
X85486Y135269D01*
X85706Y135368D01*
X85929Y135462D01*
X86154Y135550D01*
X86381Y135633D01*
X86610Y135711D01*
X86841Y135782D01*
X87073Y135849D01*
X87307Y135909D01*
X87542Y135964D01*
X87779Y136014D01*
X88016Y136057D01*
X88255Y136095D01*
X88495Y136127D01*
X88735Y136153D01*
X88976Y136174D01*
X89217Y136188D01*
X89458Y136197D01*
X89700Y136200D01*
X189700Y136200D01*
X189942Y136197D01*
X190183Y136188D01*
X190424Y136174D01*
X190665Y136153D01*
X190905Y136127D01*
X191145Y136095D01*
X191384Y136057D01*
X191621Y136014D01*
X191858Y135964D01*
X192093Y135909D01*
X192327Y135849D01*
X192559Y135782D01*
X192790Y135711D01*
X193019Y135633D01*
X193246Y135550D01*
X193471Y135462D01*
X193694Y135368D01*
X193914Y135269D01*
X194132Y135164D01*
X194347Y135055D01*
X194560Y134940D01*
X194770Y134820D01*
X194976Y134695D01*
X195180Y134565D01*
X195381Y134430D01*
X195578Y134290D01*
X195772Y134146D01*
X195962Y133997D01*
X196148Y133843D01*
X196331Y133685D01*
X196510Y133523D01*
X196685Y133356D01*
X196856Y133185D01*
X197023Y133010D01*
X197185Y132831D01*
X197343Y132648D01*
X197497Y132462D01*
X197646Y132272D01*
X197790Y132078D01*
X197930Y131881D01*
X198065Y131680D01*
X198195Y131476D01*
X198320Y131270D01*
X198440Y131060D01*
X198555Y130847D01*
X198664Y130632D01*
X198769Y130414D01*
X198868Y130194D01*
X198962Y129971D01*
X199050Y129746D01*
X199133Y129519D01*
X199211Y129290D01*
X199282Y129059D01*
X199349Y128827D01*
X199409Y128593D01*
X199464Y128358D01*
X199514Y128121D01*
X199557Y127884D01*
X199595Y127645D01*
X199627Y127405D01*
X199653Y127165D01*
X199674Y126924D01*
X199688Y126683D01*
X199697Y126442D01*
X199700Y126200D01*
X104345Y76200D02*
X104356Y77068D01*
X104388Y77935D01*
X104441Y78801D01*
X104515Y79665D01*
X104611Y80528D01*
X104728Y81388D01*
X104866Y82244D01*
X105024Y83097D01*
X105204Y83946D01*
X105405Y84791D01*
X105626Y85630D01*
X105867Y86463D01*
X106129Y87290D01*
X106412Y88111D01*
X106714Y88924D01*
X107036Y89730D01*
X107378Y90527D01*
X107739Y91316D01*
X108120Y92096D01*
X108520Y92866D01*
X108938Y93626D01*
X109375Y94376D01*
X109830Y95115D01*
X110303Y95842D01*
X110794Y96558D01*
X111303Y97261D01*
X111828Y97952D01*
X112370Y98629D01*
X112929Y99293D01*
X113504Y99943D01*
X114094Y100579D01*
X114700Y101200D01*
X115321Y101806D01*
X115957Y102396D01*
X116607Y102971D01*
X117271Y103530D01*
X117948Y104072D01*
X118639Y104597D01*
X119342Y105106D01*
X120058Y105597D01*
X120785Y106070D01*
X121524Y106525D01*
X122274Y106962D01*
X123034Y107380D01*
X123804Y107780D01*
X124584Y108161D01*
X125373Y108522D01*
X126170Y108864D01*
X126976Y109186D01*
X127789Y109488D01*
X128610Y109771D01*
X129437Y110033D01*
X130270Y110274D01*
X131109Y110495D01*
X131954Y110696D01*
X132803Y110876D01*
X133656Y111034D01*
X134512Y111172D01*
X135372Y111289D01*
X136235Y111385D01*
X137099Y111459D01*
X137965Y111512D01*
X138832Y111544D01*
X139700Y111555D01*
X140568Y111544D01*
X141435Y111512D01*
X142301Y111459D01*
X143165Y111385D01*
X144028Y111289D01*
X144888Y111172D01*
X145744Y111034D01*
X146597Y110876D01*
X147446Y110696D01*
X148291Y110495D01*
X149130Y110274D01*
X149963Y110033D01*
X150790Y109771D01*
X151611Y109488D01*
X152424Y109186D01*
X153230Y108864D01*
X154027Y108522D01*
X154816Y108161D01*
X155596Y107780D01*
X156366Y107380D01*
X157126Y106962D01*
X157876Y106525D01*
X158615Y106070D01*
X159342Y105597D01*
X160058Y105106D01*
X160761Y104597D01*
X161452Y104072D01*
X162129Y103530D01*
X162793Y102971D01*
X163443Y102396D01*
X164079Y101806D01*
X164700Y101200D01*
X165306Y100579D01*
X165896Y99943D01*
X166471Y99293D01*
X167030Y98629D01*
X167572Y97952D01*
X168097Y97261D01*
X168606Y96558D01*
X169097Y95842D01*
X169570Y95115D01*
X170025Y94376D01*
X170462Y93626D01*
X170880Y92866D01*
X171280Y92096D01*
X171661Y91316D01*
X172022Y90527D01*
X172364Y89730D01*
X172686Y88924D01*
X172988Y88111D01*
X173271Y87290D01*
X173533Y86463D01*
X173774Y85630D01*
X173995Y84791D01*
X174196Y83946D01*
X174376Y83097D01*
X174534Y82244D01*
X174672Y81388D01*
X174789Y80528D01*
X174885Y79665D01*
X174959Y78801D01*
X175012Y77935D01*
X175044Y77068D01*
X175055Y76200D01*
X175044Y75332D01*
X175012Y74465D01*
X174959Y73599D01*
X174885Y72735D01*
X174789Y71872D01*
X174672Y71012D01*
X174534Y70156D01*
X174376Y69303D01*
X174196Y68454D01*
X173995Y67609D01*
X173774Y66770D01*
X173533Y65937D01*
X173271Y65110D01*
X172988Y64289D01*
X172686Y63476D01*
X172364Y62670D01*
X172022Y61873D01*
X171661Y61084D01*
X171280Y60304D01*
X170880Y59534D01*
X170462Y58774D01*
X170025Y58024D01*
X169570Y57285D01*
X169097Y56558D01*
X168606Y55842D01*
X168097Y55139D01*
X167572Y54448D01*
X167030Y53771D01*
X166471Y53107D01*
X165896Y52457D01*
X165306Y51821D01*
X164700Y51200D01*
X164079Y50594D01*
X163443Y50004D01*
X162793Y49429D01*
X162129Y48870D01*
X161452Y48328D01*
X160761Y47803D01*
X160058Y47294D01*
X159342Y46803D01*
X158615Y46330D01*
X157876Y45875D01*
X157126Y45438D01*
X156366Y45020D01*
X155596Y44620D01*
X154816Y44239D01*
X154027Y43878D01*
X153230Y43536D01*
X152424Y43214D01*
X151611Y42912D01*
X150790Y42629D01*
X149963Y42367D01*
X149130Y42126D01*
X148291Y41905D01*
X147446Y41704D01*
X146597Y41524D01*
X145744Y41366D01*
X144888Y41228D01*
X144028Y41111D01*
X143165Y41015D01*
X142301Y40941D01*
X141435Y40888D01*
X140568Y40856D01*
X139700Y40845D01*
X138832Y40856D01*
X137965Y40888D01*
X137099Y40941D01*
X136235Y41015D01*
X135372Y41111D01*
X134512Y41228D01*
X133656Y41366D01*
X132803Y41524D01*
X131954Y41704D01*
X131109Y41905D01*
X130270Y42126D01*
X129437Y42367D01*
X128610Y42629D01*
X127789Y42912D01*
X126976Y43214D01*
X126170Y43536D01*
X125373Y43878D01*
X124584Y44239D01*
X123804Y44620D01*
X123034Y45020D01*
X122274Y45438D01*
X121524Y45875D01*
X120785Y46330D01*
X120058Y46803D01*
X119342Y47294D01*
X118639Y47803D01*
X117948Y48328D01*
X117271Y48870D01*
X116607Y49429D01*
X115957Y50004D01*
X115321Y50594D01*
X114700Y51200D01*
X114094Y51821D01*
X113504Y52457D01*
X112929Y53107D01*
X112370Y53771D01*
X111828Y54448D01*
X111303Y55139D01*
X110794Y55842D01*
X110303Y56558D01*
X109830Y57285D01*
X109375Y58024D01*
X108938Y58774D01*
X108520Y59534D01*
X108120Y60304D01*
X107739Y61084D01*
X107378Y61873D01*
X107036Y62670D01*
X106714Y63476D01*
X106412Y64289D01*
X106129Y65110D01*
X105867Y65937D01*
X105626Y66770D01*
X105405Y67609D01*
X105204Y68454D01*
X105024Y69303D01*
X104866Y70156D01*
X104728Y71012D01*
X104611Y71872D01*
X104515Y72735D01*
X104441Y73599D01*
X104388Y74465D01*
X104356Y75332D01*
X104345Y76200D01*
X119700Y96200D02*
X159700Y96200D01*
X159700Y56200D01*
X119700Y56200D01*
X119700Y96200D01*
X79700Y113700D02*
X79700Y126200D01*
X79700Y88700D02*
X79700Y63700D01*
X79700Y38700D02*
X79700Y26200D01*
X199700Y113700D02*
X199700Y126200D01*
X199700Y88700D02*
X199700Y63700D01*
X199700Y38700D02*
X199700Y26200D01*
D10*
X45071Y136596D02*
X45069Y136498D01*
X45063Y136401D01*
X45054Y136304D01*
X45040Y136207D01*
X45023Y136111D01*
X45002Y136016D01*
X44978Y135922D01*
X44949Y135828D01*
X44917Y135736D01*
X44882Y135645D01*
X44843Y135556D01*
X44800Y135468D01*
X44754Y135382D01*
X44705Y135298D01*
X44652Y135216D01*
X44597Y135136D01*
X44538Y135058D01*
X44476Y134983D01*
X44411Y134910D01*
X44343Y134840D01*
X44273Y134772D01*
X44200Y134707D01*
X44125Y134645D01*
X44047Y134586D01*
X43967Y134531D01*
X43885Y134478D01*
X43801Y134429D01*
X43715Y134383D01*
X43627Y134340D01*
X43538Y134301D01*
X43447Y134266D01*
X43355Y134234D01*
X43261Y134205D01*
X43167Y134181D01*
X43072Y134160D01*
X42976Y134143D01*
X42879Y134129D01*
X42782Y134120D01*
X42684Y134114D01*
X42587Y134112D01*
X42444Y134114D01*
X42301Y134120D01*
X42159Y134129D01*
X42017Y134143D01*
X41875Y134161D01*
X41734Y134182D01*
X41593Y134207D01*
X41453Y134236D01*
X41314Y134269D01*
X41176Y134305D01*
X41039Y134346D01*
X40903Y134390D01*
X40768Y134437D01*
X40635Y134489D01*
X40503Y134544D01*
X40373Y134602D01*
X40244Y134664D01*
X40117Y134730D01*
X39992Y134799D01*
X39869Y134871D01*
X39748Y134947D01*
X39629Y135025D01*
X39512Y135108D01*
X39397Y135193D01*
X39285Y135281D01*
X39175Y135373D01*
X39068Y135467D01*
X38963Y135564D01*
X38861Y135664D01*
X39172Y142804D02*
X39174Y142902D01*
X39180Y142999D01*
X39189Y143096D01*
X39203Y143193D01*
X39220Y143289D01*
X39241Y143384D01*
X39265Y143478D01*
X39294Y143572D01*
X39326Y143664D01*
X39361Y143755D01*
X39400Y143844D01*
X39443Y143932D01*
X39489Y144018D01*
X39538Y144102D01*
X39591Y144184D01*
X39646Y144264D01*
X39705Y144342D01*
X39767Y144417D01*
X39832Y144490D01*
X39900Y144560D01*
X39970Y144628D01*
X40043Y144693D01*
X40118Y144755D01*
X40196Y144814D01*
X40276Y144869D01*
X40358Y144922D01*
X40442Y144971D01*
X40528Y145017D01*
X40616Y145060D01*
X40705Y145099D01*
X40796Y145134D01*
X40888Y145166D01*
X40982Y145195D01*
X41076Y145219D01*
X41171Y145240D01*
X41267Y145257D01*
X41364Y145271D01*
X41461Y145280D01*
X41558Y145286D01*
X41656Y145288D01*
X41786Y145286D01*
X41916Y145281D01*
X42046Y145272D01*
X42176Y145259D01*
X42305Y145243D01*
X42434Y145223D01*
X42562Y145199D01*
X42690Y145172D01*
X42816Y145141D01*
X42942Y145107D01*
X43067Y145069D01*
X43190Y145028D01*
X43313Y144983D01*
X43434Y144935D01*
X43554Y144884D01*
X43672Y144829D01*
X43788Y144771D01*
X43903Y144710D01*
X44017Y144645D01*
X44128Y144578D01*
X44237Y144507D01*
X44345Y144433D01*
X44450Y144357D01*
X40415Y140631D02*
X40332Y140682D01*
X40251Y140736D01*
X40173Y140793D01*
X40097Y140853D01*
X40023Y140916D01*
X39952Y140982D01*
X39883Y141050D01*
X39817Y141121D01*
X39753Y141194D01*
X39693Y141270D01*
X39636Y141348D01*
X39581Y141429D01*
X39530Y141511D01*
X39482Y141595D01*
X39437Y141681D01*
X39395Y141769D01*
X39357Y141858D01*
X39323Y141948D01*
X39291Y142040D01*
X39264Y142133D01*
X39240Y142227D01*
X39219Y142322D01*
X39203Y142418D01*
X39190Y142514D01*
X39180Y142610D01*
X39175Y142707D01*
X39173Y142804D01*
X43828Y138769D02*
X43911Y138718D01*
X43992Y138664D01*
X44070Y138607D01*
X44146Y138547D01*
X44220Y138484D01*
X44291Y138418D01*
X44360Y138350D01*
X44426Y138279D01*
X44490Y138206D01*
X44550Y138130D01*
X44607Y138052D01*
X44662Y137971D01*
X44713Y137889D01*
X44761Y137805D01*
X44806Y137719D01*
X44848Y137631D01*
X44886Y137542D01*
X44920Y137452D01*
X44952Y137360D01*
X44979Y137267D01*
X45003Y137173D01*
X45024Y137078D01*
X45040Y136982D01*
X45053Y136886D01*
X45063Y136790D01*
X45068Y136693D01*
X45070Y136596D01*
X43829Y138769D02*
X40414Y140631D01*
X49572Y145288D02*
X52056Y134112D01*
X54539Y141563D01*
X57023Y134112D01*
X59507Y145288D01*
X64389Y142804D02*
X67493Y145288D01*
X67493Y134112D01*
X64389Y134112D02*
X70598Y134112D01*
D11*
X405600Y16200D02*
X405842Y16203D01*
X406083Y16212D01*
X406324Y16226D01*
X406565Y16247D01*
X406805Y16273D01*
X407045Y16305D01*
X407284Y16343D01*
X407521Y16386D01*
X407758Y16436D01*
X407993Y16491D01*
X408227Y16551D01*
X408459Y16618D01*
X408690Y16689D01*
X408919Y16767D01*
X409146Y16850D01*
X409371Y16938D01*
X409594Y17032D01*
X409814Y17131D01*
X410032Y17236D01*
X410247Y17345D01*
X410460Y17460D01*
X410670Y17580D01*
X410876Y17705D01*
X411080Y17835D01*
X411281Y17970D01*
X411478Y18110D01*
X411672Y18254D01*
X411862Y18403D01*
X412048Y18557D01*
X412231Y18715D01*
X412410Y18877D01*
X412585Y19044D01*
X412756Y19215D01*
X412923Y19390D01*
X413085Y19569D01*
X413243Y19752D01*
X413397Y19938D01*
X413546Y20128D01*
X413690Y20322D01*
X413830Y20519D01*
X413965Y20720D01*
X414095Y20924D01*
X414220Y21130D01*
X414340Y21340D01*
X414455Y21553D01*
X414564Y21768D01*
X414669Y21986D01*
X414768Y22206D01*
X414862Y22429D01*
X414950Y22654D01*
X415033Y22881D01*
X415111Y23110D01*
X415182Y23341D01*
X415249Y23573D01*
X415309Y23807D01*
X415364Y24042D01*
X415414Y24279D01*
X415457Y24516D01*
X415495Y24755D01*
X415527Y24995D01*
X415553Y25235D01*
X415574Y25476D01*
X415588Y25717D01*
X415597Y25958D01*
X415600Y26200D01*
X405600Y16200D02*
X305600Y16200D01*
X305358Y16203D01*
X305117Y16212D01*
X304876Y16226D01*
X304635Y16247D01*
X304395Y16273D01*
X304155Y16305D01*
X303916Y16343D01*
X303679Y16386D01*
X303442Y16436D01*
X303207Y16491D01*
X302973Y16551D01*
X302741Y16618D01*
X302510Y16689D01*
X302281Y16767D01*
X302054Y16850D01*
X301829Y16938D01*
X301606Y17032D01*
X301386Y17131D01*
X301168Y17236D01*
X300953Y17345D01*
X300740Y17460D01*
X300530Y17580D01*
X300324Y17705D01*
X300120Y17835D01*
X299919Y17970D01*
X299722Y18110D01*
X299528Y18254D01*
X299338Y18403D01*
X299152Y18557D01*
X298969Y18715D01*
X298790Y18877D01*
X298615Y19044D01*
X298444Y19215D01*
X298277Y19390D01*
X298115Y19569D01*
X297957Y19752D01*
X297803Y19938D01*
X297654Y20128D01*
X297510Y20322D01*
X297370Y20519D01*
X297235Y20720D01*
X297105Y20924D01*
X296980Y21130D01*
X296860Y21340D01*
X296745Y21553D01*
X296636Y21768D01*
X296531Y21986D01*
X296432Y22206D01*
X296338Y22429D01*
X296250Y22654D01*
X296167Y22881D01*
X296089Y23110D01*
X296018Y23341D01*
X295951Y23573D01*
X295891Y23807D01*
X295836Y24042D01*
X295786Y24279D01*
X295743Y24516D01*
X295705Y24755D01*
X295673Y24995D01*
X295647Y25235D01*
X295626Y25476D01*
X295612Y25717D01*
X295603Y25958D01*
X295600Y26200D01*
X295600Y126200D02*
X295603Y126442D01*
X295612Y126683D01*
X295626Y126924D01*
X295647Y127165D01*
X295673Y127405D01*
X295705Y127645D01*
X295743Y127884D01*
X295786Y128121D01*
X295836Y128358D01*
X295891Y128593D01*
X295951Y128827D01*
X296018Y129059D01*
X296089Y129290D01*
X296167Y129519D01*
X296250Y129746D01*
X296338Y129971D01*
X296432Y130194D01*
X296531Y130414D01*
X296636Y130632D01*
X296745Y130847D01*
X296860Y131060D01*
X296980Y131270D01*
X297105Y131476D01*
X297235Y131680D01*
X297370Y131881D01*
X297510Y132078D01*
X297654Y132272D01*
X297803Y132462D01*
X297957Y132648D01*
X298115Y132831D01*
X298277Y133010D01*
X298444Y133185D01*
X298615Y133356D01*
X298790Y133523D01*
X298969Y133685D01*
X299152Y133843D01*
X299338Y133997D01*
X299528Y134146D01*
X299722Y134290D01*
X299919Y134430D01*
X300120Y134565D01*
X300324Y134695D01*
X300530Y134820D01*
X300740Y134940D01*
X300953Y135055D01*
X301168Y135164D01*
X301386Y135269D01*
X301606Y135368D01*
X301829Y135462D01*
X302054Y135550D01*
X302281Y135633D01*
X302510Y135711D01*
X302741Y135782D01*
X302973Y135849D01*
X303207Y135909D01*
X303442Y135964D01*
X303679Y136014D01*
X303916Y136057D01*
X304155Y136095D01*
X304395Y136127D01*
X304635Y136153D01*
X304876Y136174D01*
X305117Y136188D01*
X305358Y136197D01*
X305600Y136200D01*
X405600Y136200D01*
X405842Y136197D01*
X406083Y136188D01*
X406324Y136174D01*
X406565Y136153D01*
X406805Y136127D01*
X407045Y136095D01*
X407284Y136057D01*
X407521Y136014D01*
X407758Y135964D01*
X407993Y135909D01*
X408227Y135849D01*
X408459Y135782D01*
X408690Y135711D01*
X408919Y135633D01*
X409146Y135550D01*
X409371Y135462D01*
X409594Y135368D01*
X409814Y135269D01*
X410032Y135164D01*
X410247Y135055D01*
X410460Y134940D01*
X410670Y134820D01*
X410876Y134695D01*
X411080Y134565D01*
X411281Y134430D01*
X411478Y134290D01*
X411672Y134146D01*
X411862Y133997D01*
X412048Y133843D01*
X412231Y133685D01*
X412410Y133523D01*
X412585Y133356D01*
X412756Y133185D01*
X412923Y133010D01*
X413085Y132831D01*
X413243Y132648D01*
X413397Y132462D01*
X413546Y132272D01*
X413690Y132078D01*
X413830Y131881D01*
X413965Y131680D01*
X414095Y131476D01*
X414220Y131270D01*
X414340Y131060D01*
X414455Y130847D01*
X414564Y130632D01*
X414669Y130414D01*
X414768Y130194D01*
X414862Y129971D01*
X414950Y129746D01*
X415033Y129519D01*
X415111Y129290D01*
X415182Y129059D01*
X415249Y128827D01*
X415309Y128593D01*
X415364Y128358D01*
X415414Y128121D01*
X415457Y127884D01*
X415495Y127645D01*
X415527Y127405D01*
X415553Y127165D01*
X415574Y126924D01*
X415588Y126683D01*
X415597Y126442D01*
X415600Y126200D01*
X320245Y76200D02*
X320256Y77068D01*
X320288Y77935D01*
X320341Y78801D01*
X320415Y79665D01*
X320511Y80528D01*
X320628Y81388D01*
X320766Y82244D01*
X320924Y83097D01*
X321104Y83946D01*
X321305Y84791D01*
X321526Y85630D01*
X321767Y86463D01*
X322029Y87290D01*
X322312Y88111D01*
X322614Y88924D01*
X322936Y89730D01*
X323278Y90527D01*
X323639Y91316D01*
X324020Y92096D01*
X324420Y92866D01*
X324838Y93626D01*
X325275Y94376D01*
X325730Y95115D01*
X326203Y95842D01*
X326694Y96558D01*
X327203Y97261D01*
X327728Y97952D01*
X328270Y98629D01*
X328829Y99293D01*
X329404Y99943D01*
X329994Y100579D01*
X330600Y101200D01*
X331221Y101806D01*
X331857Y102396D01*
X332507Y102971D01*
X333171Y103530D01*
X333848Y104072D01*
X334539Y104597D01*
X335242Y105106D01*
X335958Y105597D01*
X336685Y106070D01*
X337424Y106525D01*
X338174Y106962D01*
X338934Y107380D01*
X339704Y107780D01*
X340484Y108161D01*
X341273Y108522D01*
X342070Y108864D01*
X342876Y109186D01*
X343689Y109488D01*
X344510Y109771D01*
X345337Y110033D01*
X346170Y110274D01*
X347009Y110495D01*
X347854Y110696D01*
X348703Y110876D01*
X349556Y111034D01*
X350412Y111172D01*
X351272Y111289D01*
X352135Y111385D01*
X352999Y111459D01*
X353865Y111512D01*
X354732Y111544D01*
X355600Y111555D01*
X356468Y111544D01*
X357335Y111512D01*
X358201Y111459D01*
X359065Y111385D01*
X359928Y111289D01*
X360788Y111172D01*
X361644Y111034D01*
X362497Y110876D01*
X363346Y110696D01*
X364191Y110495D01*
X365030Y110274D01*
X365863Y110033D01*
X366690Y109771D01*
X367511Y109488D01*
X368324Y109186D01*
X369130Y108864D01*
X369927Y108522D01*
X370716Y108161D01*
X371496Y107780D01*
X372266Y107380D01*
X373026Y106962D01*
X373776Y106525D01*
X374515Y106070D01*
X375242Y105597D01*
X375958Y105106D01*
X376661Y104597D01*
X377352Y104072D01*
X378029Y103530D01*
X378693Y102971D01*
X379343Y102396D01*
X379979Y101806D01*
X380600Y101200D01*
X381206Y100579D01*
X381796Y99943D01*
X382371Y99293D01*
X382930Y98629D01*
X383472Y97952D01*
X383997Y97261D01*
X384506Y96558D01*
X384997Y95842D01*
X385470Y95115D01*
X385925Y94376D01*
X386362Y93626D01*
X386780Y92866D01*
X387180Y92096D01*
X387561Y91316D01*
X387922Y90527D01*
X388264Y89730D01*
X388586Y88924D01*
X388888Y88111D01*
X389171Y87290D01*
X389433Y86463D01*
X389674Y85630D01*
X389895Y84791D01*
X390096Y83946D01*
X390276Y83097D01*
X390434Y82244D01*
X390572Y81388D01*
X390689Y80528D01*
X390785Y79665D01*
X390859Y78801D01*
X390912Y77935D01*
X390944Y77068D01*
X390955Y76200D01*
X390944Y75332D01*
X390912Y74465D01*
X390859Y73599D01*
X390785Y72735D01*
X390689Y71872D01*
X390572Y71012D01*
X390434Y70156D01*
X390276Y69303D01*
X390096Y68454D01*
X389895Y67609D01*
X389674Y66770D01*
X389433Y65937D01*
X389171Y65110D01*
X388888Y64289D01*
X388586Y63476D01*
X388264Y62670D01*
X387922Y61873D01*
X387561Y61084D01*
X387180Y60304D01*
X386780Y59534D01*
X386362Y58774D01*
X385925Y58024D01*
X385470Y57285D01*
X384997Y56558D01*
X384506Y55842D01*
X383997Y55139D01*
X383472Y54448D01*
X382930Y53771D01*
X382371Y53107D01*
X381796Y52457D01*
X381206Y51821D01*
X380600Y51200D01*
X379979Y50594D01*
X379343Y50004D01*
X378693Y49429D01*
X378029Y48870D01*
X377352Y48328D01*
X376661Y47803D01*
X375958Y47294D01*
X375242Y46803D01*
X374515Y46330D01*
X373776Y45875D01*
X373026Y45438D01*
X372266Y45020D01*
X371496Y44620D01*
X370716Y44239D01*
X369927Y43878D01*
X369130Y43536D01*
X368324Y43214D01*
X367511Y42912D01*
X366690Y42629D01*
X365863Y42367D01*
X365030Y42126D01*
X364191Y41905D01*
X363346Y41704D01*
X362497Y41524D01*
X361644Y41366D01*
X360788Y41228D01*
X359928Y41111D01*
X359065Y41015D01*
X358201Y40941D01*
X357335Y40888D01*
X356468Y40856D01*
X355600Y40845D01*
X354732Y40856D01*
X353865Y40888D01*
X352999Y40941D01*
X352135Y41015D01*
X351272Y41111D01*
X350412Y41228D01*
X349556Y41366D01*
X348703Y41524D01*
X347854Y41704D01*
X347009Y41905D01*
X346170Y42126D01*
X345337Y42367D01*
X344510Y42629D01*
X343689Y42912D01*
X342876Y43214D01*
X342070Y43536D01*
X341273Y43878D01*
X340484Y44239D01*
X339704Y44620D01*
X338934Y45020D01*
X338174Y45438D01*
X337424Y45875D01*
X336685Y46330D01*
X335958Y46803D01*
X335242Y47294D01*
X334539Y47803D01*
X333848Y48328D01*
X333171Y48870D01*
X332507Y49429D01*
X331857Y50004D01*
X331221Y50594D01*
X330600Y51200D01*
X329994Y51821D01*
X329404Y52457D01*
X328829Y53107D01*
X328270Y53771D01*
X327728Y54448D01*
X327203Y55139D01*
X326694Y55842D01*
X326203Y56558D01*
X325730Y57285D01*
X325275Y58024D01*
X324838Y58774D01*
X324420Y59534D01*
X324020Y60304D01*
X323639Y61084D01*
X323278Y61873D01*
X322936Y62670D01*
X322614Y63476D01*
X322312Y64289D01*
X322029Y65110D01*
X321767Y65937D01*
X321526Y66770D01*
X321305Y67609D01*
X321104Y68454D01*
X320924Y69303D01*
X320766Y70156D01*
X320628Y71012D01*
X320511Y71872D01*
X320415Y72735D01*
X320341Y73599D01*
X320288Y74465D01*
X320256Y75332D01*
X320245Y76200D01*
X335600Y96200D02*
X375600Y96200D01*
X375600Y56200D01*
X335600Y56200D01*
X335600Y96200D01*
X295600Y113700D02*
X295600Y126200D01*
X295600Y88700D02*
X295600Y63700D01*
X295600Y38700D02*
X295600Y26200D01*
X415600Y113700D02*
X415600Y126200D01*
X415600Y88700D02*
X415600Y63700D01*
X415600Y38700D02*
X415600Y26200D01*
D10*
X260971Y130246D02*
X260969Y130148D01*
X260963Y130051D01*
X260954Y129954D01*
X260940Y129857D01*
X260923Y129761D01*
X260902Y129666D01*
X260878Y129572D01*
X260849Y129478D01*
X260817Y129386D01*
X260782Y129295D01*
X260743Y129206D01*
X260700Y129118D01*
X260654Y129032D01*
X260605Y128948D01*
X260552Y128866D01*
X260497Y128786D01*
X260438Y128708D01*
X260376Y128633D01*
X260311Y128560D01*
X260243Y128490D01*
X260173Y128422D01*
X260100Y128357D01*
X260025Y128295D01*
X259947Y128236D01*
X259867Y128181D01*
X259785Y128128D01*
X259701Y128079D01*
X259615Y128033D01*
X259527Y127990D01*
X259438Y127951D01*
X259347Y127916D01*
X259255Y127884D01*
X259161Y127855D01*
X259067Y127831D01*
X258972Y127810D01*
X258876Y127793D01*
X258779Y127779D01*
X258682Y127770D01*
X258584Y127764D01*
X258487Y127762D01*
X258344Y127764D01*
X258201Y127770D01*
X258059Y127779D01*
X257917Y127793D01*
X257775Y127811D01*
X257634Y127832D01*
X257493Y127857D01*
X257353Y127886D01*
X257214Y127919D01*
X257076Y127955D01*
X256939Y127996D01*
X256803Y128040D01*
X256668Y128087D01*
X256535Y128139D01*
X256403Y128194D01*
X256273Y128252D01*
X256144Y128314D01*
X256017Y128380D01*
X255892Y128449D01*
X255769Y128521D01*
X255648Y128597D01*
X255529Y128675D01*
X255412Y128758D01*
X255297Y128843D01*
X255185Y128931D01*
X255075Y129023D01*
X254968Y129117D01*
X254863Y129214D01*
X254761Y129314D01*
X255072Y136454D02*
X255074Y136552D01*
X255080Y136649D01*
X255089Y136746D01*
X255103Y136843D01*
X255120Y136939D01*
X255141Y137034D01*
X255165Y137128D01*
X255194Y137222D01*
X255226Y137314D01*
X255261Y137405D01*
X255300Y137494D01*
X255343Y137582D01*
X255389Y137668D01*
X255438Y137752D01*
X255491Y137834D01*
X255546Y137914D01*
X255605Y137992D01*
X255667Y138067D01*
X255732Y138140D01*
X255800Y138210D01*
X255870Y138278D01*
X255943Y138343D01*
X256018Y138405D01*
X256096Y138464D01*
X256176Y138519D01*
X256258Y138572D01*
X256342Y138621D01*
X256428Y138667D01*
X256516Y138710D01*
X256605Y138749D01*
X256696Y138784D01*
X256788Y138816D01*
X256882Y138845D01*
X256976Y138869D01*
X257071Y138890D01*
X257167Y138907D01*
X257264Y138921D01*
X257361Y138930D01*
X257458Y138936D01*
X257556Y138938D01*
X257686Y138936D01*
X257816Y138931D01*
X257946Y138922D01*
X258076Y138909D01*
X258205Y138893D01*
X258334Y138873D01*
X258462Y138849D01*
X258590Y138822D01*
X258716Y138791D01*
X258842Y138757D01*
X258967Y138719D01*
X259090Y138678D01*
X259213Y138633D01*
X259334Y138585D01*
X259454Y138534D01*
X259572Y138479D01*
X259688Y138421D01*
X259803Y138360D01*
X259917Y138295D01*
X260028Y138228D01*
X260137Y138157D01*
X260245Y138083D01*
X260350Y138007D01*
X256315Y134281D02*
X256232Y134332D01*
X256151Y134386D01*
X256073Y134443D01*
X255997Y134503D01*
X255923Y134566D01*
X255852Y134632D01*
X255783Y134700D01*
X255717Y134771D01*
X255653Y134844D01*
X255593Y134920D01*
X255536Y134998D01*
X255481Y135079D01*
X255430Y135161D01*
X255382Y135245D01*
X255337Y135331D01*
X255295Y135419D01*
X255257Y135508D01*
X255223Y135598D01*
X255191Y135690D01*
X255164Y135783D01*
X255140Y135877D01*
X255119Y135972D01*
X255103Y136068D01*
X255090Y136164D01*
X255080Y136260D01*
X255075Y136357D01*
X255073Y136454D01*
X259728Y132419D02*
X259811Y132368D01*
X259892Y132314D01*
X259970Y132257D01*
X260046Y132197D01*
X260120Y132134D01*
X260191Y132068D01*
X260260Y132000D01*
X260326Y131929D01*
X260390Y131856D01*
X260450Y131780D01*
X260507Y131702D01*
X260562Y131621D01*
X260613Y131539D01*
X260661Y131455D01*
X260706Y131369D01*
X260748Y131281D01*
X260786Y131192D01*
X260820Y131102D01*
X260852Y131010D01*
X260879Y130917D01*
X260903Y130823D01*
X260924Y130728D01*
X260940Y130632D01*
X260953Y130536D01*
X260963Y130440D01*
X260968Y130343D01*
X260970Y130246D01*
X259729Y132419D02*
X256314Y134281D01*
X265472Y138938D02*
X267956Y127762D01*
X270439Y135213D01*
X272923Y127762D01*
X275407Y138938D01*
X283704Y138938D02*
X283808Y138936D01*
X283913Y138930D01*
X284017Y138920D01*
X284120Y138907D01*
X284223Y138889D01*
X284326Y138868D01*
X284427Y138843D01*
X284528Y138814D01*
X284627Y138781D01*
X284725Y138745D01*
X284821Y138705D01*
X284916Y138661D01*
X285010Y138614D01*
X285101Y138564D01*
X285190Y138510D01*
X285278Y138453D01*
X285363Y138392D01*
X285446Y138328D01*
X285526Y138262D01*
X285604Y138192D01*
X285680Y138120D01*
X285752Y138044D01*
X285822Y137966D01*
X285888Y137886D01*
X285952Y137803D01*
X286013Y137718D01*
X286070Y137630D01*
X286124Y137541D01*
X286174Y137450D01*
X286221Y137356D01*
X286265Y137261D01*
X286305Y137165D01*
X286341Y137067D01*
X286374Y136968D01*
X286403Y136867D01*
X286428Y136766D01*
X286449Y136663D01*
X286467Y136560D01*
X286480Y136457D01*
X286490Y136353D01*
X286496Y136248D01*
X286498Y136144D01*
X283704Y138939D02*
X283585Y138937D01*
X283467Y138931D01*
X283348Y138921D01*
X283230Y138908D01*
X283113Y138890D01*
X282996Y138868D01*
X282880Y138843D01*
X282765Y138814D01*
X282650Y138781D01*
X282537Y138744D01*
X282426Y138704D01*
X282315Y138660D01*
X282207Y138612D01*
X282100Y138561D01*
X281994Y138506D01*
X281891Y138447D01*
X281789Y138386D01*
X281690Y138321D01*
X281592Y138252D01*
X281498Y138181D01*
X281405Y138106D01*
X281315Y138029D01*
X281228Y137948D01*
X281143Y137865D01*
X281061Y137779D01*
X280982Y137690D01*
X280906Y137599D01*
X280833Y137505D01*
X280764Y137409D01*
X280697Y137310D01*
X280634Y137210D01*
X280574Y137107D01*
X280517Y137003D01*
X280465Y136896D01*
X280415Y136788D01*
X280369Y136679D01*
X280327Y136567D01*
X280289Y136455D01*
X285567Y133971D02*
X285642Y134045D01*
X285714Y134122D01*
X285784Y134201D01*
X285851Y134283D01*
X285915Y134367D01*
X285976Y134453D01*
X286034Y134541D01*
X286089Y134632D01*
X286141Y134724D01*
X286189Y134818D01*
X286234Y134913D01*
X286276Y135011D01*
X286314Y135109D01*
X286349Y135209D01*
X286380Y135310D01*
X286407Y135412D01*
X286431Y135515D01*
X286452Y135618D01*
X286468Y135723D01*
X286481Y135828D01*
X286491Y135933D01*
X286496Y136038D01*
X286498Y136144D01*
X285567Y133971D02*
X280289Y127762D01*
X286498Y127762D01*
D11*
X621500Y16200D02*
X621742Y16203D01*
X621983Y16212D01*
X622224Y16226D01*
X622465Y16247D01*
X622705Y16273D01*
X622945Y16305D01*
X623184Y16343D01*
X623421Y16386D01*
X623658Y16436D01*
X623893Y16491D01*
X624127Y16551D01*
X624359Y16618D01*
X624590Y16689D01*
X624819Y16767D01*
X625046Y16850D01*
X625271Y16938D01*
X625494Y17032D01*
X625714Y17131D01*
X625932Y17236D01*
X626147Y17345D01*
X626360Y17460D01*
X626570Y17580D01*
X626776Y17705D01*
X626980Y17835D01*
X627181Y17970D01*
X627378Y18110D01*
X627572Y18254D01*
X627762Y18403D01*
X627948Y18557D01*
X628131Y18715D01*
X628310Y18877D01*
X628485Y19044D01*
X628656Y19215D01*
X628823Y19390D01*
X628985Y19569D01*
X629143Y19752D01*
X629297Y19938D01*
X629446Y20128D01*
X629590Y20322D01*
X629730Y20519D01*
X629865Y20720D01*
X629995Y20924D01*
X630120Y21130D01*
X630240Y21340D01*
X630355Y21553D01*
X630464Y21768D01*
X630569Y21986D01*
X630668Y22206D01*
X630762Y22429D01*
X630850Y22654D01*
X630933Y22881D01*
X631011Y23110D01*
X631082Y23341D01*
X631149Y23573D01*
X631209Y23807D01*
X631264Y24042D01*
X631314Y24279D01*
X631357Y24516D01*
X631395Y24755D01*
X631427Y24995D01*
X631453Y25235D01*
X631474Y25476D01*
X631488Y25717D01*
X631497Y25958D01*
X631500Y26200D01*
X621500Y16200D02*
X521500Y16200D01*
X521258Y16203D01*
X521017Y16212D01*
X520776Y16226D01*
X520535Y16247D01*
X520295Y16273D01*
X520055Y16305D01*
X519816Y16343D01*
X519579Y16386D01*
X519342Y16436D01*
X519107Y16491D01*
X518873Y16551D01*
X518641Y16618D01*
X518410Y16689D01*
X518181Y16767D01*
X517954Y16850D01*
X517729Y16938D01*
X517506Y17032D01*
X517286Y17131D01*
X517068Y17236D01*
X516853Y17345D01*
X516640Y17460D01*
X516430Y17580D01*
X516224Y17705D01*
X516020Y17835D01*
X515819Y17970D01*
X515622Y18110D01*
X515428Y18254D01*
X515238Y18403D01*
X515052Y18557D01*
X514869Y18715D01*
X514690Y18877D01*
X514515Y19044D01*
X514344Y19215D01*
X514177Y19390D01*
X514015Y19569D01*
X513857Y19752D01*
X513703Y19938D01*
X513554Y20128D01*
X513410Y20322D01*
X513270Y20519D01*
X513135Y20720D01*
X513005Y20924D01*
X512880Y21130D01*
X512760Y21340D01*
X512645Y21553D01*
X512536Y21768D01*
X512431Y21986D01*
X512332Y22206D01*
X512238Y22429D01*
X512150Y22654D01*
X512067Y22881D01*
X511989Y23110D01*
X511918Y23341D01*
X511851Y23573D01*
X511791Y23807D01*
X511736Y24042D01*
X511686Y24279D01*
X511643Y24516D01*
X511605Y24755D01*
X511573Y24995D01*
X511547Y25235D01*
X511526Y25476D01*
X511512Y25717D01*
X511503Y25958D01*
X511500Y26200D01*
X511500Y126200D02*
X511503Y126442D01*
X511512Y126683D01*
X511526Y126924D01*
X511547Y127165D01*
X511573Y127405D01*
X511605Y127645D01*
X511643Y127884D01*
X511686Y128121D01*
X511736Y128358D01*
X511791Y128593D01*
X511851Y128827D01*
X511918Y129059D01*
X511989Y129290D01*
X512067Y129519D01*
X512150Y129746D01*
X512238Y129971D01*
X512332Y130194D01*
X512431Y130414D01*
X512536Y130632D01*
X512645Y130847D01*
X512760Y131060D01*
X512880Y131270D01*
X513005Y131476D01*
X513135Y131680D01*
X513270Y131881D01*
X513410Y132078D01*
X513554Y132272D01*
X513703Y132462D01*
X513857Y132648D01*
X514015Y132831D01*
X514177Y133010D01*
X514344Y133185D01*
X514515Y133356D01*
X514690Y133523D01*
X514869Y133685D01*
X515052Y133843D01*
X515238Y133997D01*
X515428Y134146D01*
X515622Y134290D01*
X515819Y134430D01*
X516020Y134565D01*
X516224Y134695D01*
X516430Y134820D01*
X516640Y134940D01*
X516853Y135055D01*
X517068Y135164D01*
X517286Y135269D01*
X517506Y135368D01*
X517729Y135462D01*
X517954Y135550D01*
X518181Y135633D01*
X518410Y135711D01*
X518641Y135782D01*
X518873Y135849D01*
X519107Y135909D01*
X519342Y135964D01*
X519579Y136014D01*
X519816Y136057D01*
X520055Y136095D01*
X520295Y136127D01*
X520535Y136153D01*
X520776Y136174D01*
X521017Y136188D01*
X521258Y136197D01*
X521500Y136200D01*
X621500Y136200D01*
X621742Y136197D01*
X621983Y136188D01*
X622224Y136174D01*
X622465Y136153D01*
X622705Y136127D01*
X622945Y136095D01*
X623184Y136057D01*
X623421Y136014D01*
X623658Y135964D01*
X623893Y135909D01*
X624127Y135849D01*
X624359Y135782D01*
X624590Y135711D01*
X624819Y135633D01*
X625046Y135550D01*
X625271Y135462D01*
X625494Y135368D01*
X625714Y135269D01*
X625932Y135164D01*
X626147Y135055D01*
X626360Y134940D01*
X626570Y134820D01*
X626776Y134695D01*
X626980Y134565D01*
X627181Y134430D01*
X627378Y134290D01*
X627572Y134146D01*
X627762Y133997D01*
X627948Y133843D01*
X628131Y133685D01*
X628310Y133523D01*
X628485Y133356D01*
X628656Y133185D01*
X628823Y133010D01*
X628985Y132831D01*
X629143Y132648D01*
X629297Y132462D01*
X629446Y132272D01*
X629590Y132078D01*
X629730Y131881D01*
X629865Y131680D01*
X629995Y131476D01*
X630120Y131270D01*
X630240Y131060D01*
X630355Y130847D01*
X630464Y130632D01*
X630569Y130414D01*
X630668Y130194D01*
X630762Y129971D01*
X630850Y129746D01*
X630933Y129519D01*
X631011Y129290D01*
X631082Y129059D01*
X631149Y128827D01*
X631209Y128593D01*
X631264Y128358D01*
X631314Y128121D01*
X631357Y127884D01*
X631395Y127645D01*
X631427Y127405D01*
X631453Y127165D01*
X631474Y126924D01*
X631488Y126683D01*
X631497Y126442D01*
X631500Y126200D01*
X536145Y76200D02*
X536156Y77068D01*
X536188Y77935D01*
X536241Y78801D01*
X536315Y79665D01*
X536411Y80528D01*
X536528Y81388D01*
X536666Y82244D01*
X536824Y83097D01*
X537004Y83946D01*
X537205Y84791D01*
X537426Y85630D01*
X537667Y86463D01*
X537929Y87290D01*
X538212Y88111D01*
X538514Y88924D01*
X538836Y89730D01*
X539178Y90527D01*
X539539Y91316D01*
X539920Y92096D01*
X540320Y92866D01*
X540738Y93626D01*
X541175Y94376D01*
X541630Y95115D01*
X542103Y95842D01*
X542594Y96558D01*
X543103Y97261D01*
X543628Y97952D01*
X544170Y98629D01*
X544729Y99293D01*
X545304Y99943D01*
X545894Y100579D01*
X546500Y101200D01*
X547121Y101806D01*
X547757Y102396D01*
X548407Y102971D01*
X549071Y103530D01*
X549748Y104072D01*
X550439Y104597D01*
X551142Y105106D01*
X551858Y105597D01*
X552585Y106070D01*
X553324Y106525D01*
X554074Y106962D01*
X554834Y107380D01*
X555604Y107780D01*
X556384Y108161D01*
X557173Y108522D01*
X557970Y108864D01*
X558776Y109186D01*
X559589Y109488D01*
X560410Y109771D01*
X561237Y110033D01*
X562070Y110274D01*
X562909Y110495D01*
X563754Y110696D01*
X564603Y110876D01*
X565456Y111034D01*
X566312Y111172D01*
X567172Y111289D01*
X568035Y111385D01*
X568899Y111459D01*
X569765Y111512D01*
X570632Y111544D01*
X571500Y111555D01*
X572368Y111544D01*
X573235Y111512D01*
X574101Y111459D01*
X574965Y111385D01*
X575828Y111289D01*
X576688Y111172D01*
X577544Y111034D01*
X578397Y110876D01*
X579246Y110696D01*
X580091Y110495D01*
X580930Y110274D01*
X581763Y110033D01*
X582590Y109771D01*
X583411Y109488D01*
X584224Y109186D01*
X585030Y108864D01*
X585827Y108522D01*
X586616Y108161D01*
X587396Y107780D01*
X588166Y107380D01*
X588926Y106962D01*
X589676Y106525D01*
X590415Y106070D01*
X591142Y105597D01*
X591858Y105106D01*
X592561Y104597D01*
X593252Y104072D01*
X593929Y103530D01*
X594593Y102971D01*
X595243Y102396D01*
X595879Y101806D01*
X596500Y101200D01*
X597106Y100579D01*
X597696Y99943D01*
X598271Y99293D01*
X598830Y98629D01*
X599372Y97952D01*
X599897Y97261D01*
X600406Y96558D01*
X600897Y95842D01*
X601370Y95115D01*
X601825Y94376D01*
X602262Y93626D01*
X602680Y92866D01*
X603080Y92096D01*
X603461Y91316D01*
X603822Y90527D01*
X604164Y89730D01*
X604486Y88924D01*
X604788Y88111D01*
X605071Y87290D01*
X605333Y86463D01*
X605574Y85630D01*
X605795Y84791D01*
X605996Y83946D01*
X606176Y83097D01*
X606334Y82244D01*
X606472Y81388D01*
X606589Y80528D01*
X606685Y79665D01*
X606759Y78801D01*
X606812Y77935D01*
X606844Y77068D01*
X606855Y76200D01*
X606844Y75332D01*
X606812Y74465D01*
X606759Y73599D01*
X606685Y72735D01*
X606589Y71872D01*
X606472Y71012D01*
X606334Y70156D01*
X606176Y69303D01*
X605996Y68454D01*
X605795Y67609D01*
X605574Y66770D01*
X605333Y65937D01*
X605071Y65110D01*
X604788Y64289D01*
X604486Y63476D01*
X604164Y62670D01*
X603822Y61873D01*
X603461Y61084D01*
X603080Y60304D01*
X602680Y59534D01*
X602262Y58774D01*
X601825Y58024D01*
X601370Y57285D01*
X600897Y56558D01*
X600406Y55842D01*
X599897Y55139D01*
X599372Y54448D01*
X598830Y53771D01*
X598271Y53107D01*
X597696Y52457D01*
X597106Y51821D01*
X596500Y51200D01*
X595879Y50594D01*
X595243Y50004D01*
X594593Y49429D01*
X593929Y48870D01*
X593252Y48328D01*
X592561Y47803D01*
X591858Y47294D01*
X591142Y46803D01*
X590415Y46330D01*
X589676Y45875D01*
X588926Y45438D01*
X588166Y45020D01*
X587396Y44620D01*
X586616Y44239D01*
X585827Y43878D01*
X585030Y43536D01*
X584224Y43214D01*
X583411Y42912D01*
X582590Y42629D01*
X581763Y42367D01*
X580930Y42126D01*
X580091Y41905D01*
X579246Y41704D01*
X578397Y41524D01*
X577544Y41366D01*
X576688Y41228D01*
X575828Y41111D01*
X574965Y41015D01*
X574101Y40941D01*
X573235Y40888D01*
X572368Y40856D01*
X571500Y40845D01*
X570632Y40856D01*
X569765Y40888D01*
X568899Y40941D01*
X568035Y41015D01*
X567172Y41111D01*
X566312Y41228D01*
X565456Y41366D01*
X564603Y41524D01*
X563754Y41704D01*
X562909Y41905D01*
X562070Y42126D01*
X561237Y42367D01*
X560410Y42629D01*
X559589Y42912D01*
X558776Y43214D01*
X557970Y43536D01*
X557173Y43878D01*
X556384Y44239D01*
X555604Y44620D01*
X554834Y45020D01*
X554074Y45438D01*
X553324Y45875D01*
X552585Y46330D01*
X551858Y46803D01*
X551142Y47294D01*
X550439Y47803D01*
X549748Y48328D01*
X549071Y48870D01*
X548407Y49429D01*
X547757Y50004D01*
X547121Y50594D01*
X546500Y51200D01*
X545894Y51821D01*
X545304Y52457D01*
X544729Y53107D01*
X544170Y53771D01*
X543628Y54448D01*
X543103Y55139D01*
X542594Y55842D01*
X542103Y56558D01*
X541630Y57285D01*
X541175Y58024D01*
X540738Y58774D01*
X540320Y59534D01*
X539920Y60304D01*
X539539Y61084D01*
X539178Y61873D01*
X538836Y62670D01*
X538514Y63476D01*
X538212Y64289D01*
X537929Y65110D01*
X537667Y65937D01*
X537426Y66770D01*
X537205Y67609D01*
X537004Y68454D01*
X536824Y69303D01*
X536666Y70156D01*
X536528Y71012D01*
X536411Y71872D01*
X536315Y72735D01*
X536241Y73599D01*
X536188Y74465D01*
X536156Y75332D01*
X536145Y76200D01*
X551500Y96200D02*
X591500Y96200D01*
X591500Y56200D01*
X551500Y56200D01*
X551500Y96200D01*
X511500Y113700D02*
X511500Y126200D01*
X511500Y88700D02*
X511500Y63700D01*
X511500Y38700D02*
X511500Y26200D01*
X631500Y113700D02*
X631500Y126200D01*
X631500Y88700D02*
X631500Y63700D01*
X631500Y38700D02*
X631500Y26200D01*
D10*
X476871Y130246D02*
X476869Y130148D01*
X476863Y130051D01*
X476854Y129954D01*
X476840Y129857D01*
X476823Y129761D01*
X476802Y129666D01*
X476778Y129572D01*
X476749Y129478D01*
X476717Y129386D01*
X476682Y129295D01*
X476643Y129206D01*
X476600Y129118D01*
X476554Y129032D01*
X476505Y128948D01*
X476452Y128866D01*
X476397Y128786D01*
X476338Y128708D01*
X476276Y128633D01*
X476211Y128560D01*
X476143Y128490D01*
X476073Y128422D01*
X476000Y128357D01*
X475925Y128295D01*
X475847Y128236D01*
X475767Y128181D01*
X475685Y128128D01*
X475601Y128079D01*
X475515Y128033D01*
X475427Y127990D01*
X475338Y127951D01*
X475247Y127916D01*
X475155Y127884D01*
X475061Y127855D01*
X474967Y127831D01*
X474872Y127810D01*
X474776Y127793D01*
X474679Y127779D01*
X474582Y127770D01*
X474484Y127764D01*
X474387Y127762D01*
X474244Y127764D01*
X474101Y127770D01*
X473959Y127779D01*
X473817Y127793D01*
X473675Y127811D01*
X473534Y127832D01*
X473393Y127857D01*
X473253Y127886D01*
X473114Y127919D01*
X472976Y127955D01*
X472839Y127996D01*
X472703Y128040D01*
X472568Y128087D01*
X472435Y128139D01*
X472303Y128194D01*
X472173Y128252D01*
X472044Y128314D01*
X471917Y128380D01*
X471792Y128449D01*
X471669Y128521D01*
X471548Y128597D01*
X471429Y128675D01*
X471312Y128758D01*
X471197Y128843D01*
X471085Y128931D01*
X470975Y129023D01*
X470868Y129117D01*
X470763Y129214D01*
X470661Y129314D01*
X470972Y136454D02*
X470974Y136552D01*
X470980Y136649D01*
X470989Y136746D01*
X471003Y136843D01*
X471020Y136939D01*
X471041Y137034D01*
X471065Y137128D01*
X471094Y137222D01*
X471126Y137314D01*
X471161Y137405D01*
X471200Y137494D01*
X471243Y137582D01*
X471289Y137668D01*
X471338Y137752D01*
X471391Y137834D01*
X471446Y137914D01*
X471505Y137992D01*
X471567Y138067D01*
X471632Y138140D01*
X471700Y138210D01*
X471770Y138278D01*
X471843Y138343D01*
X471918Y138405D01*
X471996Y138464D01*
X472076Y138519D01*
X472158Y138572D01*
X472242Y138621D01*
X472328Y138667D01*
X472416Y138710D01*
X472505Y138749D01*
X472596Y138784D01*
X472688Y138816D01*
X472782Y138845D01*
X472876Y138869D01*
X472971Y138890D01*
X473067Y138907D01*
X473164Y138921D01*
X473261Y138930D01*
X473358Y138936D01*
X473456Y138938D01*
X473586Y138936D01*
X473716Y138931D01*
X473846Y138922D01*
X473976Y138909D01*
X474105Y138893D01*
X474234Y138873D01*
X474362Y138849D01*
X474490Y138822D01*
X474616Y138791D01*
X474742Y138757D01*
X474867Y138719D01*
X474990Y138678D01*
X475113Y138633D01*
X475234Y138585D01*
X475354Y138534D01*
X475472Y138479D01*
X475588Y138421D01*
X475703Y138360D01*
X475817Y138295D01*
X475928Y138228D01*
X476037Y138157D01*
X476145Y138083D01*
X476250Y138007D01*
X472215Y134281D02*
X472132Y134332D01*
X472051Y134386D01*
X471973Y134443D01*
X471897Y134503D01*
X471823Y134566D01*
X471752Y134632D01*
X471683Y134700D01*
X471617Y134771D01*
X471553Y134844D01*
X471493Y134920D01*
X471436Y134998D01*
X471381Y135079D01*
X471330Y135161D01*
X471282Y135245D01*
X471237Y135331D01*
X471195Y135419D01*
X471157Y135508D01*
X471123Y135598D01*
X471091Y135690D01*
X471064Y135783D01*
X471040Y135877D01*
X471019Y135972D01*
X471003Y136068D01*
X470990Y136164D01*
X470980Y136260D01*
X470975Y136357D01*
X470973Y136454D01*
X475628Y132419D02*
X475711Y132368D01*
X475792Y132314D01*
X475870Y132257D01*
X475946Y132197D01*
X476020Y132134D01*
X476091Y132068D01*
X476160Y132000D01*
X476226Y131929D01*
X476290Y131856D01*
X476350Y131780D01*
X476407Y131702D01*
X476462Y131621D01*
X476513Y131539D01*
X476561Y131455D01*
X476606Y131369D01*
X476648Y131281D01*
X476686Y131192D01*
X476720Y131102D01*
X476752Y131010D01*
X476779Y130917D01*
X476803Y130823D01*
X476824Y130728D01*
X476840Y130632D01*
X476853Y130536D01*
X476863Y130440D01*
X476868Y130343D01*
X476870Y130246D01*
X475629Y132419D02*
X472214Y134281D01*
X481372Y138938D02*
X483856Y127762D01*
X486339Y135213D01*
X488823Y127762D01*
X491307Y138938D01*
X496189Y127762D02*
X499293Y127762D01*
X499404Y127764D01*
X499514Y127770D01*
X499625Y127780D01*
X499735Y127794D01*
X499844Y127811D01*
X499953Y127833D01*
X500061Y127858D01*
X500167Y127888D01*
X500273Y127921D01*
X500378Y127958D01*
X500481Y127998D01*
X500582Y128043D01*
X500682Y128090D01*
X500781Y128142D01*
X500877Y128197D01*
X500971Y128255D01*
X501063Y128316D01*
X501153Y128381D01*
X501241Y128449D01*
X501326Y128520D01*
X501408Y128594D01*
X501488Y128671D01*
X501565Y128751D01*
X501639Y128833D01*
X501710Y128918D01*
X501778Y129006D01*
X501843Y129096D01*
X501904Y129188D01*
X501962Y129282D01*
X502017Y129378D01*
X502069Y129477D01*
X502116Y129577D01*
X502161Y129678D01*
X502201Y129781D01*
X502238Y129886D01*
X502271Y129992D01*
X502301Y130098D01*
X502326Y130206D01*
X502348Y130315D01*
X502365Y130424D01*
X502379Y130534D01*
X502389Y130645D01*
X502395Y130755D01*
X502397Y130866D01*
X502395Y130977D01*
X502389Y131087D01*
X502379Y131198D01*
X502365Y131308D01*
X502348Y131417D01*
X502326Y131526D01*
X502301Y131634D01*
X502271Y131740D01*
X502238Y131846D01*
X502201Y131951D01*
X502161Y132054D01*
X502116Y132155D01*
X502069Y132255D01*
X502017Y132354D01*
X501962Y132450D01*
X501904Y132544D01*
X501843Y132636D01*
X501778Y132726D01*
X501710Y132814D01*
X501639Y132899D01*
X501565Y132981D01*
X501488Y133061D01*
X501408Y133138D01*
X501326Y133212D01*
X501241Y133283D01*
X501153Y133351D01*
X501063Y133416D01*
X500971Y133477D01*
X500877Y133535D01*
X500781Y133590D01*
X500682Y133642D01*
X500582Y133689D01*
X500481Y133734D01*
X500378Y133774D01*
X500273Y133811D01*
X500167Y133844D01*
X500061Y133874D01*
X499953Y133899D01*
X499844Y133921D01*
X499735Y133938D01*
X499625Y133952D01*
X499514Y133962D01*
X499404Y133968D01*
X499293Y133970D01*
X499914Y138938D02*
X496189Y138938D01*
X499914Y138938D02*
X500013Y138936D01*
X500111Y138930D01*
X500210Y138920D01*
X500307Y138907D01*
X500405Y138889D01*
X500501Y138868D01*
X500597Y138842D01*
X500691Y138813D01*
X500784Y138781D01*
X500876Y138744D01*
X500966Y138704D01*
X501055Y138660D01*
X501142Y138613D01*
X501227Y138563D01*
X501309Y138509D01*
X501390Y138452D01*
X501468Y138392D01*
X501544Y138328D01*
X501617Y138262D01*
X501688Y138193D01*
X501756Y138121D01*
X501820Y138046D01*
X501882Y137969D01*
X501941Y137890D01*
X501996Y137808D01*
X502049Y137724D01*
X502097Y137639D01*
X502143Y137551D01*
X502185Y137461D01*
X502223Y137370D01*
X502257Y137278D01*
X502288Y137184D01*
X502315Y137089D01*
X502339Y136993D01*
X502358Y136896D01*
X502374Y136799D01*
X502386Y136701D01*
X502394Y136602D01*
X502398Y136503D01*
X502398Y136405D01*
X502394Y136306D01*
X502386Y136207D01*
X502374Y136109D01*
X502358Y136012D01*
X502339Y135915D01*
X502315Y135819D01*
X502288Y135724D01*
X502257Y135630D01*
X502223Y135538D01*
X502185Y135447D01*
X502143Y135357D01*
X502097Y135269D01*
X502049Y135184D01*
X501996Y135100D01*
X501941Y135018D01*
X501882Y134939D01*
X501820Y134862D01*
X501756Y134787D01*
X501688Y134715D01*
X501617Y134646D01*
X501544Y134580D01*
X501468Y134516D01*
X501390Y134456D01*
X501309Y134399D01*
X501227Y134345D01*
X501142Y134295D01*
X501055Y134248D01*
X500966Y134204D01*
X500876Y134164D01*
X500784Y134127D01*
X500691Y134095D01*
X500597Y134066D01*
X500501Y134040D01*
X500405Y134019D01*
X500307Y134001D01*
X500210Y133988D01*
X500111Y133978D01*
X500013Y133972D01*
X499914Y133970D01*
X499914Y133971D02*
X497431Y133971D01*
D12*
X147700Y297100D02*
X131700Y297100D01*
X131700Y287100D02*
X147700Y287100D01*
X141700Y290100D02*
X141700Y294100D01*
D10*
X134112Y305562D02*
X134112Y316738D01*
X137216Y316738D01*
X137327Y316736D01*
X137437Y316730D01*
X137548Y316720D01*
X137658Y316706D01*
X137767Y316689D01*
X137876Y316667D01*
X137984Y316642D01*
X138090Y316612D01*
X138196Y316579D01*
X138301Y316542D01*
X138404Y316502D01*
X138505Y316457D01*
X138605Y316410D01*
X138704Y316358D01*
X138800Y316303D01*
X138894Y316245D01*
X138986Y316184D01*
X139076Y316119D01*
X139164Y316051D01*
X139249Y315980D01*
X139331Y315906D01*
X139411Y315829D01*
X139488Y315749D01*
X139562Y315667D01*
X139633Y315582D01*
X139701Y315494D01*
X139766Y315404D01*
X139827Y315312D01*
X139885Y315218D01*
X139940Y315122D01*
X139992Y315023D01*
X140039Y314923D01*
X140084Y314822D01*
X140124Y314719D01*
X140161Y314614D01*
X140194Y314508D01*
X140224Y314402D01*
X140249Y314294D01*
X140271Y314185D01*
X140288Y314076D01*
X140302Y313966D01*
X140312Y313855D01*
X140318Y313745D01*
X140320Y313634D01*
X140321Y313634D02*
X140321Y308666D01*
X140320Y308666D02*
X140318Y308555D01*
X140312Y308445D01*
X140302Y308334D01*
X140288Y308224D01*
X140271Y308115D01*
X140249Y308006D01*
X140224Y307898D01*
X140194Y307792D01*
X140161Y307686D01*
X140124Y307581D01*
X140084Y307478D01*
X140039Y307377D01*
X139992Y307277D01*
X139940Y307178D01*
X139885Y307082D01*
X139827Y306988D01*
X139766Y306896D01*
X139701Y306806D01*
X139633Y306718D01*
X139562Y306633D01*
X139488Y306551D01*
X139411Y306471D01*
X139331Y306394D01*
X139249Y306320D01*
X139164Y306249D01*
X139076Y306181D01*
X138986Y306116D01*
X138894Y306055D01*
X138800Y305997D01*
X138704Y305942D01*
X138605Y305890D01*
X138505Y305843D01*
X138404Y305798D01*
X138301Y305758D01*
X138196Y305721D01*
X138090Y305688D01*
X137984Y305658D01*
X137876Y305633D01*
X137767Y305611D01*
X137658Y305594D01*
X137548Y305580D01*
X137437Y305570D01*
X137327Y305564D01*
X137216Y305562D01*
X134112Y305562D01*
X145923Y314254D02*
X149027Y316738D01*
X149027Y305562D01*
X145923Y305562D02*
X152132Y305562D01*
D12*
X169800Y297100D02*
X185800Y297100D01*
X185800Y287100D02*
X169800Y287100D01*
X179800Y290100D02*
X179800Y294100D01*
D10*
X172212Y305562D02*
X172212Y316738D01*
X175316Y316738D01*
X175427Y316736D01*
X175537Y316730D01*
X175648Y316720D01*
X175758Y316706D01*
X175867Y316689D01*
X175976Y316667D01*
X176084Y316642D01*
X176190Y316612D01*
X176296Y316579D01*
X176401Y316542D01*
X176504Y316502D01*
X176605Y316457D01*
X176705Y316410D01*
X176804Y316358D01*
X176900Y316303D01*
X176994Y316245D01*
X177086Y316184D01*
X177176Y316119D01*
X177264Y316051D01*
X177349Y315980D01*
X177431Y315906D01*
X177511Y315829D01*
X177588Y315749D01*
X177662Y315667D01*
X177733Y315582D01*
X177801Y315494D01*
X177866Y315404D01*
X177927Y315312D01*
X177985Y315218D01*
X178040Y315122D01*
X178092Y315023D01*
X178139Y314923D01*
X178184Y314822D01*
X178224Y314719D01*
X178261Y314614D01*
X178294Y314508D01*
X178324Y314402D01*
X178349Y314294D01*
X178371Y314185D01*
X178388Y314076D01*
X178402Y313966D01*
X178412Y313855D01*
X178418Y313745D01*
X178420Y313634D01*
X178421Y313634D02*
X178421Y308666D01*
X178420Y308666D02*
X178418Y308555D01*
X178412Y308445D01*
X178402Y308334D01*
X178388Y308224D01*
X178371Y308115D01*
X178349Y308006D01*
X178324Y307898D01*
X178294Y307792D01*
X178261Y307686D01*
X178224Y307581D01*
X178184Y307478D01*
X178139Y307377D01*
X178092Y307277D01*
X178040Y307178D01*
X177985Y307082D01*
X177927Y306988D01*
X177866Y306896D01*
X177801Y306806D01*
X177733Y306718D01*
X177662Y306633D01*
X177588Y306551D01*
X177511Y306471D01*
X177431Y306394D01*
X177349Y306320D01*
X177264Y306249D01*
X177176Y306181D01*
X177086Y306116D01*
X176994Y306055D01*
X176900Y305997D01*
X176804Y305942D01*
X176705Y305890D01*
X176605Y305843D01*
X176504Y305798D01*
X176401Y305758D01*
X176296Y305721D01*
X176190Y305688D01*
X176084Y305658D01*
X175976Y305633D01*
X175867Y305611D01*
X175758Y305594D01*
X175648Y305580D01*
X175537Y305570D01*
X175427Y305564D01*
X175316Y305562D01*
X172212Y305562D01*
X187438Y316738D02*
X187542Y316736D01*
X187647Y316730D01*
X187751Y316720D01*
X187854Y316707D01*
X187957Y316689D01*
X188060Y316668D01*
X188161Y316643D01*
X188262Y316614D01*
X188361Y316581D01*
X188459Y316545D01*
X188555Y316505D01*
X188650Y316461D01*
X188744Y316414D01*
X188835Y316364D01*
X188924Y316310D01*
X189012Y316253D01*
X189097Y316192D01*
X189180Y316128D01*
X189260Y316062D01*
X189338Y315992D01*
X189414Y315920D01*
X189486Y315844D01*
X189556Y315766D01*
X189622Y315686D01*
X189686Y315603D01*
X189747Y315518D01*
X189804Y315430D01*
X189858Y315341D01*
X189908Y315250D01*
X189955Y315156D01*
X189999Y315061D01*
X190039Y314965D01*
X190075Y314867D01*
X190108Y314768D01*
X190137Y314667D01*
X190162Y314566D01*
X190183Y314463D01*
X190201Y314360D01*
X190214Y314257D01*
X190224Y314153D01*
X190230Y314048D01*
X190232Y313944D01*
X187438Y316739D02*
X187319Y316737D01*
X187201Y316731D01*
X187082Y316721D01*
X186964Y316708D01*
X186847Y316690D01*
X186730Y316668D01*
X186614Y316643D01*
X186499Y316614D01*
X186384Y316581D01*
X186271Y316544D01*
X186160Y316504D01*
X186049Y316460D01*
X185941Y316412D01*
X185834Y316361D01*
X185728Y316306D01*
X185625Y316247D01*
X185523Y316186D01*
X185424Y316121D01*
X185326Y316052D01*
X185232Y315981D01*
X185139Y315906D01*
X185049Y315829D01*
X184962Y315748D01*
X184877Y315665D01*
X184795Y315579D01*
X184716Y315490D01*
X184640Y315399D01*
X184567Y315305D01*
X184498Y315209D01*
X184431Y315110D01*
X184368Y315010D01*
X184308Y314907D01*
X184251Y314803D01*
X184199Y314696D01*
X184149Y314588D01*
X184103Y314479D01*
X184061Y314367D01*
X184023Y314255D01*
X189301Y311771D02*
X189376Y311845D01*
X189448Y311922D01*
X189518Y312001D01*
X189585Y312083D01*
X189649Y312167D01*
X189710Y312253D01*
X189768Y312341D01*
X189823Y312432D01*
X189875Y312524D01*
X189923Y312618D01*
X189968Y312713D01*
X190010Y312811D01*
X190048Y312909D01*
X190083Y313009D01*
X190114Y313110D01*
X190141Y313212D01*
X190165Y313315D01*
X190186Y313418D01*
X190202Y313523D01*
X190215Y313628D01*
X190225Y313733D01*
X190230Y313838D01*
X190232Y313944D01*
X189301Y311771D02*
X184023Y305562D01*
X190232Y305562D01*
D12*
X207900Y297100D02*
X223900Y297100D01*
X223900Y287100D02*
X207900Y287100D01*
X217900Y290100D02*
X217900Y294100D01*
D10*
X210312Y305562D02*
X210312Y316738D01*
X213416Y316738D01*
X213527Y316736D01*
X213637Y316730D01*
X213748Y316720D01*
X213858Y316706D01*
X213967Y316689D01*
X214076Y316667D01*
X214184Y316642D01*
X214290Y316612D01*
X214396Y316579D01*
X214501Y316542D01*
X214604Y316502D01*
X214705Y316457D01*
X214805Y316410D01*
X214904Y316358D01*
X215000Y316303D01*
X215094Y316245D01*
X215186Y316184D01*
X215276Y316119D01*
X215364Y316051D01*
X215449Y315980D01*
X215531Y315906D01*
X215611Y315829D01*
X215688Y315749D01*
X215762Y315667D01*
X215833Y315582D01*
X215901Y315494D01*
X215966Y315404D01*
X216027Y315312D01*
X216085Y315218D01*
X216140Y315122D01*
X216192Y315023D01*
X216239Y314923D01*
X216284Y314822D01*
X216324Y314719D01*
X216361Y314614D01*
X216394Y314508D01*
X216424Y314402D01*
X216449Y314294D01*
X216471Y314185D01*
X216488Y314076D01*
X216502Y313966D01*
X216512Y313855D01*
X216518Y313745D01*
X216520Y313634D01*
X216521Y313634D02*
X216521Y308666D01*
X216520Y308666D02*
X216518Y308555D01*
X216512Y308445D01*
X216502Y308334D01*
X216488Y308224D01*
X216471Y308115D01*
X216449Y308006D01*
X216424Y307898D01*
X216394Y307792D01*
X216361Y307686D01*
X216324Y307581D01*
X216284Y307478D01*
X216239Y307377D01*
X216192Y307277D01*
X216140Y307178D01*
X216085Y307082D01*
X216027Y306988D01*
X215966Y306896D01*
X215901Y306806D01*
X215833Y306718D01*
X215762Y306633D01*
X215688Y306551D01*
X215611Y306471D01*
X215531Y306394D01*
X215449Y306320D01*
X215364Y306249D01*
X215276Y306181D01*
X215186Y306116D01*
X215094Y306055D01*
X215000Y305997D01*
X214904Y305942D01*
X214805Y305890D01*
X214705Y305843D01*
X214604Y305798D01*
X214501Y305758D01*
X214396Y305721D01*
X214290Y305688D01*
X214184Y305658D01*
X214076Y305633D01*
X213967Y305611D01*
X213858Y305594D01*
X213748Y305580D01*
X213637Y305570D01*
X213527Y305564D01*
X213416Y305562D01*
X210312Y305562D01*
X222123Y305562D02*
X225227Y305562D01*
X225338Y305564D01*
X225448Y305570D01*
X225559Y305580D01*
X225669Y305594D01*
X225778Y305611D01*
X225887Y305633D01*
X225995Y305658D01*
X226101Y305688D01*
X226207Y305721D01*
X226312Y305758D01*
X226415Y305798D01*
X226516Y305843D01*
X226616Y305890D01*
X226715Y305942D01*
X226811Y305997D01*
X226905Y306055D01*
X226997Y306116D01*
X227087Y306181D01*
X227175Y306249D01*
X227260Y306320D01*
X227342Y306394D01*
X227422Y306471D01*
X227499Y306551D01*
X227573Y306633D01*
X227644Y306718D01*
X227712Y306806D01*
X227777Y306896D01*
X227838Y306988D01*
X227896Y307082D01*
X227951Y307178D01*
X228003Y307277D01*
X228050Y307377D01*
X228095Y307478D01*
X228135Y307581D01*
X228172Y307686D01*
X228205Y307792D01*
X228235Y307898D01*
X228260Y308006D01*
X228282Y308115D01*
X228299Y308224D01*
X228313Y308334D01*
X228323Y308445D01*
X228329Y308555D01*
X228331Y308666D01*
X228329Y308777D01*
X228323Y308887D01*
X228313Y308998D01*
X228299Y309108D01*
X228282Y309217D01*
X228260Y309326D01*
X228235Y309434D01*
X228205Y309540D01*
X228172Y309646D01*
X228135Y309751D01*
X228095Y309854D01*
X228050Y309955D01*
X228003Y310055D01*
X227951Y310154D01*
X227896Y310250D01*
X227838Y310344D01*
X227777Y310436D01*
X227712Y310526D01*
X227644Y310614D01*
X227573Y310699D01*
X227499Y310781D01*
X227422Y310861D01*
X227342Y310938D01*
X227260Y311012D01*
X227175Y311083D01*
X227087Y311151D01*
X226997Y311216D01*
X226905Y311277D01*
X226811Y311335D01*
X226715Y311390D01*
X226616Y311442D01*
X226516Y311489D01*
X226415Y311534D01*
X226312Y311574D01*
X226207Y311611D01*
X226101Y311644D01*
X225995Y311674D01*
X225887Y311699D01*
X225778Y311721D01*
X225669Y311738D01*
X225559Y311752D01*
X225448Y311762D01*
X225338Y311768D01*
X225227Y311770D01*
X225848Y316738D02*
X222123Y316738D01*
X225848Y316738D02*
X225947Y316736D01*
X226045Y316730D01*
X226144Y316720D01*
X226241Y316707D01*
X226339Y316689D01*
X226435Y316668D01*
X226531Y316642D01*
X226625Y316613D01*
X226718Y316581D01*
X226810Y316544D01*
X226900Y316504D01*
X226989Y316460D01*
X227076Y316413D01*
X227161Y316363D01*
X227243Y316309D01*
X227324Y316252D01*
X227402Y316192D01*
X227478Y316128D01*
X227551Y316062D01*
X227622Y315993D01*
X227690Y315921D01*
X227754Y315846D01*
X227816Y315769D01*
X227875Y315690D01*
X227930Y315608D01*
X227983Y315524D01*
X228031Y315439D01*
X228077Y315351D01*
X228119Y315261D01*
X228157Y315170D01*
X228191Y315078D01*
X228222Y314984D01*
X228249Y314889D01*
X228273Y314793D01*
X228292Y314696D01*
X228308Y314599D01*
X228320Y314501D01*
X228328Y314402D01*
X228332Y314303D01*
X228332Y314205D01*
X228328Y314106D01*
X228320Y314007D01*
X228308Y313909D01*
X228292Y313812D01*
X228273Y313715D01*
X228249Y313619D01*
X228222Y313524D01*
X228191Y313430D01*
X228157Y313338D01*
X228119Y313247D01*
X228077Y313157D01*
X228031Y313069D01*
X227983Y312984D01*
X227930Y312900D01*
X227875Y312818D01*
X227816Y312739D01*
X227754Y312662D01*
X227690Y312587D01*
X227622Y312515D01*
X227551Y312446D01*
X227478Y312380D01*
X227402Y312316D01*
X227324Y312256D01*
X227243Y312199D01*
X227161Y312145D01*
X227076Y312095D01*
X226989Y312048D01*
X226900Y312004D01*
X226810Y311964D01*
X226718Y311927D01*
X226625Y311895D01*
X226531Y311866D01*
X226435Y311840D01*
X226339Y311819D01*
X226241Y311801D01*
X226144Y311788D01*
X226045Y311778D01*
X225947Y311772D01*
X225848Y311770D01*
X225848Y311771D02*
X223365Y311771D01*
D12*
X251080Y297100D02*
X267080Y297100D01*
X267080Y287100D02*
X251080Y287100D01*
X261080Y290100D02*
X261080Y294100D01*
D10*
X253492Y305562D02*
X253492Y316738D01*
X256596Y316738D01*
X256707Y316736D01*
X256817Y316730D01*
X256928Y316720D01*
X257038Y316706D01*
X257147Y316689D01*
X257256Y316667D01*
X257364Y316642D01*
X257470Y316612D01*
X257576Y316579D01*
X257681Y316542D01*
X257784Y316502D01*
X257885Y316457D01*
X257985Y316410D01*
X258084Y316358D01*
X258180Y316303D01*
X258274Y316245D01*
X258366Y316184D01*
X258456Y316119D01*
X258544Y316051D01*
X258629Y315980D01*
X258711Y315906D01*
X258791Y315829D01*
X258868Y315749D01*
X258942Y315667D01*
X259013Y315582D01*
X259081Y315494D01*
X259146Y315404D01*
X259207Y315312D01*
X259265Y315218D01*
X259320Y315122D01*
X259372Y315023D01*
X259419Y314923D01*
X259464Y314822D01*
X259504Y314719D01*
X259541Y314614D01*
X259574Y314508D01*
X259604Y314402D01*
X259629Y314294D01*
X259651Y314185D01*
X259668Y314076D01*
X259682Y313966D01*
X259692Y313855D01*
X259698Y313745D01*
X259700Y313634D01*
X259701Y313634D02*
X259701Y308666D01*
X259700Y308666D02*
X259698Y308555D01*
X259692Y308445D01*
X259682Y308334D01*
X259668Y308224D01*
X259651Y308115D01*
X259629Y308006D01*
X259604Y307898D01*
X259574Y307792D01*
X259541Y307686D01*
X259504Y307581D01*
X259464Y307478D01*
X259419Y307377D01*
X259372Y307277D01*
X259320Y307178D01*
X259265Y307082D01*
X259207Y306988D01*
X259146Y306896D01*
X259081Y306806D01*
X259013Y306718D01*
X258942Y306633D01*
X258868Y306551D01*
X258791Y306471D01*
X258711Y306394D01*
X258629Y306320D01*
X258544Y306249D01*
X258456Y306181D01*
X258366Y306116D01*
X258274Y306055D01*
X258180Y305997D01*
X258084Y305942D01*
X257985Y305890D01*
X257885Y305843D01*
X257784Y305798D01*
X257681Y305758D01*
X257576Y305721D01*
X257470Y305688D01*
X257364Y305658D01*
X257256Y305633D01*
X257147Y305611D01*
X257038Y305594D01*
X256928Y305580D01*
X256817Y305570D01*
X256707Y305564D01*
X256596Y305562D01*
X253492Y305562D01*
X265303Y308046D02*
X267787Y316738D01*
X265303Y308046D02*
X271512Y308046D01*
X269649Y310529D02*
X269649Y305562D01*
D12*
X233680Y76200D02*
X223520Y76200D01*
D10*
X222991Y50038D02*
X222991Y38862D01*
X222991Y50038D02*
X226096Y50038D01*
X226207Y50036D01*
X226317Y50030D01*
X226428Y50020D01*
X226538Y50006D01*
X226647Y49989D01*
X226756Y49967D01*
X226864Y49942D01*
X226970Y49912D01*
X227076Y49879D01*
X227181Y49842D01*
X227284Y49802D01*
X227385Y49757D01*
X227485Y49710D01*
X227584Y49658D01*
X227680Y49603D01*
X227774Y49545D01*
X227866Y49484D01*
X227956Y49419D01*
X228044Y49351D01*
X228129Y49280D01*
X228211Y49206D01*
X228291Y49129D01*
X228368Y49049D01*
X228442Y48967D01*
X228513Y48882D01*
X228581Y48794D01*
X228646Y48704D01*
X228707Y48612D01*
X228765Y48518D01*
X228820Y48422D01*
X228872Y48323D01*
X228919Y48223D01*
X228964Y48122D01*
X229004Y48019D01*
X229041Y47914D01*
X229074Y47808D01*
X229104Y47702D01*
X229129Y47594D01*
X229151Y47485D01*
X229168Y47376D01*
X229182Y47266D01*
X229192Y47155D01*
X229198Y47045D01*
X229200Y46934D01*
X229198Y46823D01*
X229192Y46713D01*
X229182Y46602D01*
X229168Y46492D01*
X229151Y46383D01*
X229129Y46274D01*
X229104Y46166D01*
X229074Y46060D01*
X229041Y45954D01*
X229004Y45849D01*
X228964Y45746D01*
X228919Y45645D01*
X228872Y45545D01*
X228820Y45446D01*
X228765Y45350D01*
X228707Y45256D01*
X228646Y45164D01*
X228581Y45074D01*
X228513Y44986D01*
X228442Y44901D01*
X228368Y44819D01*
X228291Y44739D01*
X228211Y44662D01*
X228129Y44588D01*
X228044Y44517D01*
X227956Y44449D01*
X227866Y44384D01*
X227774Y44323D01*
X227680Y44265D01*
X227584Y44210D01*
X227485Y44158D01*
X227385Y44111D01*
X227284Y44066D01*
X227181Y44026D01*
X227076Y43989D01*
X226970Y43956D01*
X226864Y43926D01*
X226756Y43901D01*
X226647Y43879D01*
X226538Y43862D01*
X226428Y43848D01*
X226317Y43838D01*
X226207Y43832D01*
X226096Y43830D01*
X226096Y43829D02*
X222991Y43829D01*
X226716Y43829D02*
X229200Y38862D01*
X234329Y47554D02*
X237434Y50038D01*
X237434Y38862D01*
X240538Y38862D02*
X234329Y38862D01*
D12*
X439420Y76200D02*
X449580Y76200D01*
D10*
X438891Y50038D02*
X438891Y38862D01*
X438891Y50038D02*
X441996Y50038D01*
X442107Y50036D01*
X442217Y50030D01*
X442328Y50020D01*
X442438Y50006D01*
X442547Y49989D01*
X442656Y49967D01*
X442764Y49942D01*
X442870Y49912D01*
X442976Y49879D01*
X443081Y49842D01*
X443184Y49802D01*
X443285Y49757D01*
X443385Y49710D01*
X443484Y49658D01*
X443580Y49603D01*
X443674Y49545D01*
X443766Y49484D01*
X443856Y49419D01*
X443944Y49351D01*
X444029Y49280D01*
X444111Y49206D01*
X444191Y49129D01*
X444268Y49049D01*
X444342Y48967D01*
X444413Y48882D01*
X444481Y48794D01*
X444546Y48704D01*
X444607Y48612D01*
X444665Y48518D01*
X444720Y48422D01*
X444772Y48323D01*
X444819Y48223D01*
X444864Y48122D01*
X444904Y48019D01*
X444941Y47914D01*
X444974Y47808D01*
X445004Y47702D01*
X445029Y47594D01*
X445051Y47485D01*
X445068Y47376D01*
X445082Y47266D01*
X445092Y47155D01*
X445098Y47045D01*
X445100Y46934D01*
X445098Y46823D01*
X445092Y46713D01*
X445082Y46602D01*
X445068Y46492D01*
X445051Y46383D01*
X445029Y46274D01*
X445004Y46166D01*
X444974Y46060D01*
X444941Y45954D01*
X444904Y45849D01*
X444864Y45746D01*
X444819Y45645D01*
X444772Y45545D01*
X444720Y45446D01*
X444665Y45350D01*
X444607Y45256D01*
X444546Y45164D01*
X444481Y45074D01*
X444413Y44986D01*
X444342Y44901D01*
X444268Y44819D01*
X444191Y44739D01*
X444111Y44662D01*
X444029Y44588D01*
X443944Y44517D01*
X443856Y44449D01*
X443766Y44384D01*
X443674Y44323D01*
X443580Y44265D01*
X443484Y44210D01*
X443385Y44158D01*
X443285Y44111D01*
X443184Y44066D01*
X443081Y44026D01*
X442976Y43989D01*
X442870Y43956D01*
X442764Y43926D01*
X442656Y43901D01*
X442547Y43879D01*
X442438Y43862D01*
X442328Y43848D01*
X442217Y43838D01*
X442107Y43832D01*
X441996Y43830D01*
X441996Y43829D02*
X438891Y43829D01*
X442616Y43829D02*
X445100Y38862D01*
X453644Y50038D02*
X453748Y50036D01*
X453853Y50030D01*
X453957Y50020D01*
X454060Y50007D01*
X454163Y49989D01*
X454266Y49968D01*
X454367Y49943D01*
X454468Y49914D01*
X454567Y49881D01*
X454665Y49845D01*
X454761Y49805D01*
X454856Y49761D01*
X454950Y49714D01*
X455041Y49664D01*
X455130Y49610D01*
X455218Y49553D01*
X455303Y49492D01*
X455386Y49428D01*
X455466Y49362D01*
X455544Y49292D01*
X455620Y49220D01*
X455692Y49144D01*
X455762Y49066D01*
X455828Y48986D01*
X455892Y48903D01*
X455953Y48818D01*
X456010Y48730D01*
X456064Y48641D01*
X456114Y48550D01*
X456161Y48456D01*
X456205Y48361D01*
X456245Y48265D01*
X456281Y48167D01*
X456314Y48068D01*
X456343Y47967D01*
X456368Y47866D01*
X456389Y47763D01*
X456407Y47660D01*
X456420Y47557D01*
X456430Y47453D01*
X456436Y47348D01*
X456438Y47244D01*
X453644Y50039D02*
X453525Y50037D01*
X453407Y50031D01*
X453288Y50021D01*
X453170Y50008D01*
X453053Y49990D01*
X452936Y49968D01*
X452820Y49943D01*
X452705Y49914D01*
X452590Y49881D01*
X452477Y49844D01*
X452366Y49804D01*
X452255Y49760D01*
X452147Y49712D01*
X452040Y49661D01*
X451934Y49606D01*
X451831Y49547D01*
X451729Y49486D01*
X451630Y49421D01*
X451532Y49352D01*
X451438Y49281D01*
X451345Y49206D01*
X451255Y49129D01*
X451168Y49048D01*
X451083Y48965D01*
X451001Y48879D01*
X450922Y48790D01*
X450846Y48699D01*
X450773Y48605D01*
X450704Y48509D01*
X450637Y48410D01*
X450574Y48310D01*
X450514Y48207D01*
X450457Y48103D01*
X450405Y47996D01*
X450355Y47888D01*
X450309Y47779D01*
X450267Y47667D01*
X450229Y47555D01*
X455507Y45071D02*
X455582Y45145D01*
X455654Y45222D01*
X455724Y45301D01*
X455791Y45383D01*
X455855Y45467D01*
X455916Y45553D01*
X455974Y45641D01*
X456029Y45732D01*
X456081Y45824D01*
X456129Y45918D01*
X456174Y46013D01*
X456216Y46111D01*
X456254Y46209D01*
X456289Y46309D01*
X456320Y46410D01*
X456347Y46512D01*
X456371Y46615D01*
X456392Y46718D01*
X456408Y46823D01*
X456421Y46928D01*
X456431Y47033D01*
X456436Y47138D01*
X456438Y47244D01*
X455507Y45071D02*
X450229Y38862D01*
X456438Y38862D01*
D12*
X655320Y76200D02*
X665480Y76200D01*
D10*
X654791Y50038D02*
X654791Y38862D01*
X654791Y50038D02*
X657896Y50038D01*
X658007Y50036D01*
X658117Y50030D01*
X658228Y50020D01*
X658338Y50006D01*
X658447Y49989D01*
X658556Y49967D01*
X658664Y49942D01*
X658770Y49912D01*
X658876Y49879D01*
X658981Y49842D01*
X659084Y49802D01*
X659185Y49757D01*
X659285Y49710D01*
X659384Y49658D01*
X659480Y49603D01*
X659574Y49545D01*
X659666Y49484D01*
X659756Y49419D01*
X659844Y49351D01*
X659929Y49280D01*
X660011Y49206D01*
X660091Y49129D01*
X660168Y49049D01*
X660242Y48967D01*
X660313Y48882D01*
X660381Y48794D01*
X660446Y48704D01*
X660507Y48612D01*
X660565Y48518D01*
X660620Y48422D01*
X660672Y48323D01*
X660719Y48223D01*
X660764Y48122D01*
X660804Y48019D01*
X660841Y47914D01*
X660874Y47808D01*
X660904Y47702D01*
X660929Y47594D01*
X660951Y47485D01*
X660968Y47376D01*
X660982Y47266D01*
X660992Y47155D01*
X660998Y47045D01*
X661000Y46934D01*
X660998Y46823D01*
X660992Y46713D01*
X660982Y46602D01*
X660968Y46492D01*
X660951Y46383D01*
X660929Y46274D01*
X660904Y46166D01*
X660874Y46060D01*
X660841Y45954D01*
X660804Y45849D01*
X660764Y45746D01*
X660719Y45645D01*
X660672Y45545D01*
X660620Y45446D01*
X660565Y45350D01*
X660507Y45256D01*
X660446Y45164D01*
X660381Y45074D01*
X660313Y44986D01*
X660242Y44901D01*
X660168Y44819D01*
X660091Y44739D01*
X660011Y44662D01*
X659929Y44588D01*
X659844Y44517D01*
X659756Y44449D01*
X659666Y44384D01*
X659574Y44323D01*
X659480Y44265D01*
X659384Y44210D01*
X659285Y44158D01*
X659185Y44111D01*
X659084Y44066D01*
X658981Y44026D01*
X658876Y43989D01*
X658770Y43956D01*
X658664Y43926D01*
X658556Y43901D01*
X658447Y43879D01*
X658338Y43862D01*
X658228Y43848D01*
X658117Y43838D01*
X658007Y43832D01*
X657896Y43830D01*
X657896Y43829D02*
X654791Y43829D01*
X658516Y43829D02*
X661000Y38862D01*
X666129Y38862D02*
X669234Y38862D01*
X669345Y38864D01*
X669455Y38870D01*
X669566Y38880D01*
X669676Y38894D01*
X669785Y38911D01*
X669894Y38933D01*
X670002Y38958D01*
X670108Y38988D01*
X670214Y39021D01*
X670319Y39058D01*
X670422Y39098D01*
X670523Y39143D01*
X670623Y39190D01*
X670722Y39242D01*
X670818Y39297D01*
X670912Y39355D01*
X671004Y39416D01*
X671094Y39481D01*
X671182Y39549D01*
X671267Y39620D01*
X671349Y39694D01*
X671429Y39771D01*
X671506Y39851D01*
X671580Y39933D01*
X671651Y40018D01*
X671719Y40106D01*
X671784Y40196D01*
X671845Y40288D01*
X671903Y40382D01*
X671958Y40478D01*
X672010Y40577D01*
X672057Y40677D01*
X672102Y40778D01*
X672142Y40881D01*
X672179Y40986D01*
X672212Y41092D01*
X672242Y41198D01*
X672267Y41306D01*
X672289Y41415D01*
X672306Y41524D01*
X672320Y41634D01*
X672330Y41745D01*
X672336Y41855D01*
X672338Y41966D01*
X672336Y42077D01*
X672330Y42187D01*
X672320Y42298D01*
X672306Y42408D01*
X672289Y42517D01*
X672267Y42626D01*
X672242Y42734D01*
X672212Y42840D01*
X672179Y42946D01*
X672142Y43051D01*
X672102Y43154D01*
X672057Y43255D01*
X672010Y43355D01*
X671958Y43454D01*
X671903Y43550D01*
X671845Y43644D01*
X671784Y43736D01*
X671719Y43826D01*
X671651Y43914D01*
X671580Y43999D01*
X671506Y44081D01*
X671429Y44161D01*
X671349Y44238D01*
X671267Y44312D01*
X671182Y44383D01*
X671094Y44451D01*
X671004Y44516D01*
X670912Y44577D01*
X670818Y44635D01*
X670722Y44690D01*
X670623Y44742D01*
X670523Y44789D01*
X670422Y44834D01*
X670319Y44874D01*
X670214Y44911D01*
X670108Y44944D01*
X670002Y44974D01*
X669894Y44999D01*
X669785Y45021D01*
X669676Y45038D01*
X669566Y45052D01*
X669455Y45062D01*
X669345Y45068D01*
X669234Y45070D01*
X669854Y50038D02*
X666129Y50038D01*
X669854Y50038D02*
X669953Y50036D01*
X670051Y50030D01*
X670150Y50020D01*
X670247Y50007D01*
X670345Y49989D01*
X670441Y49968D01*
X670537Y49942D01*
X670631Y49913D01*
X670724Y49881D01*
X670816Y49844D01*
X670906Y49804D01*
X670995Y49760D01*
X671082Y49713D01*
X671167Y49663D01*
X671249Y49609D01*
X671330Y49552D01*
X671408Y49492D01*
X671484Y49428D01*
X671557Y49362D01*
X671628Y49293D01*
X671696Y49221D01*
X671760Y49146D01*
X671822Y49069D01*
X671881Y48990D01*
X671936Y48908D01*
X671989Y48824D01*
X672037Y48739D01*
X672083Y48651D01*
X672125Y48561D01*
X672163Y48470D01*
X672197Y48378D01*
X672228Y48284D01*
X672255Y48189D01*
X672279Y48093D01*
X672298Y47996D01*
X672314Y47899D01*
X672326Y47801D01*
X672334Y47702D01*
X672338Y47603D01*
X672338Y47505D01*
X672334Y47406D01*
X672326Y47307D01*
X672314Y47209D01*
X672298Y47112D01*
X672279Y47015D01*
X672255Y46919D01*
X672228Y46824D01*
X672197Y46730D01*
X672163Y46638D01*
X672125Y46547D01*
X672083Y46457D01*
X672037Y46369D01*
X671989Y46284D01*
X671936Y46200D01*
X671881Y46118D01*
X671822Y46039D01*
X671760Y45962D01*
X671696Y45887D01*
X671628Y45815D01*
X671557Y45746D01*
X671484Y45680D01*
X671408Y45616D01*
X671330Y45556D01*
X671249Y45499D01*
X671167Y45445D01*
X671082Y45395D01*
X670995Y45348D01*
X670906Y45304D01*
X670816Y45264D01*
X670724Y45227D01*
X670631Y45195D01*
X670537Y45166D01*
X670441Y45140D01*
X670345Y45119D01*
X670247Y45101D01*
X670150Y45088D01*
X670051Y45078D01*
X669953Y45072D01*
X669854Y45070D01*
X669854Y45071D02*
X667371Y45071D01*
X28681Y263652D02*
X28681Y274828D01*
X31786Y274828D01*
X31897Y274826D01*
X32007Y274820D01*
X32118Y274810D01*
X32228Y274796D01*
X32337Y274779D01*
X32446Y274757D01*
X32554Y274732D01*
X32660Y274702D01*
X32766Y274669D01*
X32871Y274632D01*
X32974Y274592D01*
X33075Y274547D01*
X33175Y274500D01*
X33274Y274448D01*
X33370Y274393D01*
X33464Y274335D01*
X33556Y274274D01*
X33646Y274209D01*
X33734Y274141D01*
X33819Y274070D01*
X33901Y273996D01*
X33981Y273919D01*
X34058Y273839D01*
X34132Y273757D01*
X34203Y273672D01*
X34271Y273584D01*
X34336Y273494D01*
X34397Y273402D01*
X34455Y273308D01*
X34510Y273212D01*
X34562Y273113D01*
X34609Y273013D01*
X34654Y272912D01*
X34694Y272809D01*
X34731Y272704D01*
X34764Y272598D01*
X34794Y272492D01*
X34819Y272384D01*
X34841Y272275D01*
X34858Y272166D01*
X34872Y272056D01*
X34882Y271945D01*
X34888Y271835D01*
X34890Y271724D01*
X34888Y271613D01*
X34882Y271503D01*
X34872Y271392D01*
X34858Y271282D01*
X34841Y271173D01*
X34819Y271064D01*
X34794Y270956D01*
X34764Y270850D01*
X34731Y270744D01*
X34694Y270639D01*
X34654Y270536D01*
X34609Y270435D01*
X34562Y270335D01*
X34510Y270236D01*
X34455Y270140D01*
X34397Y270046D01*
X34336Y269954D01*
X34271Y269864D01*
X34203Y269776D01*
X34132Y269691D01*
X34058Y269609D01*
X33981Y269529D01*
X33901Y269452D01*
X33819Y269378D01*
X33734Y269307D01*
X33646Y269239D01*
X33556Y269174D01*
X33464Y269113D01*
X33370Y269055D01*
X33274Y269000D01*
X33175Y268948D01*
X33075Y268901D01*
X32974Y268856D01*
X32871Y268816D01*
X32766Y268779D01*
X32660Y268746D01*
X32554Y268716D01*
X32446Y268691D01*
X32337Y268669D01*
X32228Y268652D01*
X32118Y268638D01*
X32007Y268628D01*
X31897Y268622D01*
X31786Y268620D01*
X31786Y268619D02*
X28681Y268619D01*
X32406Y268619D02*
X34890Y263652D01*
X40019Y266136D02*
X42503Y274828D01*
X40019Y266136D02*
X46228Y266136D01*
X44365Y268619D02*
X44365Y263652D01*
M02*
